<?xml version="1.0" encoding="UTF-8"?>
<!DOCTYPE svg PUBLIC "-//W3C//DTD SVG 1.1//EN" "http://www.w3.org/Graphics/SVG/1.1/DTD/svg11.dtd">
<svg xmlns="http://www.w3.org/2000/svg" version="1.1" width="5416px" height="804px" style="shape-rendering:geometricPrecision; text-rendering:geometricPrecision; image-rendering:optimizeQuality; fill-rule:evenodd; clip-rule:evenodd" xmlns:xlink="http://www.w3.org/1999/xlink">
<g><path style="opacity:1" fill="#fefefe" d="M -0.5,-0.5 C 1804.83,-0.5 3610.17,-0.5 5415.5,-0.5C 5415.5,267.5 5415.5,535.5 5415.5,803.5C 3610.17,803.5 1804.83,803.5 -0.5,803.5C -0.5,535.5 -0.5,267.5 -0.5,-0.5 Z"/></g>
<g><path style="opacity:1" fill="#0e0e0e" d="M 818.5,1.5 C 820.199,1.33982 821.866,1.50649 823.5,2C 808.835,27.3127 808.835,52.646 823.5,78C 820.975,78.8959 818.808,78.3959 817,76.5C 799.84,51.0492 800.34,26.0492 818.5,1.5 Z"/></g>
<g><path style="opacity:1" fill="#0f0f0f" d="M 944.5,1.5 C 946.199,1.33982 947.866,1.50649 949.5,2C 967.99,27.0083 968.156,52.175 950,77.5C 948.186,78.7596 946.353,78.7596 944.5,77.5C 959.139,52.1203 959.139,26.787 944.5,1.5 Z"/></g>
<g><path style="opacity:1" fill="#0d0d0d" d="M 844.5,17.5 C 856.553,15.3459 864.219,20.0126 867.5,31.5C 865.143,31.6633 862.81,31.4966 860.5,31C 857.176,23.8894 851.842,21.8894 844.5,25C 843,26.5 841.5,28 840,29.5C 838.473,35.4149 838.139,41.4149 839,47.5C 842.896,56.8763 849.229,58.8763 858,53.5C 859.411,51.3496 860.245,49.0163 860.5,46.5C 862.833,46.5 865.167,46.5 867.5,46.5C 867.006,54.8316 862.673,59.9982 854.5,62C 841.008,63.8322 833.175,57.9989 831,44.5C 829.168,32.1639 833.668,23.1639 844.5,17.5 Z"/></g>
<g><path style="opacity:1" fill="#0f0f0f" d="M 888.5,17.5 C 896.045,15.8639 901.878,18.1973 906,24.5C 911.946,17.1361 919.112,15.6361 927.5,20C 929.617,21.7309 931.117,23.8976 932,26.5C 932.5,38.1619 932.667,49.8286 932.5,61.5C 930.167,61.5 927.833,61.5 925.5,61.5C 925.667,50.8281 925.5,40.1615 925,29.5C 921.609,22.956 916.776,21.7893 910.5,26C 908.959,27.5793 907.792,29.4127 907,31.5C 906.5,41.4944 906.334,51.4944 906.5,61.5C 904.167,61.5 901.833,61.5 899.5,61.5C 899.667,50.495 899.5,39.495 899,28.5C 895.987,23.4648 891.82,22.2981 886.5,25C 884.622,26.5429 883.122,28.3762 882,30.5C 881.5,40.828 881.334,51.1613 881.5,61.5C 878.833,61.5 876.167,61.5 873.5,61.5C 873.5,47.1667 873.5,32.8333 873.5,18.5C 875.833,18.5 878.167,18.5 880.5,18.5C 880.34,20.1992 880.506,21.8659 881,23.5C 883.478,21.3606 885.978,19.3606 888.5,17.5 Z"/></g>
<g><path style="opacity:1" fill="#2d2d2d" d="M 765.5,20.5 C 776.701,18.846 783.534,23.5126 786,34.5C 786.822,42.5548 786.488,50.5548 785,58.5C 780.443,69.02 772.943,71.8533 762.5,67C 758.87,63.2382 756.703,58.7382 756,53.5C 755.333,46.8333 755.333,40.1667 756,33.5C 757.723,28.0298 760.89,23.6965 765.5,20.5 Z"/></g>
<g><path style="opacity:1" fill="#2a2a2a" d="M 1352.5,20.5 C 1353.83,20.5 1355.17,20.5 1356.5,20.5C 1356.5,36.5 1356.5,52.5 1356.5,68.5C 1354.5,68.5 1352.5,68.5 1350.5,68.5C 1350.67,56.1622 1350.5,43.8288 1350,31.5C 1346.48,34.2086 1342.65,36.2086 1338.5,37.5C 1338.34,35.8008 1338.51,34.1341 1339,32.5C 1344.69,29.7542 1349.19,25.7542 1352.5,20.5 Z"/></g>
<g><path style="opacity:1" fill="#2d2d2d" d="M 1381.5,20.5 C 1392.7,18.846 1399.53,23.5126 1402,34.5C 1402.82,42.5548 1402.49,50.5548 1401,58.5C 1396.44,69.02 1388.94,71.8533 1378.5,67C 1374.87,63.2382 1372.7,58.7382 1372,53.5C 1371.33,46.8333 1371.33,40.1667 1372,33.5C 1373.72,28.0298 1376.89,23.6965 1381.5,20.5 Z"/></g>
<g><path style="opacity:1" fill="#2d2d2d" d="M 1418.5,20.5 C 1429.7,18.846 1436.53,23.5126 1439,34.5C 1439.82,42.5548 1439.49,50.5548 1438,58.5C 1433.44,69.02 1425.94,71.8533 1415.5,67C 1411.87,63.2382 1409.7,58.7382 1409,53.5C 1408.33,46.8333 1408.33,40.1667 1409,33.5C 1410.72,28.0298 1413.89,23.6965 1418.5,20.5 Z"/></g>
<g><path style="opacity:1" fill="#2f2f2f" d="M 1960.5,20.5 C 1971.88,18.5098 1978.88,23.0098 1981.5,34C 1980.59,37.7126 1979.09,41.2126 1977,44.5C 1970.66,50.0108 1964.49,55.6774 1958.5,61.5C 1966.14,62.4975 1973.8,62.8308 1981.5,62.5C 1981.5,64.5 1981.5,66.5 1981.5,68.5C 1970.83,68.5 1960.17,68.5 1949.5,68.5C 1949.46,65.5755 1950.29,62.9088 1952,60.5C 1958.36,53.8014 1965.03,47.4681 1972,41.5C 1978.16,32.858 1976.16,27.5247 1966,25.5C 1960.43,25.8973 1957.27,28.8973 1956.5,34.5C 1954.5,34.5 1952.5,34.5 1950.5,34.5C 1951.14,27.8682 1954.47,23.2016 1960.5,20.5 Z"/></g>
<g><path style="opacity:1" fill="#2d2d2d" d="M 1997.5,20.5 C 2008.7,18.846 2015.53,23.5126 2018,34.5C 2018.82,42.5548 2018.49,50.5548 2017,58.5C 2012.44,69.02 2004.94,71.8533 1994.5,67C 1990.87,63.2382 1988.7,58.7382 1988,53.5C 1987.33,46.8333 1987.33,40.1667 1988,33.5C 1989.72,28.0298 1992.89,23.6965 1997.5,20.5 Z"/></g>
<g><path style="opacity:1" fill="#2d2d2d" d="M 2034.5,20.5 C 2045.7,18.846 2052.53,23.5126 2055,34.5C 2055.82,42.5548 2055.49,50.5548 2054,58.5C 2049.44,69.02 2041.94,71.8533 2031.5,67C 2027.87,63.2382 2025.7,58.7382 2025,53.5C 2024.33,46.8333 2024.33,40.1667 2025,33.5C 2026.72,28.0298 2029.89,23.6965 2034.5,20.5 Z"/></g>
<g><path style="opacity:1" fill="#2f2f2f" d="M 2576.5,20.5 C 2589.17,18.6817 2595.34,24.015 2595,36.5C 2593.69,38.6414 2592.19,40.6414 2590.5,42.5C 2598.68,48.9434 2599.68,56.4434 2593.5,65C 2583.72,71.9901 2575.22,70.8235 2568,61.5C 2567.19,59.5643 2566.69,57.5643 2566.5,55.5C 2570.75,54.7304 2573.25,56.3971 2574,60.5C 2580.46,66.2914 2586.12,65.6247 2591,58.5C 2592.49,48.8216 2588.32,44.4882 2578.5,45.5C 2578.5,43.8333 2578.5,42.1667 2578.5,40.5C 2586.64,41.0463 2590.14,37.3797 2589,29.5C 2582.26,23.448 2576.76,24.448 2572.5,32.5C 2568.39,34.2298 2566.89,32.8965 2568,28.5C 2570.07,24.9231 2572.91,22.2565 2576.5,20.5 Z"/></g>
<g><path style="opacity:1" fill="#2d2d2d" d="M 2613.5,20.5 C 2624.7,18.846 2631.53,23.5126 2634,34.5C 2634.82,42.5548 2634.49,50.5548 2633,58.5C 2628.44,69.02 2620.94,71.8533 2610.5,67C 2606.87,63.2382 2604.7,58.7382 2604,53.5C 2603.33,46.8333 2603.33,40.1667 2604,33.5C 2605.72,28.0298 2608.89,23.6965 2613.5,20.5 Z"/></g>
<g><path style="opacity:1" fill="#2d2d2d" d="M 2650.5,20.5 C 2661.7,18.846 2668.53,23.5126 2671,34.5C 2671.82,42.5548 2671.49,50.5548 2670,58.5C 2665.44,69.02 2657.94,71.8533 2647.5,67C 2643.87,63.2382 2641.7,58.7382 2641,53.5C 2640.33,46.8333 2640.33,40.1667 2641,33.5C 2642.72,28.0298 2645.89,23.6965 2650.5,20.5 Z"/></g>
<g><path style="opacity:1" fill="#2d2d2d" d="M 3229.5,20.5 C 3240.7,18.846 3247.53,23.5126 3250,34.5C 3250.82,42.5548 3250.49,50.5548 3249,58.5C 3244.44,69.02 3236.94,71.8533 3226.5,67C 3222.87,63.2382 3220.7,58.7382 3220,53.5C 3219.33,46.8333 3219.33,40.1667 3220,33.5C 3221.72,28.0298 3224.89,23.6965 3229.5,20.5 Z"/></g>
<g><path style="opacity:1" fill="#2d2d2d" d="M 3266.5,20.5 C 3277.7,18.846 3284.53,23.5126 3287,34.5C 3287.82,42.5548 3287.49,50.5548 3286,58.5C 3281.44,69.02 3273.94,71.8533 3263.5,67C 3259.87,63.2382 3257.7,58.7382 3257,53.5C 3256.33,46.8333 3256.33,40.1667 3257,33.5C 3258.72,28.0298 3261.89,23.6965 3266.5,20.5 Z"/></g>
<g><path style="opacity:1" fill="#2d2d2d" d="M 3845.5,20.5 C 3856.7,18.846 3863.53,23.5126 3866,34.5C 3866.82,42.5548 3866.49,50.5548 3865,58.5C 3860.44,69.02 3852.94,71.8533 3842.5,67C 3838.87,63.2382 3836.7,58.7382 3836,53.5C 3835.33,46.8333 3835.33,40.1667 3836,33.5C 3837.72,28.0298 3840.89,23.6965 3845.5,20.5 Z"/></g>
<g><path style="opacity:1" fill="#2d2d2d" d="M 3882.5,20.5 C 3893.7,18.846 3900.53,23.5126 3903,34.5C 3903.82,42.5548 3903.49,50.5548 3902,58.5C 3897.44,69.02 3889.94,71.8533 3879.5,67C 3875.87,63.2382 3873.7,58.7382 3873,53.5C 3872.33,46.8333 3872.33,40.1667 3873,33.5C 3874.72,28.0298 3877.89,23.6965 3882.5,20.5 Z"/></g>
<g><path style="opacity:1" fill="#2c2c2c" d="M 4425.5,20.5 C 4436.03,18.2478 4442.36,22.2478 4444.5,32.5C 4442.5,32.5 4440.5,32.5 4438.5,32.5C 4438.53,30.4176 4437.86,28.5843 4436.5,27C 4428.92,23.4257 4423.75,25.5924 4421,33.5C 4419.79,36.7675 4419.45,40.1008 4420,43.5C 4425.53,37.043 4432.03,35.8764 4439.5,40C 4447.13,48.3211 4447.47,56.9878 4440.5,66C 4428.46,72.2284 4419.96,69.0618 4415,56.5C 4414.33,49.1667 4414.33,41.8333 4415,34.5C 4416.84,28.4294 4420.34,23.7627 4425.5,20.5 Z"/></g>
<g><path style="opacity:1" fill="#2d2d2d" d="M 4461.5,20.5 C 4472.7,18.846 4479.53,23.5126 4482,34.5C 4482.82,42.5548 4482.49,50.5548 4481,58.5C 4476.44,69.02 4468.94,71.8533 4458.5,67C 4454.87,63.2382 4452.7,58.7382 4452,53.5C 4451.33,46.8333 4451.33,40.1667 4452,33.5C 4453.72,28.0298 4456.89,23.6965 4461.5,20.5 Z"/></g>
<g><path style="opacity:1" fill="#2d2d2d" d="M 4498.5,20.5 C 4509.7,18.846 4516.53,23.5126 4519,34.5C 4519.82,42.5548 4519.49,50.5548 4518,58.5C 4513.44,69.02 4505.94,71.8533 4495.5,67C 4491.87,63.2382 4489.7,58.7382 4489,53.5C 4488.33,46.8333 4488.33,40.1667 4489,33.5C 4490.72,28.0298 4493.89,23.6965 4498.5,20.5 Z"/></g>
<g><path style="opacity:1" fill="#2d2d2d" d="M 5077.5,20.5 C 5088.7,18.846 5095.53,23.5126 5098,34.5C 5098.82,42.5548 5098.49,50.5548 5097,58.5C 5092.44,69.02 5084.94,71.8533 5074.5,67C 5070.87,63.2382 5068.7,58.7382 5068,53.5C 5067.33,46.8333 5067.33,40.1667 5068,33.5C 5069.72,28.0298 5072.89,23.6965 5077.5,20.5 Z"/></g>
<g><path style="opacity:1" fill="#2d2d2d" d="M 5114.5,20.5 C 5125.7,18.846 5132.53,23.5126 5135,34.5C 5135.82,42.5548 5135.49,50.5548 5134,58.5C 5129.44,69.02 5121.94,71.8533 5111.5,67C 5107.87,63.2382 5105.7,58.7382 5105,53.5C 5104.33,46.8333 5104.33,40.1667 5105,33.5C 5106.72,28.0298 5109.89,23.6965 5114.5,20.5 Z"/></g>
<g><path style="opacity:1" fill="#2f2f2f" d="M 3201.5,68.5 C 3201.5,64.5 3201.5,60.5 3201.5,56.5C 3194.5,56.5 3187.5,56.5 3180.5,56.5C 3180.34,54.4727 3180.5,52.4727 3181,50.5C 3188.03,40.9721 3194.86,31.3054 3201.5,21.5C 3203.4,20.5344 3205.4,20.2011 3207.5,20.5C 3207.5,30.8333 3207.5,41.1667 3207.5,51.5C 3209.5,51.5 3211.5,51.5 3213.5,51.5C 3213.5,53.5 3213.5,55.5 3213.5,57.5C 3211.5,57.5 3209.5,57.5 3207.5,57.5C 3207.5,61.1667 3207.5,64.8333 3207.5,68.5C 3205.5,68.5 3203.5,68.5 3201.5,68.5 Z"/></g>
<g><path style="opacity:1" fill="#2d2d2d" d="M 3803.5,21.5 C 3811.5,21.5 3819.5,21.5 3827.5,21.5C 3827.5,23.1667 3827.5,24.8333 3827.5,26.5C 3821.13,26.1703 3814.8,26.5037 3808.5,27.5C 3807.56,31.3743 3806.56,35.2076 3805.5,39C 3818.59,33.5433 3826.92,37.71 3830.5,51.5C 3828.88,64.6306 3821.54,70.464 3808.5,69C 3802.28,66.6195 3798.95,62.1195 3798.5,55.5C 3800.5,55.5 3802.5,55.5 3804.5,55.5C 3807.25,64.8762 3812.75,66.8762 3821,61.5C 3823.85,56.3201 3824.18,50.9868 3822,45.5C 3816.24,40.1341 3810.74,40.3008 3805.5,46C 3803.53,46.4955 3801.53,46.6621 3799.5,46.5C 3800.67,38.1388 3802.01,29.8054 3803.5,21.5 Z"/></g>
<g><path style="opacity:1" fill="#2c2c2c" d="M 5030.5,21.5 C 5040.83,21.5 5051.17,21.5 5061.5,21.5C 5060.03,27.4299 5057.2,32.7632 5053,37.5C 5047.31,47.0824 5044.14,57.4157 5043.5,68.5C 5041.5,68.5 5039.5,68.5 5037.5,68.5C 5038.51,53.1244 5043.85,39.4578 5053.5,27.5C 5045.86,26.5025 5038.2,26.1692 5030.5,26.5C 5030.5,24.8333 5030.5,23.1667 5030.5,21.5 Z"/></g>
<g><path style="opacity:1" fill="#fafafa" d="M 767.5,25.5 C 774.271,24.7587 778.437,27.7587 780,34.5C 780.856,42.2318 780.523,49.8984 779,57.5C 777.18,63.1614 773.347,65.3281 767.5,64C 764.246,61.6581 762.412,58.4915 762,54.5C 761.333,47.5 761.333,40.5 762,33.5C 763.117,30.2409 764.95,27.5743 767.5,25.5 Z"/></g>
<g><path style="opacity:1" fill="#fafafa" d="M 1383.5,25.5 C 1390.27,24.7587 1394.44,27.7587 1396,34.5C 1396.86,42.2318 1396.52,49.8984 1395,57.5C 1393.18,63.1614 1389.35,65.3281 1383.5,64C 1380.25,61.6581 1378.41,58.4915 1378,54.5C 1377.33,47.5 1377.33,40.5 1378,33.5C 1379.12,30.2409 1380.95,27.5743 1383.5,25.5 Z"/></g>
<g><path style="opacity:1" fill="#fafafa" d="M 1420.5,25.5 C 1427.27,24.7587 1431.44,27.7587 1433,34.5C 1433.86,42.2318 1433.52,49.8984 1432,57.5C 1430.18,63.1614 1426.35,65.3281 1420.5,64C 1417.25,61.6581 1415.41,58.4915 1415,54.5C 1414.33,47.5 1414.33,40.5 1415,33.5C 1416.12,30.2409 1417.95,27.5743 1420.5,25.5 Z"/></g>
<g><path style="opacity:1" fill="#fafafa" d="M 1999.5,25.5 C 2006.27,24.7587 2010.44,27.7587 2012,34.5C 2012.86,42.2318 2012.52,49.8984 2011,57.5C 2009.18,63.1614 2005.35,65.3281 1999.5,64C 1996.25,61.6581 1994.41,58.4915 1994,54.5C 1993.33,47.5 1993.33,40.5 1994,33.5C 1995.12,30.2409 1996.95,27.5743 1999.5,25.5 Z"/></g>
<g><path style="opacity:1" fill="#fafafa" d="M 2036.5,25.5 C 2043.27,24.7587 2047.44,27.7587 2049,34.5C 2049.86,42.2318 2049.52,49.8984 2048,57.5C 2046.18,63.1614 2042.35,65.3281 2036.5,64C 2033.25,61.6581 2031.41,58.4915 2031,54.5C 2030.33,47.5 2030.33,40.5 2031,33.5C 2032.12,30.2409 2033.95,27.5743 2036.5,25.5 Z"/></g>
<g><path style="opacity:1" fill="#fafafa" d="M 2615.5,25.5 C 2622.27,24.7587 2626.44,27.7587 2628,34.5C 2628.86,42.2318 2628.52,49.8984 2627,57.5C 2625.18,63.1614 2621.35,65.3281 2615.5,64C 2612.25,61.6581 2610.41,58.4915 2610,54.5C 2609.33,47.5 2609.33,40.5 2610,33.5C 2611.12,30.2409 2612.95,27.5743 2615.5,25.5 Z"/></g>
<g><path style="opacity:1" fill="#fafafa" d="M 2652.5,25.5 C 2659.27,24.7587 2663.44,27.7587 2665,34.5C 2665.86,42.2318 2665.52,49.8984 2664,57.5C 2662.18,63.1614 2658.35,65.3281 2652.5,64C 2649.25,61.6581 2647.41,58.4915 2647,54.5C 2646.33,47.5 2646.33,40.5 2647,33.5C 2648.12,30.2409 2649.95,27.5743 2652.5,25.5 Z"/></g>
<g><path style="opacity:1" fill="#fafafa" d="M 3231.5,25.5 C 3238.27,24.7587 3242.44,27.7587 3244,34.5C 3244.86,42.2318 3244.52,49.8984 3243,57.5C 3241.18,63.1614 3237.35,65.3281 3231.5,64C 3228.25,61.6581 3226.41,58.4915 3226,54.5C 3225.33,47.5 3225.33,40.5 3226,33.5C 3227.12,30.2409 3228.95,27.5743 3231.5,25.5 Z"/></g>
<g><path style="opacity:1" fill="#fafafa" d="M 3268.5,25.5 C 3275.27,24.7587 3279.44,27.7587 3281,34.5C 3281.86,42.2318 3281.52,49.8984 3280,57.5C 3278.18,63.1614 3274.35,65.3281 3268.5,64C 3265.25,61.6581 3263.41,58.4915 3263,54.5C 3262.33,47.5 3262.33,40.5 3263,33.5C 3264.12,30.2409 3265.95,27.5743 3268.5,25.5 Z"/></g>
<g><path style="opacity:1" fill="#fafafa" d="M 3847.5,25.5 C 3854.27,24.7587 3858.44,27.7587 3860,34.5C 3860.86,42.2318 3860.52,49.8984 3859,57.5C 3857.18,63.1614 3853.35,65.3281 3847.5,64C 3844.25,61.6581 3842.41,58.4915 3842,54.5C 3841.33,47.5 3841.33,40.5 3842,33.5C 3843.12,30.2409 3844.95,27.5743 3847.5,25.5 Z"/></g>
<g><path style="opacity:1" fill="#fafafa" d="M 3884.5,25.5 C 3891.27,24.7587 3895.44,27.7587 3897,34.5C 3897.86,42.2318 3897.52,49.8984 3896,57.5C 3894.18,63.1614 3890.35,65.3281 3884.5,64C 3881.25,61.6581 3879.41,58.4915 3879,54.5C 3878.33,47.5 3878.33,40.5 3879,33.5C 3880.12,30.2409 3881.95,27.5743 3884.5,25.5 Z"/></g>
<g><path style="opacity:1" fill="#fafafa" d="M 4463.5,25.5 C 4470.27,24.7587 4474.44,27.7587 4476,34.5C 4476.86,42.2318 4476.52,49.8984 4475,57.5C 4473.18,63.1614 4469.35,65.3281 4463.5,64C 4460.25,61.6581 4458.41,58.4915 4458,54.5C 4457.33,47.5 4457.33,40.5 4458,33.5C 4459.12,30.2409 4460.95,27.5743 4463.5,25.5 Z"/></g>
<g><path style="opacity:1" fill="#fafafa" d="M 4500.5,25.5 C 4507.27,24.7587 4511.44,27.7587 4513,34.5C 4513.86,42.2318 4513.52,49.8984 4512,57.5C 4510.18,63.1614 4506.35,65.3281 4500.5,64C 4497.25,61.6581 4495.41,58.4915 4495,54.5C 4494.33,47.5 4494.33,40.5 4495,33.5C 4496.12,30.2409 4497.95,27.5743 4500.5,25.5 Z"/></g>
<g><path style="opacity:1" fill="#fafafa" d="M 5079.5,25.5 C 5086.27,24.7587 5090.44,27.7587 5092,34.5C 5092.86,42.2318 5092.52,49.8984 5091,57.5C 5089.18,63.1614 5085.35,65.3281 5079.5,64C 5076.25,61.6581 5074.41,58.4915 5074,54.5C 5073.33,47.5 5073.33,40.5 5074,33.5C 5075.12,30.2409 5076.95,27.5743 5079.5,25.5 Z"/></g>
<g><path style="opacity:1" fill="#fafafa" d="M 5116.5,25.5 C 5123.27,24.7587 5127.44,27.7587 5129,34.5C 5129.86,42.2318 5129.52,49.8984 5128,57.5C 5126.18,63.1614 5122.35,65.3281 5116.5,64C 5113.25,61.6581 5111.41,58.4915 5111,54.5C 5110.33,47.5 5110.33,40.5 5111,33.5C 5112.12,30.2409 5113.95,27.5743 5116.5,25.5 Z"/></g>
<g><path style="opacity:1" fill="#f2f2f2" d="M 3200.5,30.5 C 3201.49,37.3134 3201.82,44.3134 3201.5,51.5C 3196.49,51.6659 3191.49,51.4993 3186.5,51C 3191.39,44.2859 3196.05,37.4526 3200.5,30.5 Z"/></g>
<g><path style="opacity:1" fill="#f8f8f8" d="M 4426.5,42.5 C 4438.56,42.9276 4442.4,48.9276 4438,60.5C 4430.07,66.8942 4424.4,65.2276 4421,55.5C 4420.09,49.983 4421.93,45.6496 4426.5,42.5 Z"/></g>
<g><path style="opacity:1" fill="#8e8e8e" d="M 3180.5,56.5 C 3187.5,56.5 3194.5,56.5 3201.5,56.5C 3201.5,60.5 3201.5,64.5 3201.5,68.5C 3200.52,65.0381 3200.19,61.3714 3200.5,57.5C 3193.65,57.824 3186.98,57.4907 3180.5,56.5 Z"/></g>
<g><path style="opacity:1" fill="#363636" d="M 4490.5,94.5 C 4522.5,94.5 4554.5,94.5 4586.5,94.5C 4849,95.4998 5111.67,95.8331 5374.5,95.5C 5374.5,286.167 5374.5,476.833 5374.5,667.5C 5111.67,667.167 4849,667.5 4586.5,668.5C 4554.5,668.5 4522.5,668.5 4490.5,668.5C 3250.33,667.5 2010,667.167 769.5,667.5C 769.5,476.833 769.5,286.167 769.5,95.5C 2010,95.8333 3250.33,95.5 4490.5,94.5 Z"/></g>
<g><path style="opacity:1" fill="#777777" d="M 4586.5,94.5 C 4849.5,94.5 5112.5,94.5 5375.5,94.5C 5375.5,285.833 5375.5,477.167 5375.5,668.5C 5112.5,668.5 4849.5,668.5 4586.5,668.5C 4849,667.5 5111.67,667.167 5374.5,667.5C 5374.5,476.833 5374.5,286.167 5374.5,95.5C 5111.67,95.8331 4849,95.4998 4586.5,94.5 Z"/></g>
<g><path style="opacity:1" fill="#fefffe" d="M 1070.5,99.5 C 1070.5,287.5 1070.5,475.5 1070.5,663.5C 971.5,663.5 872.5,663.5 773.5,663.5C 773.5,475.5 773.5,287.5 773.5,99.5C 872.5,99.5 971.5,99.5 1070.5,99.5 Z"/></g>
<g><path style="opacity:1" fill="#0573bd" d="M 1070.5,99.5 C 1076.17,99.5 1081.83,99.5 1087.5,99.5C 1087.5,287.5 1087.5,475.5 1087.5,663.5C 1081.83,663.5 1076.17,663.5 1070.5,663.5C 1070.5,475.5 1070.5,287.5 1070.5,99.5 Z"/></g>
<g><path style="opacity:1" fill="#fefffe" d="M 1087.5,99.5 C 1174.5,99.5 1261.5,99.5 1348.5,99.5C 1348.5,287.5 1348.5,475.5 1348.5,663.5C 1261.5,663.5 1174.5,663.5 1087.5,663.5C 1087.5,475.5 1087.5,287.5 1087.5,99.5 Z"/></g>
<g><path style="opacity:1" fill="#0573bd" d="M 1348.5,99.5 C 1354.17,99.5 1359.83,99.5 1365.5,99.5C 1365.5,287.5 1365.5,475.5 1365.5,663.5C 1359.83,663.5 1354.17,663.5 1348.5,663.5C 1348.5,475.5 1348.5,287.5 1348.5,99.5 Z"/></g>
<g><path style="opacity:1" fill="#fefffe" d="M 1365.5,99.5 C 1371.83,99.5 1378.17,99.5 1384.5,99.5C 1384.5,114.833 1384.5,130.167 1384.5,145.5C 1386.17,145.5 1387.83,145.5 1389.5,145.5C 1389.5,130.167 1389.5,114.833 1389.5,99.5C 1509.17,99.5 1628.83,99.5 1748.5,99.5C 1748.5,287.5 1748.5,475.5 1748.5,663.5C 1628.83,663.5 1509.17,663.5 1389.5,663.5C 1389.5,648.167 1389.5,632.833 1389.5,617.5C 1387.83,617.5 1386.17,617.5 1384.5,617.5C 1384.5,632.833 1384.5,648.167 1384.5,663.5C 1378.17,663.5 1371.83,663.5 1365.5,663.5C 1365.5,475.5 1365.5,287.5 1365.5,99.5 Z"/></g>
<g><path style="opacity:1" fill="#777777" d="M 1384.5,99.5 C 1385.5,114.324 1385.83,129.324 1385.5,144.5C 1386.5,144.5 1387.5,144.5 1388.5,144.5C 1388.17,129.324 1388.5,114.324 1389.5,99.5C 1389.5,114.833 1389.5,130.167 1389.5,145.5C 1387.83,145.5 1386.17,145.5 1384.5,145.5C 1384.5,130.167 1384.5,114.833 1384.5,99.5 Z"/></g>
<g><path style="opacity:1" fill="#0573bd" d="M 1748.5,99.5 C 1754.17,99.5 1759.83,99.5 1765.5,99.5C 1765.5,287.5 1765.5,475.5 1765.5,663.5C 1759.83,663.5 1754.17,663.5 1748.5,663.5C 1748.5,475.5 1748.5,287.5 1748.5,99.5 Z"/></g>
<g><path style="opacity:1" fill="#fefffe" d="M 1765.5,99.5 C 1843.83,99.5 1922.17,99.5 2000.5,99.5C 2000.5,114.833 2000.5,130.167 2000.5,145.5C 2002.17,145.5 2003.83,145.5 2005.5,145.5C 2005.5,130.167 2005.5,114.833 2005.5,99.5C 2032.83,99.5 2060.17,99.5 2087.5,99.5C 2087.5,287.5 2087.5,475.5 2087.5,663.5C 2060.17,663.5 2032.83,663.5 2005.5,663.5C 2005.5,648.167 2005.5,632.833 2005.5,617.5C 2003.83,617.5 2002.17,617.5 2000.5,617.5C 2000.5,632.833 2000.5,648.167 2000.5,663.5C 1922.17,663.5 1843.83,663.5 1765.5,663.5C 1765.5,475.5 1765.5,287.5 1765.5,99.5 Z"/></g>
<g><path style="opacity:1" fill="#777777" d="M 2000.5,99.5 C 2001.5,114.324 2001.83,129.324 2001.5,144.5C 2002.5,144.5 2003.5,144.5 2004.5,144.5C 2004.17,129.324 2004.5,114.324 2005.5,99.5C 2005.5,114.833 2005.5,130.167 2005.5,145.5C 2003.83,145.5 2002.17,145.5 2000.5,145.5C 2000.5,130.167 2000.5,114.833 2000.5,99.5 Z"/></g>
<g><path style="opacity:1" fill="#0573bd" d="M 2087.5,99.5 C 2093.17,99.5 2098.83,99.5 2104.5,99.5C 2104.5,287.5 2104.5,475.5 2104.5,663.5C 2098.83,663.5 2093.17,663.5 2087.5,663.5C 2087.5,475.5 2087.5,287.5 2087.5,99.5 Z"/></g>
<g><path style="opacity:1" fill="#fefffe" d="M 2104.5,99.5 C 2180.83,99.5 2257.17,99.5 2333.5,99.5C 2333.5,287.5 2333.5,475.5 2333.5,663.5C 2257.17,663.5 2180.83,663.5 2104.5,663.5C 2104.5,475.5 2104.5,287.5 2104.5,99.5 Z"/></g>
<g><path style="opacity:1" fill="#0574bd" d="M 2333.5,99.5 C 2339.17,99.5 2344.83,99.5 2350.5,99.5C 2350.5,287.5 2350.5,475.5 2350.5,663.5C 2344.83,663.5 2339.17,663.5 2333.5,663.5C 2333.5,475.5 2333.5,287.5 2333.5,99.5 Z"/></g>
<g><path style="opacity:1" fill="#fefffe" d="M 2350.5,99.5 C 2439.17,99.5 2527.83,99.5 2616.5,99.5C 2616.5,114.833 2616.5,130.167 2616.5,145.5C 2618.17,145.5 2619.83,145.5 2621.5,145.5C 2621.5,130.167 2621.5,114.833 2621.5,99.5C 2634.5,99.5 2647.5,99.5 2660.5,99.5C 2660.5,287.5 2660.5,475.5 2660.5,663.5C 2647.5,663.5 2634.5,663.5 2621.5,663.5C 2621.5,648.167 2621.5,632.833 2621.5,617.5C 2619.83,617.5 2618.17,617.5 2616.5,617.5C 2616.5,632.833 2616.5,648.167 2616.5,663.5C 2527.83,663.5 2439.17,663.5 2350.5,663.5C 2350.5,475.5 2350.5,287.5 2350.5,99.5 Z"/></g>
<g><path style="opacity:1" fill="#777777" d="M 2616.5,99.5 C 2617.5,114.324 2617.83,129.324 2617.5,144.5C 2618.5,144.5 2619.5,144.5 2620.5,144.5C 2620.17,129.324 2620.5,114.324 2621.5,99.5C 2621.5,114.833 2621.5,130.167 2621.5,145.5C 2619.83,145.5 2618.17,145.5 2616.5,145.5C 2616.5,130.167 2616.5,114.833 2616.5,99.5 Z"/></g>
<g><path style="opacity:1" fill="#0574bd" d="M 2660.5,99.5 C 2666.17,99.5 2671.83,99.5 2677.5,99.5C 2677.5,287.5 2677.5,475.5 2677.5,663.5C 2671.83,663.5 2666.17,663.5 2660.5,663.5C 2660.5,475.5 2660.5,287.5 2660.5,99.5 Z"/></g>
<g><path style="opacity:1" fill="#fefffe" d="M 2677.5,99.5 C 2735.5,99.5 2793.5,99.5 2851.5,99.5C 2851.5,287.5 2851.5,475.5 2851.5,663.5C 2793.5,663.5 2735.5,663.5 2677.5,663.5C 2677.5,475.5 2677.5,287.5 2677.5,99.5 Z"/></g>
<g><path style="opacity:1" fill="#d9551c" d="M 2851.5,99.5 C 2857.17,99.5 2862.83,99.5 2868.5,99.5C 2868.5,287.5 2868.5,475.5 2868.5,663.5C 2862.83,663.5 2857.17,663.5 2851.5,663.5C 2851.5,475.5 2851.5,287.5 2851.5,99.5 Z"/></g>
<g><path style="opacity:1" fill="#fefffe" d="M 2868.5,99.5 C 2934.5,99.5 3000.5,99.5 3066.5,99.5C 3066.5,287.5 3066.5,475.5 3066.5,663.5C 3000.5,663.5 2934.5,663.5 2868.5,663.5C 2868.5,475.5 2868.5,287.5 2868.5,99.5 Z"/></g>
<g><path style="opacity:1" fill="#d9551c" d="M 3066.5,99.5 C 3072.17,99.5 3077.83,99.5 3083.5,99.5C 3083.5,287.5 3083.5,475.5 3083.5,663.5C 3077.83,663.5 3072.17,663.5 3066.5,663.5C 3066.5,475.5 3066.5,287.5 3066.5,99.5 Z"/></g>
<g><path style="opacity:1" fill="#fefffe" d="M 3083.5,99.5 C 3133.5,99.5 3183.5,99.5 3233.5,99.5C 3233.5,114.833 3233.5,130.167 3233.5,145.5C 3235.17,145.5 3236.83,145.5 3238.5,145.5C 3238.5,130.167 3238.5,114.833 3238.5,99.5C 3259.17,99.5 3279.83,99.5 3300.5,99.5C 3300.5,287.5 3300.5,475.5 3300.5,663.5C 3279.83,663.5 3259.17,663.5 3238.5,663.5C 3238.5,648.167 3238.5,632.833 3238.5,617.5C 3236.83,617.5 3235.17,617.5 3233.5,617.5C 3233.5,632.833 3233.5,648.167 3233.5,663.5C 3183.5,663.5 3133.5,663.5 3083.5,663.5C 3083.5,475.5 3083.5,287.5 3083.5,99.5 Z"/></g>
<g><path style="opacity:1" fill="#777777" d="M 3233.5,99.5 C 3234.5,114.324 3234.83,129.324 3234.5,144.5C 3235.5,144.5 3236.5,144.5 3237.5,144.5C 3237.17,129.324 3237.5,114.324 3238.5,99.5C 3238.5,114.833 3238.5,130.167 3238.5,145.5C 3236.83,145.5 3235.17,145.5 3233.5,145.5C 3233.5,130.167 3233.5,114.833 3233.5,99.5 Z"/></g>
<g><path style="opacity:1" fill="#d9551c" d="M 3300.5,99.5 C 3306.17,99.5 3311.83,99.5 3317.5,99.5C 3317.5,287.5 3317.5,475.5 3317.5,663.5C 3311.83,663.5 3306.17,663.5 3300.5,663.5C 3300.5,475.5 3300.5,287.5 3300.5,99.5 Z"/></g>
<g><path style="opacity:1" fill="#fefffe" d="M 3317.5,99.5 C 3392.17,99.5 3466.83,99.5 3541.5,99.5C 3541.5,287.5 3541.5,475.5 3541.5,663.5C 3466.83,663.5 3392.17,663.5 3317.5,663.5C 3317.5,475.5 3317.5,287.5 3317.5,99.5 Z"/></g>
<g><path style="opacity:1" fill="#d9551c" d="M 3541.5,99.5 C 3547.17,99.5 3552.83,99.5 3558.5,99.5C 3558.5,287.5 3558.5,475.5 3558.5,663.5C 3552.83,663.5 3547.17,663.5 3541.5,663.5C 3541.5,475.5 3541.5,287.5 3541.5,99.5 Z"/></g>
<g><path style="opacity:1" fill="#fefffe" d="M 3558.5,99.5 C 3610.17,99.5 3661.83,99.5 3713.5,99.5C 3713.5,287.5 3713.5,475.5 3713.5,663.5C 3661.83,663.5 3610.17,663.5 3558.5,663.5C 3558.5,475.5 3558.5,287.5 3558.5,99.5 Z"/></g>
<g><path style="opacity:1" fill="#edb223" d="M 3713.5,99.5 C 3719.17,99.5 3724.83,99.5 3730.5,99.5C 3730.5,287.5 3730.5,475.5 3730.5,663.5C 3724.83,663.5 3719.17,663.5 3713.5,663.5C 3713.5,475.5 3713.5,287.5 3713.5,99.5 Z"/></g>
<g><path style="opacity:1" fill="#fefffe" d="M 3730.5,99.5 C 3747.5,99.5 3764.5,99.5 3781.5,99.5C 3781.5,287.5 3781.5,475.5 3781.5,663.5C 3764.5,663.5 3747.5,663.5 3730.5,663.5C 3730.5,475.5 3730.5,287.5 3730.5,99.5 Z"/></g>
<g><path style="opacity:1" fill="#edb223" d="M 3781.5,99.5 C 3787.17,99.5 3792.83,99.5 3798.5,99.5C 3798.5,287.5 3798.5,475.5 3798.5,663.5C 3792.83,663.5 3787.17,663.5 3781.5,663.5C 3781.5,475.5 3781.5,287.5 3781.5,99.5 Z"/></g>
<g><path style="opacity:1" fill="#fefffe" d="M 3798.5,99.5 C 3815.5,99.5 3832.5,99.5 3849.5,99.5C 3849.5,114.833 3849.5,130.167 3849.5,145.5C 3851.17,145.5 3852.83,145.5 3854.5,145.5C 3854.5,130.167 3854.5,114.833 3854.5,99.5C 3860.83,99.5 3867.17,99.5 3873.5,99.5C 3873.5,287.5 3873.5,475.5 3873.5,663.5C 3867.17,663.5 3860.83,663.5 3854.5,663.5C 3854.5,648.167 3854.5,632.833 3854.5,617.5C 3852.83,617.5 3851.17,617.5 3849.5,617.5C 3849.5,632.833 3849.5,648.167 3849.5,663.5C 3832.5,663.5 3815.5,663.5 3798.5,663.5C 3798.5,475.5 3798.5,287.5 3798.5,99.5 Z"/></g>
<g><path style="opacity:1" fill="#777777" d="M 3849.5,99.5 C 3850.5,114.324 3850.83,129.324 3850.5,144.5C 3851.5,144.5 3852.5,144.5 3853.5,144.5C 3853.17,129.324 3853.5,114.324 3854.5,99.5C 3854.5,114.833 3854.5,130.167 3854.5,145.5C 3852.83,145.5 3851.17,145.5 3849.5,145.5C 3849.5,130.167 3849.5,114.833 3849.5,99.5 Z"/></g>
<g><path style="opacity:1" fill="#edb223" d="M 3873.5,99.5 C 3879.17,99.5 3884.83,99.5 3890.5,99.5C 3890.5,287.5 3890.5,475.5 3890.5,663.5C 3884.83,663.5 3879.17,663.5 3873.5,663.5C 3873.5,475.5 3873.5,287.5 3873.5,99.5 Z"/></g>
<g><path style="opacity:1" fill="#fefffe" d="M 3890.5,99.5 C 3905.5,99.5 3920.5,99.5 3935.5,99.5C 3935.5,287.5 3935.5,475.5 3935.5,663.5C 3920.5,663.5 3905.5,663.5 3890.5,663.5C 3890.5,475.5 3890.5,287.5 3890.5,99.5 Z"/></g>
<g><path style="opacity:1" fill="#edb223" d="M 3935.5,99.5 C 3941.17,99.5 3946.83,99.5 3952.5,99.5C 3952.5,287.5 3952.5,475.5 3952.5,663.5C 3946.83,663.5 3941.17,663.5 3935.5,663.5C 3935.5,475.5 3935.5,287.5 3935.5,99.5 Z"/></g>
<g><path style="opacity:1" fill="#fefffe" d="M 3952.5,99.5 C 3979.83,99.5 4007.17,99.5 4034.5,99.5C 4034.5,287.5 4034.5,475.5 4034.5,663.5C 4007.17,663.5 3979.83,663.5 3952.5,663.5C 3952.5,475.5 3952.5,287.5 3952.5,99.5 Z"/></g>
<g><path style="opacity:1" fill="#edb223" d="M 4034.5,99.5 C 4040.17,99.5 4045.83,99.5 4051.5,99.5C 4051.5,287.5 4051.5,475.5 4051.5,663.5C 4045.83,663.5 4040.17,663.5 4034.5,663.5C 4034.5,475.5 4034.5,287.5 4034.5,99.5 Z"/></g>
<g><path style="opacity:1" fill="#fefffe" d="M 4051.5,99.5 C 4080.5,99.5 4109.5,99.5 4138.5,99.5C 4138.5,287.5 4138.5,475.5 4138.5,663.5C 4109.5,663.5 4080.5,663.5 4051.5,663.5C 4051.5,475.5 4051.5,287.5 4051.5,99.5 Z"/></g>
<g><path style="opacity:1" fill="#edb223" d="M 4138.5,99.5 C 4144.17,99.5 4149.83,99.5 4155.5,99.5C 4155.5,287.5 4155.5,475.5 4155.5,663.5C 4149.83,663.5 4144.17,663.5 4138.5,663.5C 4138.5,475.5 4138.5,287.5 4138.5,99.5 Z"/></g>
<g><path style="opacity:1" fill="#fefffe" d="M 4155.5,99.5 C 4178.83,99.5 4202.17,99.5 4225.5,99.5C 4225.5,287.5 4225.5,475.5 4225.5,663.5C 4202.17,663.5 4178.83,663.5 4155.5,663.5C 4155.5,475.5 4155.5,287.5 4155.5,99.5 Z"/></g>
<g><path style="opacity:1" fill="#edb223" d="M 4225.5,99.5 C 4231.17,99.5 4236.83,99.5 4242.5,99.5C 4242.5,287.5 4242.5,475.5 4242.5,663.5C 4236.83,663.5 4231.17,663.5 4225.5,663.5C 4225.5,475.5 4225.5,287.5 4225.5,99.5 Z"/></g>
<g><path style="opacity:1" fill="#fefffe" d="M 4242.5,99.5 C 4316.83,99.5 4391.17,99.5 4465.5,99.5C 4465.5,114.833 4465.5,130.167 4465.5,145.5C 4467.17,145.5 4468.83,145.5 4470.5,145.5C 4470.5,130.167 4470.5,114.833 4470.5,99.5C 4476.83,99.5 4483.17,99.5 4489.5,99.5C 4489.5,181.833 4489.5,264.167 4489.5,346.5C 4486.17,346.5 4482.83,346.5 4479.5,346.5C 4478.5,372.328 4478.17,398.328 4478.5,424.5C 4482.17,424.5 4485.83,424.5 4489.5,424.5C 4489.5,504.167 4489.5,583.833 4489.5,663.5C 4483.17,663.5 4476.83,663.5 4470.5,663.5C 4470.5,648.167 4470.5,632.833 4470.5,617.5C 4468.83,617.5 4467.17,617.5 4465.5,617.5C 4465.5,632.833 4465.5,648.167 4465.5,663.5C 4391.17,663.5 4316.83,663.5 4242.5,663.5C 4242.5,475.5 4242.5,287.5 4242.5,99.5 Z"/></g>
<g><path style="opacity:1" fill="#777777" d="M 4465.5,99.5 C 4466.5,114.324 4466.83,129.324 4466.5,144.5C 4467.5,144.5 4468.5,144.5 4469.5,144.5C 4469.17,129.324 4469.5,114.324 4470.5,99.5C 4470.5,114.833 4470.5,130.167 4470.5,145.5C 4468.83,145.5 4467.17,145.5 4465.5,145.5C 4465.5,130.167 4465.5,114.833 4465.5,99.5 Z"/></g>
<g><path style="opacity:1" fill="#9c9c9c" d="M 4470.5,99.5 C 4477.17,98.1667 4483.83,98.1667 4490.5,99.5C 4490.5,192.5 4490.5,285.5 4490.5,378.5C 4489.51,368.013 4489.17,357.346 4489.5,346.5C 4489.5,264.167 4489.5,181.833 4489.5,99.5C 4483.17,99.5 4476.83,99.5 4470.5,99.5 Z"/></g>
<g><path style="opacity:1" fill="#000000" d="M 4490.5,99.5 C 4522.17,99.5 4553.83,99.5 4585.5,99.5C 4585.5,181.833 4585.5,264.167 4585.5,346.5C 4576.17,346.5 4566.83,346.5 4557.5,346.5C 4557.5,372.167 4557.5,397.833 4557.5,423.5C 4560.96,424.482 4564.63,424.815 4568.5,424.5C 4568.5,412.833 4568.5,401.167 4568.5,389.5C 4574.17,389.5 4579.83,389.5 4585.5,389.5C 4585.5,480.833 4585.5,572.167 4585.5,663.5C 4553.83,663.5 4522.17,663.5 4490.5,663.5C 4490.5,571.5 4490.5,479.5 4490.5,387.5C 4503.5,387.5 4516.5,387.5 4529.5,387.5C 4529.5,399.5 4529.5,411.5 4529.5,423.5C 4532.96,424.482 4536.63,424.815 4540.5,424.5C 4540.83,398.328 4540.5,372.328 4539.5,346.5C 4536.17,346.5 4532.83,346.5 4529.5,346.5C 4529.5,357.167 4529.5,367.833 4529.5,378.5C 4516.5,378.5 4503.5,378.5 4490.5,378.5C 4490.5,285.5 4490.5,192.5 4490.5,99.5 Z"/></g>
<g><path style="opacity:1" fill="#fefffe" d="M 4649.5,99.5 C 4649.5,287.5 4649.5,475.5 4649.5,663.5C 4628.5,663.5 4607.5,663.5 4586.5,663.5C 4586.5,572.167 4586.5,480.833 4586.5,389.5C 4592.69,389.823 4598.69,389.49 4604.5,388.5C 4604.5,385.5 4604.5,382.5 4604.5,379.5C 4598.5,379.5 4592.5,379.5 4586.5,379.5C 4586.5,371.833 4586.5,364.167 4586.5,356.5C 4594.35,356.825 4602.02,356.492 4609.5,355.5C 4609.5,352.5 4609.5,349.5 4609.5,346.5C 4601.83,346.5 4594.17,346.5 4586.5,346.5C 4586.5,264.167 4586.5,181.833 4586.5,99.5C 4607.5,99.5 4628.5,99.5 4649.5,99.5 Z"/></g>
<g><path style="opacity:1" fill="#7f328f" d="M 4649.5,99.5 C 4655.17,99.5 4660.83,99.5 4666.5,99.5C 4666.5,287.5 4666.5,475.5 4666.5,663.5C 4660.83,663.5 4655.17,663.5 4649.5,663.5C 4649.5,475.5 4649.5,287.5 4649.5,99.5 Z"/></g>
<g><path style="opacity:1" fill="#fefffe" d="M 4666.5,99.5 C 4687.5,99.5 4708.5,99.5 4729.5,99.5C 4729.5,287.5 4729.5,475.5 4729.5,663.5C 4708.5,663.5 4687.5,663.5 4666.5,663.5C 4666.5,475.5 4666.5,287.5 4666.5,99.5 Z"/></g>
<g><path style="opacity:1" fill="#7f328f" d="M 4729.5,99.5 C 4735.17,99.5 4740.83,99.5 4746.5,99.5C 4746.5,287.5 4746.5,475.5 4746.5,663.5C 4740.83,663.5 4735.17,663.5 4729.5,663.5C 4729.5,475.5 4729.5,287.5 4729.5,99.5 Z"/></g>
<g><path style="opacity:1" fill="#fefffe" d="M 4746.5,99.5 C 4769.5,99.5 4792.5,99.5 4815.5,99.5C 4815.5,287.5 4815.5,475.5 4815.5,663.5C 4792.5,663.5 4769.5,663.5 4746.5,663.5C 4746.5,475.5 4746.5,287.5 4746.5,99.5 Z"/></g>
<g><path style="opacity:1" fill="#7f328f" d="M 4815.5,99.5 C 4821.17,99.5 4826.83,99.5 4832.5,99.5C 4832.5,287.5 4832.5,475.5 4832.5,663.5C 4826.83,663.5 4821.17,663.5 4815.5,663.5C 4815.5,475.5 4815.5,287.5 4815.5,99.5 Z"/></g>
<g><path style="opacity:1" fill="#fefffe" d="M 4832.5,99.5 C 4857.83,99.5 4883.17,99.5 4908.5,99.5C 4908.5,287.5 4908.5,475.5 4908.5,663.5C 4883.17,663.5 4857.83,663.5 4832.5,663.5C 4832.5,475.5 4832.5,287.5 4832.5,99.5 Z"/></g>
<g><path style="opacity:1" fill="#7f328f" d="M 4908.5,99.5 C 4914.17,99.5 4919.83,99.5 4925.5,99.5C 4925.5,287.5 4925.5,475.5 4925.5,663.5C 4919.83,663.5 4914.17,663.5 4908.5,663.5C 4908.5,475.5 4908.5,287.5 4908.5,99.5 Z"/></g>
<g><path style="opacity:1" fill="#fefffe" d="M 4925.5,99.5 C 4942.17,99.5 4958.83,99.5 4975.5,99.5C 4975.5,287.5 4975.5,475.5 4975.5,663.5C 4958.83,663.5 4942.17,663.5 4925.5,663.5C 4925.5,475.5 4925.5,287.5 4925.5,99.5 Z"/></g>
<g><path style="opacity:1" fill="#7f328f" d="M 4975.5,99.5 C 4981.17,99.5 4986.83,99.5 4992.5,99.5C 4992.5,287.5 4992.5,475.5 4992.5,663.5C 4986.83,663.5 4981.17,663.5 4975.5,663.5C 4975.5,475.5 4975.5,287.5 4975.5,99.5 Z"/></g>
<g><path style="opacity:1" fill="#fefffe" d="M 4992.5,99.5 C 5013.83,99.5 5035.17,99.5 5056.5,99.5C 5056.5,287.5 5056.5,475.5 5056.5,663.5C 5035.17,663.5 5013.83,663.5 4992.5,663.5C 4992.5,475.5 4992.5,287.5 4992.5,99.5 Z"/></g>
<g><path style="opacity:1" fill="#7f328f" d="M 5056.5,99.5 C 5062.17,99.5 5067.83,99.5 5073.5,99.5C 5073.5,287.5 5073.5,475.5 5073.5,663.5C 5067.83,663.5 5062.17,663.5 5056.5,663.5C 5056.5,475.5 5056.5,287.5 5056.5,99.5 Z"/></g>
<g><path style="opacity:1" fill="#fefffe" d="M 5073.5,99.5 C 5076.17,99.5 5078.83,99.5 5081.5,99.5C 5081.5,114.833 5081.5,130.167 5081.5,145.5C 5083.17,145.5 5084.83,145.5 5086.5,145.5C 5086.5,130.167 5086.5,114.833 5086.5,99.5C 5113.17,99.5 5139.83,99.5 5166.5,99.5C 5166.5,287.5 5166.5,475.5 5166.5,663.5C 5139.83,663.5 5113.17,663.5 5086.5,663.5C 5086.5,648.167 5086.5,632.833 5086.5,617.5C 5084.83,617.5 5083.17,617.5 5081.5,617.5C 5081.5,632.833 5081.5,648.167 5081.5,663.5C 5078.83,663.5 5076.17,663.5 5073.5,663.5C 5073.5,475.5 5073.5,287.5 5073.5,99.5 Z"/></g>
<g><path style="opacity:1" fill="#777777" d="M 5081.5,99.5 C 5082.5,114.324 5082.83,129.324 5082.5,144.5C 5083.5,144.5 5084.5,144.5 5085.5,144.5C 5085.17,129.324 5085.5,114.324 5086.5,99.5C 5086.5,114.833 5086.5,130.167 5086.5,145.5C 5084.83,145.5 5083.17,145.5 5081.5,145.5C 5081.5,130.167 5081.5,114.833 5081.5,99.5 Z"/></g>
<g><path style="opacity:1" fill="#000000" d="M 5167.5,99.5 C 5172.5,99.5 5177.5,99.5 5182.5,99.5C 5182.5,287.5 5182.5,475.5 5182.5,663.5C 5177.5,663.5 5172.5,663.5 5167.5,663.5C 5167.5,475.5 5167.5,287.5 5167.5,99.5 Z"/></g>
<g><path style="opacity:1" fill="#fefffe" d="M 5183.5,99.5 C 5245.83,99.5 5308.17,99.5 5370.5,99.5C 5370.5,287.5 5370.5,475.5 5370.5,663.5C 5308.17,663.5 5245.83,663.5 5183.5,663.5C 5183.5,475.5 5183.5,287.5 5183.5,99.5 Z"/></g>
<g><path style="opacity:1" fill="#9dff9c" d="M 4479.5,346.5 C 4479.5,372.167 4479.5,397.833 4479.5,423.5C 4482.83,423.5 4486.17,423.5 4489.5,423.5C 4489.5,423.833 4489.5,424.167 4489.5,424.5C 4485.83,424.5 4482.17,424.5 4478.5,424.5C 4478.17,398.328 4478.5,372.328 4479.5,346.5 Z"/></g>
<g><path style="opacity:1" fill="#02fd02" d="M 4479.5,346.5 C 4482.83,346.5 4486.17,346.5 4489.5,346.5C 4489.17,357.346 4489.51,368.013 4490.5,378.5C 4503.5,378.5 4516.5,378.5 4529.5,378.5C 4529.5,367.833 4529.5,357.167 4529.5,346.5C 4532.83,346.5 4536.17,346.5 4539.5,346.5C 4539.5,372.167 4539.5,397.833 4539.5,423.5C 4536.17,423.5 4532.83,423.5 4529.5,423.5C 4529.5,411.5 4529.5,399.5 4529.5,387.5C 4516.5,387.5 4503.5,387.5 4490.5,387.5C 4489.5,399.322 4489.17,411.322 4489.5,423.5C 4486.17,423.5 4482.83,423.5 4479.5,423.5C 4479.5,397.833 4479.5,372.167 4479.5,346.5 Z"/></g>
<g><path style="opacity:1" fill="#004501" d="M 4539.5,346.5 C 4540.5,372.328 4540.83,398.328 4540.5,424.5C 4536.63,424.815 4532.96,424.482 4529.5,423.5C 4532.83,423.5 4536.17,423.5 4539.5,423.5C 4539.5,397.833 4539.5,372.167 4539.5,346.5 Z"/></g>
<g><path style="opacity:1" fill="#00d700" d="M 4585.5,346.5 C 4585.83,346.5 4586.17,346.5 4586.5,346.5C 4577.35,347.494 4568.01,347.827 4558.5,347.5C 4558.5,372.833 4558.5,398.167 4558.5,423.5C 4558.17,423.5 4557.83,423.5 4557.5,423.5C 4557.5,397.833 4557.5,372.167 4557.5,346.5C 4566.83,346.5 4576.17,346.5 4585.5,346.5 Z"/></g>
<g><path style="opacity:1" fill="#08fe06" d="M 4586.5,346.5 C 4594.17,346.5 4601.83,346.5 4609.5,346.5C 4609.5,349.5 4609.5,352.5 4609.5,355.5C 4595.5,355.5 4581.5,355.5 4567.5,355.5C 4567.17,363.684 4567.51,371.684 4568.5,379.5C 4574.5,379.5 4580.5,379.5 4586.5,379.5C 4592.5,379.5 4598.5,379.5 4604.5,379.5C 4604.5,382.5 4604.5,385.5 4604.5,388.5C 4592.17,388.5 4579.83,388.5 4567.5,388.5C 4567.5,400.167 4567.5,411.833 4567.5,423.5C 4564.5,423.5 4561.5,423.5 4558.5,423.5C 4558.5,398.167 4558.5,372.833 4558.5,347.5C 4568.01,347.827 4577.35,347.494 4586.5,346.5 Z"/></g>
<g><path style="opacity:1" fill="#34882d" d="M 4609.5,355.5 C 4602.02,356.492 4594.35,356.825 4586.5,356.5C 4580.5,356.5 4574.5,356.5 4568.5,356.5C 4568.5,364.167 4568.5,371.833 4568.5,379.5C 4567.51,371.684 4567.17,363.684 4567.5,355.5C 4581.5,355.5 4595.5,355.5 4609.5,355.5 Z"/></g>
<g><path style="opacity:1" fill="#070707" d="M 4586.5,356.5 C 4586.5,364.167 4586.5,371.833 4586.5,379.5C 4580.5,379.5 4574.5,379.5 4568.5,379.5C 4568.5,371.833 4568.5,364.167 4568.5,356.5C 4574.5,356.5 4580.5,356.5 4586.5,356.5 Z"/></g>
<g><path style="opacity:1" fill="#9c9c9c" d="M 4490.5,387.5 C 4490.5,479.5 4490.5,571.5 4490.5,663.5C 4483.83,664.833 4477.17,664.833 4470.5,663.5C 4476.83,663.5 4483.17,663.5 4489.5,663.5C 4489.5,583.833 4489.5,504.167 4489.5,424.5C 4489.5,424.167 4489.5,423.833 4489.5,423.5C 4489.17,411.322 4489.5,399.322 4490.5,387.5 Z"/></g>
<g><path style="opacity:1" fill="#287e22" d="M 4604.5,388.5 C 4598.69,389.49 4592.69,389.823 4586.5,389.5C 4586.17,389.5 4585.83,389.5 4585.5,389.5C 4579.83,389.5 4574.17,389.5 4568.5,389.5C 4568.5,401.167 4568.5,412.833 4568.5,424.5C 4564.63,424.815 4560.96,424.482 4557.5,423.5C 4557.83,423.5 4558.17,423.5 4558.5,423.5C 4561.5,423.5 4564.5,423.5 4567.5,423.5C 4567.5,411.833 4567.5,400.167 4567.5,388.5C 4579.83,388.5 4592.17,388.5 4604.5,388.5 Z"/></g>
<g><path style="opacity:1" fill="#777777" d="M 1389.5,663.5 C 1388.5,648.676 1388.17,633.676 1388.5,618.5C 1387.5,618.5 1386.5,618.5 1385.5,618.5C 1385.83,633.676 1385.5,648.676 1384.5,663.5C 1384.5,648.167 1384.5,632.833 1384.5,617.5C 1386.17,617.5 1387.83,617.5 1389.5,617.5C 1389.5,632.833 1389.5,648.167 1389.5,663.5 Z"/></g>
<g><path style="opacity:1" fill="#777777" d="M 2005.5,663.5 C 2004.5,648.676 2004.17,633.676 2004.5,618.5C 2003.5,618.5 2002.5,618.5 2001.5,618.5C 2001.83,633.676 2001.5,648.676 2000.5,663.5C 2000.5,648.167 2000.5,632.833 2000.5,617.5C 2002.17,617.5 2003.83,617.5 2005.5,617.5C 2005.5,632.833 2005.5,648.167 2005.5,663.5 Z"/></g>
<g><path style="opacity:1" fill="#777777" d="M 2621.5,663.5 C 2620.5,648.676 2620.17,633.676 2620.5,618.5C 2619.5,618.5 2618.5,618.5 2617.5,618.5C 2617.83,633.676 2617.5,648.676 2616.5,663.5C 2616.5,648.167 2616.5,632.833 2616.5,617.5C 2618.17,617.5 2619.83,617.5 2621.5,617.5C 2621.5,632.833 2621.5,648.167 2621.5,663.5 Z"/></g>
<g><path style="opacity:1" fill="#777777" d="M 3238.5,663.5 C 3237.5,648.676 3237.17,633.676 3237.5,618.5C 3236.5,618.5 3235.5,618.5 3234.5,618.5C 3234.83,633.676 3234.5,648.676 3233.5,663.5C 3233.5,648.167 3233.5,632.833 3233.5,617.5C 3235.17,617.5 3236.83,617.5 3238.5,617.5C 3238.5,632.833 3238.5,648.167 3238.5,663.5 Z"/></g>
<g><path style="opacity:1" fill="#777777" d="M 3854.5,663.5 C 3853.5,648.676 3853.17,633.676 3853.5,618.5C 3852.5,618.5 3851.5,618.5 3850.5,618.5C 3850.83,633.676 3850.5,648.676 3849.5,663.5C 3849.5,648.167 3849.5,632.833 3849.5,617.5C 3851.17,617.5 3852.83,617.5 3854.5,617.5C 3854.5,632.833 3854.5,648.167 3854.5,663.5 Z"/></g>
<g><path style="opacity:1" fill="#777777" d="M 4470.5,663.5 C 4469.5,648.676 4469.17,633.676 4469.5,618.5C 4468.5,618.5 4467.5,618.5 4466.5,618.5C 4466.83,633.676 4466.5,648.676 4465.5,663.5C 4465.5,648.167 4465.5,632.833 4465.5,617.5C 4467.17,617.5 4468.83,617.5 4470.5,617.5C 4470.5,632.833 4470.5,648.167 4470.5,663.5 Z"/></g>
<g><path style="opacity:1" fill="#777777" d="M 5086.5,663.5 C 5085.5,648.676 5085.17,633.676 5085.5,618.5C 5084.5,618.5 5083.5,618.5 5082.5,618.5C 5082.83,633.676 5082.5,648.676 5081.5,663.5C 5081.5,648.167 5081.5,632.833 5081.5,617.5C 5083.17,617.5 5084.83,617.5 5086.5,617.5C 5086.5,632.833 5086.5,648.167 5086.5,663.5 Z"/></g>
<g><path style="opacity:1" fill="#767676" d="M 4490.5,94.5 C 3250.33,95.5 2010,95.8333 769.5,95.5C 769.5,286.167 769.5,476.833 769.5,667.5C 2010,667.167 3250.33,667.5 4490.5,668.5C 3249.83,668.5 2009.17,668.5 768.5,668.5C 768.5,477.167 768.5,285.833 768.5,94.5C 2009.17,94.5 3249.83,94.5 4490.5,94.5 Z"/></g>
<g><path style="opacity:1" fill="#ff130b" d="M 4855.5,695.5 C 4865.74,693.844 4874.24,696.844 4881,704.5C 4883.01,707.536 4883.84,710.869 4883.5,714.5C 4880.48,714.704 4877.48,715.037 4874.5,715.5C 4871.92,704.377 4865.26,700.877 4854.5,705C 4846.21,711.966 4843.05,720.799 4845,731.5C 4858.07,719.094 4870.41,719.76 4882,733.5C 4889.25,749.012 4886.08,761.845 4872.5,772C 4854.21,777.604 4842.04,771.438 4836,753.5C 4834.69,743.862 4834.35,734.196 4835,724.5C 4836.01,710.418 4842.84,700.752 4855.5,695.5 Z"/></g>
<g><path style="opacity:1" fill="#ff130b" d="M 4943.5,695.5 C 4962.63,694.456 4973.46,703.456 4976,722.5C 4977.66,737.21 4975.33,751.21 4969,764.5C 4960.97,773.097 4951.14,775.93 4939.5,773C 4931.84,769.175 4927.5,763.008 4926.5,754.5C 4929.83,754.5 4933.17,754.5 4936.5,754.5C 4937.97,764.249 4943.63,768.082 4953.5,766C 4958.73,763.768 4962.23,759.935 4964,754.5C 4965.85,748.948 4966.51,743.281 4966,737.5C 4957.36,747.186 4947.19,749.02 4935.5,743C 4925.62,734.12 4922.79,723.286 4927,710.5C 4930.19,702.843 4935.69,697.843 4943.5,695.5 Z"/></g>
<g><path style="opacity:1" fill="#ff1009" d="M 3968.5,764.5 C 3967.96,764.56 3967.62,764.893 3967.5,765.5C 3979.82,766.499 3992.15,766.832 4004.5,766.5C 4004.5,769.167 4004.5,771.833 4004.5,774.5C 3987.47,775.152 3970.8,774.485 3954.5,772.5C 3955.31,767.22 3957.47,762.554 3961,758.5C 3970.67,749.5 3980.33,740.5 3990,731.5C 3996.15,724.514 3996.81,717.18 3992,709.5C 3983.35,703.559 3975.35,704.226 3968,711.5C 3966.09,714.206 3965.26,717.206 3965.5,720.5C 3962.5,720.5 3959.5,720.5 3956.5,720.5C 3956.25,708.575 3961.92,701.075 3973.5,698C 3983.39,696.181 3992.22,698.348 4000,704.5C 4006.96,713.549 4007.29,722.882 4001,732.5C 3990.33,743.342 3979.49,754.008 3968.5,764.5 Z"/></g>
<g><path style="opacity:1" fill="#ff0b05" d="M 1874.5,775.5 C 1874.67,755.497 1874.5,735.497 1874,715.5C 1873.28,716.044 1872.78,716.711 1872.5,717.5C 1867.49,721.009 1862.15,724.009 1856.5,726.5C 1855.35,723.554 1855.18,720.554 1856,717.5C 1864.69,713.145 1871.86,706.979 1877.5,699C 1879.47,698.505 1881.47,698.338 1883.5,698.5C 1883.5,724.5 1883.5,750.5 1883.5,776.5C 1880.29,776.81 1877.29,776.477 1874.5,775.5 Z"/></g>
<g><path style="opacity:1" fill="#ff130b" d="M 1956.5,698.5 C 1975.63,697.456 1986.46,706.456 1989,725.5C 1989.98,737.011 1988.98,748.344 1986,759.5C 1978.21,776.102 1965.71,780.935 1948.5,774C 1942.72,769.97 1940.39,764.636 1941.5,758C 1944.15,757.503 1946.81,757.336 1949.5,757.5C 1950.99,767.257 1956.65,771.091 1966.5,769C 1971.73,766.768 1975.23,762.935 1977,757.5C 1978.85,751.948 1979.51,746.281 1979,740.5C 1970.36,750.186 1960.19,752.02 1948.5,746C 1938.62,737.12 1935.79,726.286 1940,713.5C 1943.19,705.843 1948.69,700.843 1956.5,698.5 Z"/></g>
<g><path style="opacity:1" fill="#ff1008" d="M 3095.5,767.5 C 3107.66,768.495 3119.99,768.829 3132.5,768.5C 3132.5,771.167 3132.5,773.833 3132.5,776.5C 3115.83,776.5 3099.17,776.5 3082.5,776.5C 3082.5,775.167 3082.5,773.833 3082.5,772.5C 3082.76,769.984 3083.59,767.65 3085,765.5C 3087.33,762.5 3089.67,759.5 3092,756.5C 3100.63,749.539 3108.96,742.205 3117,734.5C 3121.92,729.062 3123.59,722.729 3122,715.5C 3117.52,708.114 3111.02,705.614 3102.5,708C 3096.42,710.913 3093.42,715.746 3093.5,722.5C 3090.17,722.5 3086.83,722.5 3083.5,722.5C 3086.23,703.961 3096.9,696.461 3115.5,700C 3129.05,704.247 3134.55,713.414 3132,727.5C 3129,734.169 3124.83,740.002 3119.5,745C 3114.12,750.044 3108.46,754.711 3102.5,759C 3099.58,761.416 3097.24,764.25 3095.5,767.5 Z"/></g>
<g><path style="opacity:1" fill="#ff130b" d="M 3191.5,699.5 C 3201.99,697.988 3210.82,700.988 3218,708.5C 3221.33,715.5 3221.33,722.5 3218,729.5C 3215.77,731.7 3213.27,733.533 3210.5,735C 3224.78,742.862 3227.95,754.028 3220,768.5C 3216.91,772.928 3212.74,775.761 3207.5,777C 3184.22,781.319 3173.06,771.819 3174,748.5C 3175.83,741.333 3180.33,736.833 3187.5,735C 3178.31,730.783 3174.81,723.616 3177,713.5C 3179.77,706.557 3184.61,701.89 3191.5,699.5 Z"/></g>
<g><path style="opacity:1" fill="#ff140c" d="M 3865.5,698.5 C 3882.17,698.5 3898.83,698.5 3915.5,698.5C 3915.66,701.187 3915.5,703.854 3915,706.5C 3898.34,726.49 3888.84,749.49 3886.5,775.5C 3883.17,775.5 3879.83,775.5 3876.5,775.5C 3878.16,750.012 3887.16,727.512 3903.5,708C 3890.84,707.5 3878.17,707.333 3865.5,707.5C 3865.5,704.5 3865.5,701.5 3865.5,698.5 Z"/></g>
<g><path style="opacity:1" fill="#fffbfb" d="M 4946.5,703.5 C 4955.69,702.176 4961.86,705.843 4965,714.5C 4966.53,722.061 4965.03,728.894 4960.5,735C 4949.52,741.245 4941.35,738.745 4936,727.5C 4933.3,716.583 4936.8,708.583 4946.5,703.5 Z"/></g>
<g><path style="opacity:1" fill="#fffbfb" d="M 1959.5,706.5 C 1968.69,705.176 1974.86,708.843 1978,717.5C 1979.53,725.061 1978.03,731.894 1973.5,738C 1962.52,744.245 1954.35,741.745 1949,730.5C 1946.3,719.583 1949.8,711.583 1959.5,706.5 Z"/></g>
<g><path style="opacity:1" fill="#fffafa" d="M 3193.5,707.5 C 3200.33,706.051 3205.83,708.051 3210,713.5C 3212.68,726.154 3207.52,731.987 3194.5,731C 3187.03,727.88 3184.53,722.38 3187,714.5C 3188.69,711.642 3190.86,709.309 3193.5,707.5 Z"/></g>
<g><path style="opacity:1" fill="#ffbebd" d="M 1874.5,775.5 C 1873.83,756.167 1873.17,736.833 1872.5,717.5C 1872.78,716.711 1873.28,716.044 1874,715.5C 1874.5,735.497 1874.67,755.497 1874.5,775.5 Z"/></g>
<g><path style="opacity:1" fill="#fffbfb" d="M 4855.5,731.5 C 4873.1,731.639 4879.27,740.306 4874,757.5C 4868.51,767.054 4861.01,768.887 4851.5,763C 4842.35,750.924 4843.69,740.424 4855.5,731.5 Z"/></g>
<g><path style="opacity:1" fill="#fffbfb" d="M 3193.5,739.5 C 3210.32,738.498 3216.82,746.164 3213,762.5C 3206.79,770.829 3198.95,772.662 3189.5,768C 3183.94,762.636 3182.11,756.136 3184,748.5C 3186.41,744.592 3189.57,741.592 3193.5,739.5 Z"/></g>
<g><path style="opacity:1" fill="#ff2013" d="M 4900.5,762.5 C 4904.17,762.5 4907.83,762.5 4911.5,762.5C 4911.5,766.167 4911.5,769.833 4911.5,773.5C 4907.83,773.5 4904.17,773.5 4900.5,773.5C 4900.5,769.833 4900.5,766.167 4900.5,762.5 Z"/></g>
<g><path style="opacity:1" fill="#ff2013" d="M 3930.5,764.5 C 3934.17,764.5 3937.83,764.5 3941.5,764.5C 3941.5,768.167 3941.5,771.833 3941.5,775.5C 3937.83,775.5 3934.17,775.5 3930.5,775.5C 3930.5,771.833 3930.5,768.167 3930.5,764.5 Z"/></g>
<g><path style="opacity:1" fill="#ff2013" d="M 1913.5,765.5 C 1917.17,765.5 1920.83,765.5 1924.5,765.5C 1924.5,769.167 1924.5,772.833 1924.5,776.5C 1920.83,776.5 1917.17,776.5 1913.5,776.5C 1913.5,772.833 1913.5,769.167 1913.5,765.5 Z"/></g>
<g><path style="opacity:1" fill="#ff2013" d="M 3148.5,766.5 C 3152.17,766.5 3155.83,766.5 3159.5,766.5C 3159.5,770.167 3159.5,773.833 3159.5,777.5C 3155.83,777.5 3152.17,777.5 3148.5,777.5C 3148.5,773.833 3148.5,770.167 3148.5,766.5 Z"/></g>
<g><path style="opacity:1" fill="#ff6c6a" d="M 3095.5,767.5 C 3108.17,767.5 3120.83,767.5 3133.5,767.5C 3133.81,770.713 3133.48,773.713 3132.5,776.5C 3132.5,773.833 3132.5,771.167 3132.5,768.5C 3119.99,768.829 3107.66,768.495 3095.5,767.5 Z"/></g>
<g><path style="opacity:1" fill="#ff7776" d="M 3968.5,764.5 C 3980.66,765.495 3992.99,765.829 4005.5,765.5C 4005.5,768.833 4005.5,772.167 4005.5,775.5C 3988.17,775.5 3970.83,775.5 3953.5,775.5C 3953.26,774.209 3953.6,773.209 3954.5,772.5C 3970.8,774.485 3987.47,775.152 4004.5,774.5C 4004.5,771.833 4004.5,769.167 4004.5,766.5C 3992.15,766.832 3979.82,766.499 3967.5,765.5C 3967.62,764.893 3967.96,764.56 3968.5,764.5 Z"/></g>
<g><path style="opacity:1" fill="#ff7d7d" d="M 3082.5,772.5 C 3082.5,773.833 3082.5,775.167 3082.5,776.5C 3099.17,776.5 3115.83,776.5 3132.5,776.5C 3115.67,777.497 3098.67,777.83 3081.5,777.5C 3081.22,775.585 3081.55,773.919 3082.5,772.5 Z"/></g>
</svg>
