<?xml version="1.0" encoding="UTF-8"?>
<!DOCTYPE svg PUBLIC "-//W3C//DTD SVG 1.1//EN" "http://www.w3.org/Graphics/SVG/1.1/DTD/svg11.dtd">
<svg xmlns="http://www.w3.org/2000/svg" version="1.1" width="5424px" height="800px" style="shape-rendering:geometricPrecision; text-rendering:geometricPrecision; image-rendering:optimizeQuality; fill-rule:evenodd; clip-rule:evenodd" xmlns:xlink="http://www.w3.org/1999/xlink">
<g><path style="opacity:1" fill="#fefefe" d="M -0.5,-0.5 C 1807.5,-0.5 3615.5,-0.5 5423.5,-0.5C 5423.5,266.167 5423.5,532.833 5423.5,799.5C 3615.5,799.5 1807.5,799.5 -0.5,799.5C -0.5,532.833 -0.5,266.167 -0.5,-0.5 Z"/></g>
<g><path style="opacity:1" fill="#0e0e0e" d="M 814.5,1.5 C 816.199,1.33982 817.866,1.50649 819.5,2C 804.835,27.3127 804.835,52.646 819.5,78C 816.975,78.8959 814.808,78.3959 813,76.5C 795.84,51.0492 796.34,26.0492 814.5,1.5 Z"/></g>
<g><path style="opacity:1" fill="#0f0f0f" d="M 940.5,1.5 C 942.199,1.33982 943.866,1.50649 945.5,2C 963.99,27.0083 964.156,52.175 946,77.5C 944.186,78.7596 942.353,78.7596 940.5,77.5C 955.139,52.1203 955.139,26.787 940.5,1.5 Z"/></g>
<g><path style="opacity:1" fill="#0d0d0d" d="M 840.5,17.5 C 852.553,15.3459 860.219,20.0126 863.5,31.5C 861.143,31.6633 858.81,31.4966 856.5,31C 853.176,23.8894 847.842,21.8894 840.5,25C 839,26.5 837.5,28 836,29.5C 834.473,35.4149 834.139,41.4149 835,47.5C 838.896,56.8763 845.229,58.8763 854,53.5C 855.411,51.3496 856.245,49.0163 856.5,46.5C 858.833,46.5 861.167,46.5 863.5,46.5C 863.006,54.8316 858.673,59.9982 850.5,62C 837.008,63.8322 829.175,57.9989 827,44.5C 825.168,32.1639 829.668,23.1639 840.5,17.5 Z"/></g>
<g><path style="opacity:1" fill="#0f0f0f" d="M 884.5,17.5 C 892.045,15.8639 897.878,18.1973 902,24.5C 907.946,17.1361 915.112,15.6361 923.5,20C 925.617,21.7309 927.117,23.8976 928,26.5C 928.5,38.1619 928.667,49.8286 928.5,61.5C 926.167,61.5 923.833,61.5 921.5,61.5C 921.667,50.8281 921.5,40.1615 921,29.5C 917.609,22.956 912.776,21.7893 906.5,26C 904.959,27.5793 903.792,29.4127 903,31.5C 902.5,41.4944 902.334,51.4944 902.5,61.5C 900.167,61.5 897.833,61.5 895.5,61.5C 895.667,50.495 895.5,39.495 895,28.5C 891.987,23.4648 887.82,22.2981 882.5,25C 880.622,26.5429 879.122,28.3762 878,30.5C 877.5,40.828 877.334,51.1613 877.5,61.5C 874.833,61.5 872.167,61.5 869.5,61.5C 869.5,47.1667 869.5,32.8333 869.5,18.5C 871.833,18.5 874.167,18.5 876.5,18.5C 876.34,20.1992 876.506,21.8659 877,23.5C 879.478,21.3606 881.978,19.3606 884.5,17.5 Z"/></g>
<g><path style="opacity:1" fill="#2d2d2d" d="M 765.5,20.5 C 776.701,18.846 783.534,23.5126 786,34.5C 786.822,42.5548 786.488,50.5548 785,58.5C 780.443,69.02 772.943,71.8533 762.5,67C 758.87,63.2382 756.703,58.7382 756,53.5C 755.333,46.8333 755.333,40.1667 756,33.5C 757.723,28.0298 760.89,23.6965 765.5,20.5 Z"/></g>
<g><path style="opacity:1" fill="#2a2a2a" d="M 1268.5,20.5 C 1269.83,20.5 1271.17,20.5 1272.5,20.5C 1272.5,36.5 1272.5,52.5 1272.5,68.5C 1270.5,68.5 1268.5,68.5 1266.5,68.5C 1266.67,56.1622 1266.5,43.8288 1266,31.5C 1262.48,34.2086 1258.65,36.2086 1254.5,37.5C 1254.34,35.8008 1254.51,34.1341 1255,32.5C 1260.69,29.7542 1265.19,25.7542 1268.5,20.5 Z"/></g>
<g><path style="opacity:1" fill="#2d2d2d" d="M 1297.5,20.5 C 1308.7,18.846 1315.53,23.5126 1318,34.5C 1318.82,42.5548 1318.49,50.5548 1317,58.5C 1312.44,69.02 1304.94,71.8533 1294.5,67C 1290.87,63.2382 1288.7,58.7382 1288,53.5C 1287.33,46.8333 1287.33,40.1667 1288,33.5C 1289.72,28.0298 1292.89,23.6965 1297.5,20.5 Z"/></g>
<g><path style="opacity:1" fill="#2d2d2d" d="M 1334.5,20.5 C 1345.7,18.846 1352.53,23.5126 1355,34.5C 1355.82,42.5548 1355.49,50.5548 1354,58.5C 1349.44,69.02 1341.94,71.8533 1331.5,67C 1327.87,63.2382 1325.7,58.7382 1325,53.5C 1324.33,46.8333 1324.33,40.1667 1325,33.5C 1326.72,28.0298 1329.89,23.6965 1334.5,20.5 Z"/></g>
<g><path style="opacity:1" fill="#2c2c2c" d="M 1790.5,61.5 C 1789.96,61.56 1789.62,61.8933 1789.5,62.5C 1797.14,63.4975 1804.8,63.8308 1812.5,63.5C 1812.5,65.1667 1812.5,66.8333 1812.5,68.5C 1802.17,68.5 1791.83,68.5 1781.5,68.5C 1781.46,65.5755 1782.29,62.9088 1784,60.5C 1790.36,53.8014 1797.03,47.4681 1804,41.5C 1810.16,32.858 1808.16,27.5247 1798,25.5C 1792.43,25.8973 1789.27,28.8973 1788.5,34.5C 1786.5,34.5 1784.5,34.5 1782.5,34.5C 1784.8,23.0009 1791.8,18.5009 1803.5,21C 1814.46,26.7372 1816.29,34.5705 1809,44.5C 1802.64,50.0327 1796.47,55.6993 1790.5,61.5 Z"/></g>
<g><path style="opacity:1" fill="#2d2d2d" d="M 1829.5,20.5 C 1840.7,18.846 1847.53,23.5126 1850,34.5C 1850.82,42.5548 1850.49,50.5548 1849,58.5C 1844.44,69.02 1836.94,71.8533 1826.5,67C 1822.87,63.2382 1820.7,58.7382 1820,53.5C 1819.33,46.8333 1819.33,40.1667 1820,33.5C 1821.72,28.0298 1824.89,23.6965 1829.5,20.5 Z"/></g>
<g><path style="opacity:1" fill="#2d2d2d" d="M 1866.5,20.5 C 1877.7,18.846 1884.53,23.5126 1887,34.5C 1887.82,42.5548 1887.49,50.5548 1886,58.5C 1881.44,69.02 1873.94,71.8533 1863.5,67C 1859.87,63.2382 1857.7,58.7382 1857,53.5C 1856.33,46.8333 1856.33,40.1667 1857,33.5C 1858.72,28.0298 1861.89,23.6965 1866.5,20.5 Z"/></g>
<g><path style="opacity:1" fill="#2f2f2f" d="M 2324.5,20.5 C 2337.17,18.6817 2343.34,24.015 2343,36.5C 2341.69,38.6414 2340.19,40.6414 2338.5,42.5C 2346.68,48.9434 2347.68,56.4434 2341.5,65C 2331.72,71.9901 2323.22,70.8235 2316,61.5C 2315.19,59.5643 2314.69,57.5643 2314.5,55.5C 2318.75,54.7304 2321.25,56.3971 2322,60.5C 2328.46,66.2914 2334.12,65.6247 2339,58.5C 2340.49,48.8216 2336.32,44.4882 2326.5,45.5C 2326.5,43.8333 2326.5,42.1667 2326.5,40.5C 2334.64,41.0463 2338.14,37.3797 2337,29.5C 2330.26,23.448 2324.76,24.448 2320.5,32.5C 2316.39,34.2298 2314.89,32.8965 2316,28.5C 2318.07,24.9231 2320.91,22.2565 2324.5,20.5 Z"/></g>
<g><path style="opacity:1" fill="#2d2d2d" d="M 2361.5,20.5 C 2372.7,18.846 2379.53,23.5126 2382,34.5C 2382.82,42.5548 2382.49,50.5548 2381,58.5C 2376.44,69.02 2368.94,71.8533 2358.5,67C 2354.87,63.2382 2352.7,58.7382 2352,53.5C 2351.33,46.8333 2351.33,40.1667 2352,33.5C 2353.72,28.0298 2356.89,23.6965 2361.5,20.5 Z"/></g>
<g><path style="opacity:1" fill="#2d2d2d" d="M 2398.5,20.5 C 2409.7,18.846 2416.53,23.5126 2419,34.5C 2419.82,42.5548 2419.49,50.5548 2418,58.5C 2413.44,69.02 2405.94,71.8533 2395.5,67C 2391.87,63.2382 2389.7,58.7382 2389,53.5C 2388.33,46.8333 2388.33,40.1667 2389,33.5C 2390.72,28.0298 2393.89,23.6965 2398.5,20.5 Z"/></g>
<g><path style="opacity:1" fill="#2d2d2d" d="M 2893.5,20.5 C 2904.7,18.846 2911.53,23.5126 2914,34.5C 2914.82,42.5548 2914.49,50.5548 2913,58.5C 2908.44,69.02 2900.94,71.8533 2890.5,67C 2886.87,63.2382 2884.7,58.7382 2884,53.5C 2883.33,46.8333 2883.33,40.1667 2884,33.5C 2885.72,28.0298 2888.89,23.6965 2893.5,20.5 Z"/></g>
<g><path style="opacity:1" fill="#2d2d2d" d="M 2930.5,20.5 C 2941.7,18.846 2948.53,23.5126 2951,34.5C 2951.82,42.5548 2951.49,50.5548 2950,58.5C 2945.44,69.02 2937.94,71.8533 2927.5,67C 2923.87,63.2382 2921.7,58.7382 2921,53.5C 2920.33,46.8333 2920.33,40.1667 2921,33.5C 2922.72,28.0298 2925.89,23.6965 2930.5,20.5 Z"/></g>
<g><path style="opacity:1" fill="#2d2d2d" d="M 3425.5,20.5 C 3436.7,18.846 3443.53,23.5126 3446,34.5C 3446.82,42.5548 3446.49,50.5548 3445,58.5C 3440.44,69.02 3432.94,71.8533 3422.5,67C 3418.87,63.2382 3416.7,58.7382 3416,53.5C 3415.33,46.8333 3415.33,40.1667 3416,33.5C 3417.72,28.0298 3420.89,23.6965 3425.5,20.5 Z"/></g>
<g><path style="opacity:1" fill="#2d2d2d" d="M 3462.5,20.5 C 3473.7,18.846 3480.53,23.5126 3483,34.5C 3483.82,42.5548 3483.49,50.5548 3482,58.5C 3477.44,69.02 3469.94,71.8533 3459.5,67C 3455.87,63.2382 3453.7,58.7382 3453,53.5C 3452.33,46.8333 3452.33,40.1667 3453,33.5C 3454.72,28.0298 3457.89,23.6965 3462.5,20.5 Z"/></g>
<g><path style="opacity:1" fill="#2c2c2c" d="M 3920.5,20.5 C 3931.03,18.2478 3937.36,22.2478 3939.5,32.5C 3937.5,32.5 3935.5,32.5 3933.5,32.5C 3933.53,30.4176 3932.86,28.5843 3931.5,27C 3923.92,23.4257 3918.75,25.5924 3916,33.5C 3914.79,36.7675 3914.45,40.1008 3915,43.5C 3920.53,37.043 3927.03,35.8764 3934.5,40C 3942.13,48.3211 3942.47,56.9878 3935.5,66C 3923.46,72.2284 3914.96,69.0618 3910,56.5C 3909.33,49.1667 3909.33,41.8333 3910,34.5C 3911.84,28.4294 3915.34,23.7627 3920.5,20.5 Z"/></g>
<g><path style="opacity:1" fill="#2d2d2d" d="M 3956.5,20.5 C 3967.7,18.846 3974.53,23.5126 3977,34.5C 3977.82,42.5548 3977.49,50.5548 3976,58.5C 3971.44,69.02 3963.94,71.8533 3953.5,67C 3949.87,63.2382 3947.7,58.7382 3947,53.5C 3946.33,46.8333 3946.33,40.1667 3947,33.5C 3948.72,28.0298 3951.89,23.6965 3956.5,20.5 Z"/></g>
<g><path style="opacity:1" fill="#2d2d2d" d="M 3993.5,20.5 C 4004.7,18.846 4011.53,23.5126 4014,34.5C 4014.82,42.5548 4014.49,50.5548 4013,58.5C 4008.44,69.02 4000.94,71.8533 3990.5,67C 3986.87,63.2382 3984.7,58.7382 3984,53.5C 3983.33,46.8333 3983.33,40.1667 3984,33.5C 3985.72,28.0298 3988.89,23.6965 3993.5,20.5 Z"/></g>
<g><path style="opacity:1" fill="#2d2d2d" d="M 4488.5,20.5 C 4499.7,18.846 4506.53,23.5126 4509,34.5C 4509.82,42.5548 4509.49,50.5548 4508,58.5C 4503.44,69.02 4495.94,71.8533 4485.5,67C 4481.87,63.2382 4479.7,58.7382 4479,53.5C 4478.33,46.8333 4478.33,40.1667 4479,33.5C 4480.72,28.0298 4483.89,23.6965 4488.5,20.5 Z"/></g>
<g><path style="opacity:1" fill="#2d2d2d" d="M 4525.5,20.5 C 4536.7,18.846 4543.53,23.5126 4546,34.5C 4546.82,42.5548 4546.49,50.5548 4545,58.5C 4540.44,69.02 4532.94,71.8533 4522.5,67C 4518.87,63.2382 4516.7,58.7382 4516,53.5C 4515.33,46.8333 4515.33,40.1667 4516,33.5C 4517.72,28.0298 4520.89,23.6965 4525.5,20.5 Z"/></g>
<g><path style="opacity:1" fill="#2d2d2d" d="M 4983.5,20.5 C 4991.61,19.0486 4997.78,21.7153 5002,28.5C 5003.77,34.6195 5001.94,39.2862 4996.5,42.5C 5003.88,45.9275 5006.38,51.5942 5004,59.5C 4998.9,68.4259 4991.4,71.2593 4981.5,68C 4974.72,63.6657 4972.22,57.499 4974,49.5C 4975.64,46.6894 4977.81,44.356 4980.5,42.5C 4973.05,33.8469 4974.05,26.5135 4983.5,20.5 Z"/></g>
<g><path style="opacity:1" fill="#2d2d2d" d="M 5020.5,20.5 C 5031.7,18.846 5038.53,23.5126 5041,34.5C 5041.82,42.5548 5041.49,50.5548 5040,58.5C 5035.44,69.02 5027.94,71.8533 5017.5,67C 5013.87,63.2382 5011.7,58.7382 5011,53.5C 5010.33,46.8333 5010.33,40.1667 5011,33.5C 5012.72,28.0298 5015.89,23.6965 5020.5,20.5 Z"/></g>
<g><path style="opacity:1" fill="#2d2d2d" d="M 5057.5,20.5 C 5068.7,18.846 5075.53,23.5126 5078,34.5C 5078.82,42.5548 5078.49,50.5548 5077,58.5C 5072.44,69.02 5064.94,71.8533 5054.5,67C 5050.87,63.2382 5048.7,58.7382 5048,53.5C 5047.33,46.8333 5047.33,40.1667 5048,33.5C 5049.72,28.0298 5052.89,23.6965 5057.5,20.5 Z"/></g>
<g><path style="opacity:1" fill="#2f2f2f" d="M 2865.5,68.5 C 2865.5,64.5 2865.5,60.5 2865.5,56.5C 2858.5,56.5 2851.5,56.5 2844.5,56.5C 2844.34,54.4727 2844.5,52.4727 2845,50.5C 2852.03,40.9721 2858.86,31.3054 2865.5,21.5C 2867.4,20.5344 2869.4,20.2011 2871.5,20.5C 2871.5,30.8333 2871.5,41.1667 2871.5,51.5C 2873.5,51.5 2875.5,51.5 2877.5,51.5C 2877.5,53.5 2877.5,55.5 2877.5,57.5C 2875.5,57.5 2873.5,57.5 2871.5,57.5C 2871.5,61.1667 2871.5,64.8333 2871.5,68.5C 2869.5,68.5 2867.5,68.5 2865.5,68.5 Z"/></g>
<g><path style="opacity:1" fill="#2d2d2d" d="M 3383.5,21.5 C 3391.5,21.5 3399.5,21.5 3407.5,21.5C 3407.5,23.1667 3407.5,24.8333 3407.5,26.5C 3401.13,26.1703 3394.8,26.5037 3388.5,27.5C 3387.56,31.3743 3386.56,35.2076 3385.5,39C 3398.59,33.5433 3406.92,37.71 3410.5,51.5C 3408.88,64.6306 3401.54,70.464 3388.5,69C 3382.28,66.6195 3378.95,62.1195 3378.5,55.5C 3380.5,55.5 3382.5,55.5 3384.5,55.5C 3387.25,64.8762 3392.75,66.8762 3401,61.5C 3403.85,56.3201 3404.18,50.9868 3402,45.5C 3396.24,40.1341 3390.74,40.3008 3385.5,46C 3383.53,46.4955 3381.53,46.6621 3379.5,46.5C 3380.67,38.1388 3382.01,29.8054 3383.5,21.5 Z"/></g>
<g><path style="opacity:1" fill="#2c2c2c" d="M 4441.5,21.5 C 4451.83,21.5 4462.17,21.5 4472.5,21.5C 4471.03,27.4299 4468.2,32.7632 4464,37.5C 4458.31,47.0824 4455.14,57.4157 4454.5,68.5C 4452.5,68.5 4450.5,68.5 4448.5,68.5C 4449.51,53.1244 4454.85,39.4578 4464.5,27.5C 4456.86,26.5025 4449.2,26.1692 4441.5,26.5C 4441.5,24.8333 4441.5,23.1667 4441.5,21.5 Z"/></g>
<g><path style="opacity:1" fill="#fafafa" d="M 767.5,25.5 C 774.271,24.7587 778.437,27.7587 780,34.5C 780.856,42.2318 780.523,49.8984 779,57.5C 777.18,63.1614 773.347,65.3281 767.5,64C 764.246,61.6581 762.412,58.4915 762,54.5C 761.333,47.5 761.333,40.5 762,33.5C 763.117,30.2409 764.95,27.5743 767.5,25.5 Z"/></g>
<g><path style="opacity:1" fill="#fafafa" d="M 1299.5,25.5 C 1306.27,24.7587 1310.44,27.7587 1312,34.5C 1312.86,42.2318 1312.52,49.8984 1311,57.5C 1309.18,63.1614 1305.35,65.3281 1299.5,64C 1296.25,61.6581 1294.41,58.4915 1294,54.5C 1293.33,47.5 1293.33,40.5 1294,33.5C 1295.12,30.2409 1296.95,27.5743 1299.5,25.5 Z"/></g>
<g><path style="opacity:1" fill="#fafafa" d="M 1336.5,25.5 C 1343.27,24.7587 1347.44,27.7587 1349,34.5C 1349.86,42.2318 1349.52,49.8984 1348,57.5C 1346.18,63.1614 1342.35,65.3281 1336.5,64C 1333.25,61.6581 1331.41,58.4915 1331,54.5C 1330.33,47.5 1330.33,40.5 1331,33.5C 1332.12,30.2409 1333.95,27.5743 1336.5,25.5 Z"/></g>
<g><path style="opacity:1" fill="#fafafa" d="M 1831.5,25.5 C 1838.27,24.7587 1842.44,27.7587 1844,34.5C 1844.86,42.2318 1844.52,49.8984 1843,57.5C 1841.18,63.1614 1837.35,65.3281 1831.5,64C 1828.25,61.6581 1826.41,58.4915 1826,54.5C 1825.33,47.5 1825.33,40.5 1826,33.5C 1827.12,30.2409 1828.95,27.5743 1831.5,25.5 Z"/></g>
<g><path style="opacity:1" fill="#fafafa" d="M 1868.5,25.5 C 1875.27,24.7587 1879.44,27.7587 1881,34.5C 1881.86,42.2318 1881.52,49.8984 1880,57.5C 1878.18,63.1614 1874.35,65.3281 1868.5,64C 1865.25,61.6581 1863.41,58.4915 1863,54.5C 1862.33,47.5 1862.33,40.5 1863,33.5C 1864.12,30.2409 1865.95,27.5743 1868.5,25.5 Z"/></g>
<g><path style="opacity:1" fill="#fafafa" d="M 2363.5,25.5 C 2370.27,24.7587 2374.44,27.7587 2376,34.5C 2376.86,42.2318 2376.52,49.8984 2375,57.5C 2373.18,63.1614 2369.35,65.3281 2363.5,64C 2360.25,61.6581 2358.41,58.4915 2358,54.5C 2357.33,47.5 2357.33,40.5 2358,33.5C 2359.12,30.2409 2360.95,27.5743 2363.5,25.5 Z"/></g>
<g><path style="opacity:1" fill="#fafafa" d="M 2400.5,25.5 C 2407.27,24.7587 2411.44,27.7587 2413,34.5C 2413.86,42.2318 2413.52,49.8984 2412,57.5C 2410.18,63.1614 2406.35,65.3281 2400.5,64C 2397.25,61.6581 2395.41,58.4915 2395,54.5C 2394.33,47.5 2394.33,40.5 2395,33.5C 2396.12,30.2409 2397.95,27.5743 2400.5,25.5 Z"/></g>
<g><path style="opacity:1" fill="#fafafa" d="M 2895.5,25.5 C 2902.27,24.7587 2906.44,27.7587 2908,34.5C 2908.86,42.2318 2908.52,49.8984 2907,57.5C 2905.18,63.1614 2901.35,65.3281 2895.5,64C 2892.25,61.6581 2890.41,58.4915 2890,54.5C 2889.33,47.5 2889.33,40.5 2890,33.5C 2891.12,30.2409 2892.95,27.5743 2895.5,25.5 Z"/></g>
<g><path style="opacity:1" fill="#fafafa" d="M 2932.5,25.5 C 2939.27,24.7587 2943.44,27.7587 2945,34.5C 2945.86,42.2318 2945.52,49.8984 2944,57.5C 2942.18,63.1614 2938.35,65.3281 2932.5,64C 2929.25,61.6581 2927.41,58.4915 2927,54.5C 2926.33,47.5 2926.33,40.5 2927,33.5C 2928.12,30.2409 2929.95,27.5743 2932.5,25.5 Z"/></g>
<g><path style="opacity:1" fill="#fafafa" d="M 3427.5,25.5 C 3434.27,24.7587 3438.44,27.7587 3440,34.5C 3440.86,42.2318 3440.52,49.8984 3439,57.5C 3437.18,63.1614 3433.35,65.3281 3427.5,64C 3424.25,61.6581 3422.41,58.4915 3422,54.5C 3421.33,47.5 3421.33,40.5 3422,33.5C 3423.12,30.2409 3424.95,27.5743 3427.5,25.5 Z"/></g>
<g><path style="opacity:1" fill="#fafafa" d="M 3464.5,25.5 C 3471.27,24.7587 3475.44,27.7587 3477,34.5C 3477.86,42.2318 3477.52,49.8984 3476,57.5C 3474.18,63.1614 3470.35,65.3281 3464.5,64C 3461.25,61.6581 3459.41,58.4915 3459,54.5C 3458.33,47.5 3458.33,40.5 3459,33.5C 3460.12,30.2409 3461.95,27.5743 3464.5,25.5 Z"/></g>
<g><path style="opacity:1" fill="#fafafa" d="M 3958.5,25.5 C 3965.27,24.7587 3969.44,27.7587 3971,34.5C 3971.86,42.2318 3971.52,49.8984 3970,57.5C 3968.18,63.1614 3964.35,65.3281 3958.5,64C 3955.25,61.6581 3953.41,58.4915 3953,54.5C 3952.33,47.5 3952.33,40.5 3953,33.5C 3954.12,30.2409 3955.95,27.5743 3958.5,25.5 Z"/></g>
<g><path style="opacity:1" fill="#fafafa" d="M 3995.5,25.5 C 4002.27,24.7587 4006.44,27.7587 4008,34.5C 4008.86,42.2318 4008.52,49.8984 4007,57.5C 4005.18,63.1614 4001.35,65.3281 3995.5,64C 3992.25,61.6581 3990.41,58.4915 3990,54.5C 3989.33,47.5 3989.33,40.5 3990,33.5C 3991.12,30.2409 3992.95,27.5743 3995.5,25.5 Z"/></g>
<g><path style="opacity:1" fill="#fafafa" d="M 4490.5,25.5 C 4497.27,24.7587 4501.44,27.7587 4503,34.5C 4503.86,42.2318 4503.52,49.8984 4502,57.5C 4500.18,63.1614 4496.35,65.3281 4490.5,64C 4487.25,61.6581 4485.41,58.4915 4485,54.5C 4484.33,47.5 4484.33,40.5 4485,33.5C 4486.12,30.2409 4487.95,27.5743 4490.5,25.5 Z"/></g>
<g><path style="opacity:1" fill="#fafafa" d="M 4527.5,25.5 C 4534.27,24.7587 4538.44,27.7587 4540,34.5C 4540.86,42.2318 4540.52,49.8984 4539,57.5C 4537.18,63.1614 4533.35,65.3281 4527.5,64C 4524.25,61.6581 4522.41,58.4915 4522,54.5C 4521.33,47.5 4521.33,40.5 4522,33.5C 4523.12,30.2409 4524.95,27.5743 4527.5,25.5 Z"/></g>
<g><path style="opacity:1" fill="#f8f8f8" d="M 4985.5,25.5 C 4994.33,24.1621 4997.83,27.8288 4996,36.5C 4991.33,41.8333 4986.67,41.8333 4982,36.5C 4980.52,31.774 4981.68,28.1074 4985.5,25.5 Z"/></g>
<g><path style="opacity:1" fill="#fafafa" d="M 5022.5,25.5 C 5029.27,24.7587 5033.44,27.7587 5035,34.5C 5035.86,42.2318 5035.52,49.8984 5034,57.5C 5032.18,63.1614 5028.35,65.3281 5022.5,64C 5019.25,61.6581 5017.41,58.4915 5017,54.5C 5016.33,47.5 5016.33,40.5 5017,33.5C 5018.12,30.2409 5019.95,27.5743 5022.5,25.5 Z"/></g>
<g><path style="opacity:1" fill="#fafafa" d="M 5059.5,25.5 C 5066.27,24.7587 5070.44,27.7587 5072,34.5C 5072.86,42.2318 5072.52,49.8984 5071,57.5C 5069.18,63.1614 5065.35,65.3281 5059.5,64C 5056.25,61.6581 5054.41,58.4915 5054,54.5C 5053.33,47.5 5053.33,40.5 5054,33.5C 5055.12,30.2409 5056.95,27.5743 5059.5,25.5 Z"/></g>
<g><path style="opacity:1" fill="#f2f2f2" d="M 2864.5,30.5 C 2865.49,37.3134 2865.82,44.3134 2865.5,51.5C 2860.49,51.6659 2855.49,51.4993 2850.5,51C 2855.39,44.2859 2860.05,37.4526 2864.5,30.5 Z"/></g>
<g><path style="opacity:1" fill="#f8f8f8" d="M 3921.5,42.5 C 3933.56,42.9276 3937.4,48.9276 3933,60.5C 3925.07,66.8942 3919.4,65.2276 3916,55.5C 3915.09,49.983 3916.93,45.6496 3921.5,42.5 Z"/></g>
<g><path style="opacity:1" fill="#f9f9f9" d="M 4984.5,45.5 C 4995.66,43.8255 5000.16,48.4922 4998,59.5C 4992.63,65.6982 4986.96,66.0316 4981,60.5C 4978.21,54.4076 4979.37,49.4076 4984.5,45.5 Z"/></g>
<g><path style="opacity:1" fill="#8e8e8e" d="M 2844.5,56.5 C 2851.5,56.5 2858.5,56.5 2865.5,56.5C 2865.5,60.5 2865.5,64.5 2865.5,68.5C 2864.52,65.0381 2864.19,61.3714 2864.5,57.5C 2857.65,57.824 2850.98,57.4907 2844.5,56.5 Z"/></g>
<g><path style="opacity:1" fill="#707070" d="M 1790.5,61.5 C 1797.98,62.492 1805.65,62.8254 1813.5,62.5C 1813.79,64.7354 1813.46,66.7354 1812.5,68.5C 1812.5,66.8333 1812.5,65.1667 1812.5,63.5C 1804.8,63.8308 1797.14,63.4975 1789.5,62.5C 1789.62,61.8933 1789.96,61.56 1790.5,61.5 Z"/></g>
<g><path style="opacity:1" fill="#777777" d="M 768.5,94.5 C 2304.17,94.5 3839.83,94.5 5375.5,94.5C 5375.5,285.833 5375.5,477.167 5375.5,668.5C 3839.83,668.5 2304.17,668.5 768.5,668.5C 768.5,477.167 768.5,285.833 768.5,94.5 Z"/></g>
<g><path style="opacity:1" fill="#363535" d="M 769.5,95.5 C 2304.5,95.5 3839.5,95.5 5374.5,95.5C 5374.5,286.167 5374.5,476.833 5374.5,667.5C 3839.5,667.5 2304.5,667.5 769.5,667.5C 769.5,476.833 769.5,286.167 769.5,95.5 Z"/></g>
<g><path style="opacity:1" fill="#fefffe" d="M 5115.5,99.5 C 5200.5,99.5 5285.5,99.5 5370.5,99.5C 5370.5,287.5 5370.5,475.5 5370.5,663.5C 5285.5,663.5 5200.5,663.5 5115.5,663.5C 5115.5,475.5 5115.5,287.5 5115.5,99.5 Z"/></g>
<g><path style="opacity:1" fill="#000000" d="M 5099.5,99.5 C 5104.5,99.5 5109.5,99.5 5114.5,99.5C 5114.5,287.5 5114.5,475.5 5114.5,663.5C 5109.5,663.5 5104.5,663.5 5099.5,663.5C 5099.5,475.5 5099.5,287.5 5099.5,99.5 Z"/></g>
<g><path style="opacity:1" fill="#fefffe" d="M 5035.5,99.5 C 5056.5,99.5 5077.5,99.5 5098.5,99.5C 5098.5,287.5 5098.5,475.5 5098.5,663.5C 5077.5,663.5 5056.5,663.5 5035.5,663.5C 5035.5,475.5 5035.5,287.5 5035.5,99.5 Z"/></g>
<g><path style="opacity:1" fill="#79ad33" d="M 5018.5,99.5 C 5020.5,99.5 5022.5,99.5 5024.5,99.5C 5024.5,114.833 5024.5,130.167 5024.5,145.5C 5026.17,145.5 5027.83,145.5 5029.5,145.5C 5029.5,130.167 5029.5,114.833 5029.5,99.5C 5031.5,99.5 5033.5,99.5 5035.5,99.5C 5035.5,287.5 5035.5,475.5 5035.5,663.5C 5033.5,663.5 5031.5,663.5 5029.5,663.5C 5029.5,648.167 5029.5,632.833 5029.5,617.5C 5027.83,617.5 5026.17,617.5 5024.5,617.5C 5024.5,632.833 5024.5,648.167 5024.5,663.5C 5022.5,663.5 5020.5,663.5 5018.5,663.5C 5018.5,475.5 5018.5,287.5 5018.5,99.5 Z"/></g>
<g><path style="opacity:1" fill="#44582a" d="M 5029.5,663.5 C 5028.5,648.676 5028.17,633.676 5028.5,618.5C 5027.5,618.5 5026.5,618.5 5025.5,618.5C 5025.83,633.676 5025.5,648.676 5024.5,663.5C 5024.5,648.167 5024.5,632.833 5024.5,617.5C 5026.17,617.5 5027.83,617.5 5029.5,617.5C 5029.5,632.833 5029.5,648.167 5029.5,663.5 Z"/></g>
<g><path style="opacity:1" fill="#44582a" d="M 5024.5,99.5 C 5025.5,114.324 5025.83,129.324 5025.5,144.5C 5026.5,144.5 5027.5,144.5 5028.5,144.5C 5028.17,129.324 5028.5,114.324 5029.5,99.5C 5029.5,114.833 5029.5,130.167 5029.5,145.5C 5027.83,145.5 5026.17,145.5 5024.5,145.5C 5024.5,130.167 5024.5,114.833 5024.5,99.5 Z"/></g>
<g><path style="opacity:1" fill="#fefffe" d="M 4955.5,99.5 C 4976.5,99.5 4997.5,99.5 5018.5,99.5C 5018.5,287.5 5018.5,475.5 5018.5,663.5C 4997.5,663.5 4976.5,663.5 4955.5,663.5C 4955.5,475.5 4955.5,287.5 4955.5,99.5 Z"/></g>
<g><path style="opacity:1" fill="#78ad33" d="M 4938.5,99.5 C 4944.17,99.5 4949.83,99.5 4955.5,99.5C 4955.5,287.5 4955.5,475.5 4955.5,663.5C 4949.83,663.5 4944.17,663.5 4938.5,663.5C 4938.5,475.5 4938.5,287.5 4938.5,99.5 Z"/></g>
<g><path style="opacity:1" fill="#fefffe" d="M 4875.5,99.5 C 4896.5,99.5 4917.5,99.5 4938.5,99.5C 4938.5,287.5 4938.5,475.5 4938.5,663.5C 4917.5,663.5 4896.5,663.5 4875.5,663.5C 4875.5,475.5 4875.5,287.5 4875.5,99.5 Z"/></g>
<g><path style="opacity:1" fill="#78ad33" d="M 4858.5,99.5 C 4864.17,99.5 4869.83,99.5 4875.5,99.5C 4875.5,287.5 4875.5,475.5 4875.5,663.5C 4869.83,663.5 4864.17,663.5 4858.5,663.5C 4858.5,475.5 4858.5,287.5 4858.5,99.5 Z"/></g>
<g><path style="opacity:1" fill="#fefffe" d="M 4795.5,99.5 C 4816.5,99.5 4837.5,99.5 4858.5,99.5C 4858.5,287.5 4858.5,475.5 4858.5,663.5C 4837.5,663.5 4816.5,663.5 4795.5,663.5C 4795.5,475.5 4795.5,287.5 4795.5,99.5 Z"/></g>
<g><path style="opacity:1" fill="#78ad33" d="M 4778.5,99.5 C 4784.17,99.5 4789.83,99.5 4795.5,99.5C 4795.5,287.5 4795.5,475.5 4795.5,663.5C 4789.83,663.5 4784.17,663.5 4778.5,663.5C 4778.5,475.5 4778.5,287.5 4778.5,99.5 Z"/></g>
<g><path style="opacity:1" fill="#fefffe" d="M 4716.5,99.5 C 4737.17,99.5 4757.83,99.5 4778.5,99.5C 4778.5,287.5 4778.5,475.5 4778.5,663.5C 4757.83,663.5 4737.17,663.5 4716.5,663.5C 4716.5,475.5 4716.5,287.5 4716.5,99.5 Z"/></g>
<g><path style="opacity:1" fill="#78ad33" d="M 4699.5,99.5 C 4705.17,99.5 4710.83,99.5 4716.5,99.5C 4716.5,287.5 4716.5,475.5 4716.5,663.5C 4710.83,663.5 4705.17,663.5 4699.5,663.5C 4699.5,475.5 4699.5,287.5 4699.5,99.5 Z"/></g>
<g><path style="opacity:1" fill="#fefffe" d="M 4636.5,99.5 C 4657.5,99.5 4678.5,99.5 4699.5,99.5C 4699.5,287.5 4699.5,475.5 4699.5,663.5C 4678.5,663.5 4657.5,663.5 4636.5,663.5C 4636.5,475.5 4636.5,287.5 4636.5,99.5 Z"/></g>
<g><path style="opacity:1" fill="#78ad33" d="M 4619.5,99.5 C 4625.17,99.5 4630.83,99.5 4636.5,99.5C 4636.5,287.5 4636.5,475.5 4636.5,663.5C 4630.83,663.5 4625.17,663.5 4619.5,663.5C 4619.5,475.5 4619.5,287.5 4619.5,99.5 Z"/></g>
<g><path style="opacity:1" fill="#fefffe" d="M 4556.5,99.5 C 4577.5,99.5 4598.5,99.5 4619.5,99.5C 4619.5,287.5 4619.5,475.5 4619.5,663.5C 4598.5,663.5 4577.5,663.5 4556.5,663.5C 4556.5,475.5 4556.5,287.5 4556.5,99.5 Z"/></g>
<g><path style="opacity:1" fill="#78ad33" d="M 4539.5,99.5 C 4545.17,99.5 4550.83,99.5 4556.5,99.5C 4556.5,287.5 4556.5,475.5 4556.5,663.5C 4550.83,663.5 4545.17,663.5 4539.5,663.5C 4539.5,475.5 4539.5,287.5 4539.5,99.5 Z"/></g>
<g><path style="opacity:1" fill="#fefffe" d="M 4343.5,99.5 C 4393.17,99.5 4442.83,99.5 4492.5,99.5C 4492.5,114.833 4492.5,130.167 4492.5,145.5C 4494.17,145.5 4495.83,145.5 4497.5,145.5C 4497.5,130.167 4497.5,114.833 4497.5,99.5C 4511.5,99.5 4525.5,99.5 4539.5,99.5C 4539.5,287.5 4539.5,475.5 4539.5,663.5C 4525.5,663.5 4511.5,663.5 4497.5,663.5C 4497.5,648.167 4497.5,632.833 4497.5,617.5C 4495.83,617.5 4494.17,617.5 4492.5,617.5C 4492.5,632.833 4492.5,648.167 4492.5,663.5C 4442.83,663.5 4393.17,663.5 4343.5,663.5C 4343.5,475.5 4343.5,287.5 4343.5,99.5 Z"/></g>
<g><path style="opacity:1" fill="#777777" d="M 4497.5,663.5 C 4496.5,648.676 4496.17,633.676 4496.5,618.5C 4495.5,618.5 4494.5,618.5 4493.5,618.5C 4493.83,633.676 4493.5,648.676 4492.5,663.5C 4492.5,648.167 4492.5,632.833 4492.5,617.5C 4494.17,617.5 4495.83,617.5 4497.5,617.5C 4497.5,632.833 4497.5,648.167 4497.5,663.5 Z"/></g>
<g><path style="opacity:1" fill="#777777" d="M 4492.5,99.5 C 4493.5,114.324 4493.83,129.324 4493.5,144.5C 4494.5,144.5 4495.5,144.5 4496.5,144.5C 4496.17,129.324 4496.5,114.324 4497.5,99.5C 4497.5,114.833 4497.5,130.167 4497.5,145.5C 4495.83,145.5 4494.17,145.5 4492.5,145.5C 4492.5,130.167 4492.5,114.833 4492.5,99.5 Z"/></g>
<g><path style="opacity:1" fill="#7f328f" d="M 4326.5,99.5 C 4332.17,99.5 4337.83,99.5 4343.5,99.5C 4343.5,287.5 4343.5,475.5 4343.5,663.5C 4337.83,663.5 4332.17,663.5 4326.5,663.5C 4326.5,475.5 4326.5,287.5 4326.5,99.5 Z"/></g>
<g><path style="opacity:1" fill="#fefffe" d="M 4131.5,99.5 C 4196.5,99.5 4261.5,99.5 4326.5,99.5C 4326.5,287.5 4326.5,475.5 4326.5,663.5C 4261.5,663.5 4196.5,663.5 4131.5,663.5C 4131.5,475.5 4131.5,287.5 4131.5,99.5 Z"/></g>
<g><path style="opacity:1" fill="#7f328f" d="M 4114.5,99.5 C 4120.17,99.5 4125.83,99.5 4131.5,99.5C 4131.5,287.5 4131.5,475.5 4131.5,663.5C 4125.83,663.5 4120.17,663.5 4114.5,663.5C 4114.5,475.5 4114.5,287.5 4114.5,99.5 Z"/></g>
<g><path style="opacity:1" fill="#fefffe" d="M 3918.5,99.5 C 3932.5,99.5 3946.5,99.5 3960.5,99.5C 3960.5,114.833 3960.5,130.167 3960.5,145.5C 3962.17,145.5 3963.83,145.5 3965.5,145.5C 3965.5,130.167 3965.5,114.833 3965.5,99.5C 4015.17,99.5 4064.83,99.5 4114.5,99.5C 4114.5,287.5 4114.5,475.5 4114.5,663.5C 4064.83,663.5 4015.17,663.5 3965.5,663.5C 3965.5,648.167 3965.5,632.833 3965.5,617.5C 3963.83,617.5 3962.17,617.5 3960.5,617.5C 3960.5,632.833 3960.5,648.167 3960.5,663.5C 3946.5,663.5 3932.5,663.5 3918.5,663.5C 3918.5,475.5 3918.5,287.5 3918.5,99.5 Z"/></g>
<g><path style="opacity:1" fill="#777777" d="M 3965.5,663.5 C 3964.5,648.676 3964.17,633.676 3964.5,618.5C 3963.5,618.5 3962.5,618.5 3961.5,618.5C 3961.83,633.676 3961.5,648.676 3960.5,663.5C 3960.5,648.167 3960.5,632.833 3960.5,617.5C 3962.17,617.5 3963.83,617.5 3965.5,617.5C 3965.5,632.833 3965.5,648.167 3965.5,663.5 Z"/></g>
<g><path style="opacity:1" fill="#777777" d="M 3960.5,99.5 C 3961.5,114.324 3961.83,129.324 3961.5,144.5C 3962.5,144.5 3963.5,144.5 3964.5,144.5C 3964.17,129.324 3964.5,114.324 3965.5,99.5C 3965.5,114.833 3965.5,130.167 3965.5,145.5C 3963.83,145.5 3962.17,145.5 3960.5,145.5C 3960.5,130.167 3960.5,114.833 3960.5,99.5 Z"/></g>
<g><path style="opacity:1" fill="#7f328f" d="M 3901.5,99.5 C 3907.17,99.5 3912.83,99.5 3918.5,99.5C 3918.5,287.5 3918.5,475.5 3918.5,663.5C 3912.83,663.5 3907.17,663.5 3901.5,663.5C 3901.5,475.5 3901.5,287.5 3901.5,99.5 Z"/></g>
<g><path style="opacity:1" fill="#fefffe" d="M 3705.5,99.5 C 3770.83,99.5 3836.17,99.5 3901.5,99.5C 3901.5,287.5 3901.5,475.5 3901.5,663.5C 3836.17,663.5 3770.83,663.5 3705.5,663.5C 3705.5,475.5 3705.5,287.5 3705.5,99.5 Z"/></g>
<g><path style="opacity:1" fill="#7f328f" d="M 3688.5,99.5 C 3694.17,99.5 3699.83,99.5 3705.5,99.5C 3705.5,287.5 3705.5,475.5 3705.5,663.5C 3699.83,663.5 3694.17,663.5 3688.5,663.5C 3688.5,475.5 3688.5,287.5 3688.5,99.5 Z"/></g>
<g><path style="opacity:1" fill="#fefffe" d="M 3492.5,99.5 C 3557.83,99.5 3623.17,99.5 3688.5,99.5C 3688.5,287.5 3688.5,475.5 3688.5,663.5C 3623.17,663.5 3557.83,663.5 3492.5,663.5C 3492.5,475.5 3492.5,287.5 3492.5,99.5 Z"/></g>
<g><path style="opacity:1" fill="#edb223" d="M 3475.5,99.5 C 3481.17,99.5 3486.83,99.5 3492.5,99.5C 3492.5,287.5 3492.5,475.5 3492.5,663.5C 3486.83,663.5 3481.17,663.5 3475.5,663.5C 3475.5,475.5 3475.5,287.5 3475.5,99.5 Z"/></g>
<g><path style="opacity:1" fill="#fefffe" d="M 3439.5,99.5 C 3451.5,99.5 3463.5,99.5 3475.5,99.5C 3475.5,287.5 3475.5,475.5 3475.5,663.5C 3463.5,663.5 3451.5,663.5 3439.5,663.5C 3439.5,475.5 3439.5,287.5 3439.5,99.5 Z"/></g>
<g><path style="opacity:1" fill="#edb223" d="M 3422.5,99.5 C 3424.5,99.5 3426.5,99.5 3428.5,99.5C 3428.5,114.833 3428.5,130.167 3428.5,145.5C 3430.17,145.5 3431.83,145.5 3433.5,145.5C 3433.5,130.167 3433.5,114.833 3433.5,99.5C 3435.5,99.5 3437.5,99.5 3439.5,99.5C 3439.5,287.5 3439.5,475.5 3439.5,663.5C 3437.5,663.5 3435.5,663.5 3433.5,663.5C 3433.5,648.167 3433.5,632.833 3433.5,617.5C 3431.83,617.5 3430.17,617.5 3428.5,617.5C 3428.5,632.833 3428.5,648.167 3428.5,663.5C 3426.5,663.5 3424.5,663.5 3422.5,663.5C 3422.5,475.5 3422.5,287.5 3422.5,99.5 Z"/></g>
<g><path style="opacity:1" fill="#715a24" d="M 3433.5,663.5 C 3432.5,648.676 3432.17,633.676 3432.5,618.5C 3431.5,618.5 3430.5,618.5 3429.5,618.5C 3429.83,633.676 3429.5,648.676 3428.5,663.5C 3428.5,648.167 3428.5,632.833 3428.5,617.5C 3430.17,617.5 3431.83,617.5 3433.5,617.5C 3433.5,632.833 3433.5,648.167 3433.5,663.5 Z"/></g>
<g><path style="opacity:1" fill="#715a24" d="M 3428.5,99.5 C 3429.5,114.324 3429.83,129.324 3429.5,144.5C 3430.5,144.5 3431.5,144.5 3432.5,144.5C 3432.17,129.324 3432.5,114.324 3433.5,99.5C 3433.5,114.833 3433.5,130.167 3433.5,145.5C 3431.83,145.5 3430.17,145.5 3428.5,145.5C 3428.5,130.167 3428.5,114.833 3428.5,99.5 Z"/></g>
<g><path style="opacity:1" fill="#fefffe" d="M 3386.5,99.5 C 3398.5,99.5 3410.5,99.5 3422.5,99.5C 3422.5,287.5 3422.5,475.5 3422.5,663.5C 3410.5,663.5 3398.5,663.5 3386.5,663.5C 3386.5,475.5 3386.5,287.5 3386.5,99.5 Z"/></g>
<g><path style="opacity:1" fill="#edb223" d="M 3369.5,99.5 C 3375.17,99.5 3380.83,99.5 3386.5,99.5C 3386.5,287.5 3386.5,475.5 3386.5,663.5C 3380.83,663.5 3375.17,663.5 3369.5,663.5C 3369.5,475.5 3369.5,287.5 3369.5,99.5 Z"/></g>
<g><path style="opacity:1" fill="#fefffe" d="M 3333.5,99.5 C 3345.5,99.5 3357.5,99.5 3369.5,99.5C 3369.5,287.5 3369.5,475.5 3369.5,663.5C 3357.5,663.5 3345.5,663.5 3333.5,663.5C 3333.5,475.5 3333.5,287.5 3333.5,99.5 Z"/></g>
<g><path style="opacity:1" fill="#edb223" d="M 3316.5,99.5 C 3322.17,99.5 3327.83,99.5 3333.5,99.5C 3333.5,287.5 3333.5,475.5 3333.5,663.5C 3327.83,663.5 3322.17,663.5 3316.5,663.5C 3316.5,475.5 3316.5,287.5 3316.5,99.5 Z"/></g>
<g><path style="opacity:1" fill="#fefffe" d="M 3279.5,99.5 C 3291.83,99.5 3304.17,99.5 3316.5,99.5C 3316.5,287.5 3316.5,475.5 3316.5,663.5C 3304.17,663.5 3291.83,663.5 3279.5,663.5C 3279.5,475.5 3279.5,287.5 3279.5,99.5 Z"/></g>
<g><path style="opacity:1" fill="#edb223" d="M 3262.5,99.5 C 3268.17,99.5 3273.83,99.5 3279.5,99.5C 3279.5,287.5 3279.5,475.5 3279.5,663.5C 3273.83,663.5 3268.17,663.5 3262.5,663.5C 3262.5,475.5 3262.5,287.5 3262.5,99.5 Z"/></g>
<g><path style="opacity:1" fill="#fefffe" d="M 3226.5,99.5 C 3238.5,99.5 3250.5,99.5 3262.5,99.5C 3262.5,287.5 3262.5,475.5 3262.5,663.5C 3250.5,663.5 3238.5,663.5 3226.5,663.5C 3226.5,475.5 3226.5,287.5 3226.5,99.5 Z"/></g>
<g><path style="opacity:1" fill="#edb223" d="M 3209.5,99.5 C 3215.17,99.5 3220.83,99.5 3226.5,99.5C 3226.5,287.5 3226.5,475.5 3226.5,663.5C 3220.83,663.5 3215.17,663.5 3209.5,663.5C 3209.5,475.5 3209.5,287.5 3209.5,99.5 Z"/></g>
<g><path style="opacity:1" fill="#fefffe" d="M 3173.5,99.5 C 3185.5,99.5 3197.5,99.5 3209.5,99.5C 3209.5,287.5 3209.5,475.5 3209.5,663.5C 3197.5,663.5 3185.5,663.5 3173.5,663.5C 3173.5,475.5 3173.5,287.5 3173.5,99.5 Z"/></g>
<g><path style="opacity:1" fill="#edb223" d="M 3156.5,99.5 C 3162.17,99.5 3167.83,99.5 3173.5,99.5C 3173.5,287.5 3173.5,475.5 3173.5,663.5C 3167.83,663.5 3162.17,663.5 3156.5,663.5C 3156.5,475.5 3156.5,287.5 3156.5,99.5 Z"/></g>
<g><path style="opacity:1" fill="#fefffe" d="M 3013.5,99.5 C 3061.17,99.5 3108.83,99.5 3156.5,99.5C 3156.5,287.5 3156.5,475.5 3156.5,663.5C 3108.83,663.5 3061.17,663.5 3013.5,663.5C 3013.5,475.5 3013.5,287.5 3013.5,99.5 Z"/></g>
<g><path style="opacity:1" fill="#d9551c" d="M 2996.5,99.5 C 3002.17,99.5 3007.83,99.5 3013.5,99.5C 3013.5,287.5 3013.5,475.5 3013.5,663.5C 3007.83,663.5 3002.17,663.5 2996.5,663.5C 2996.5,475.5 2996.5,287.5 2996.5,99.5 Z"/></g>
<g><path style="opacity:1" fill="#fefffe" d="M 2854.5,99.5 C 2868.5,99.5 2882.5,99.5 2896.5,99.5C 2896.5,114.833 2896.5,130.167 2896.5,145.5C 2898.17,145.5 2899.83,145.5 2901.5,145.5C 2901.5,130.167 2901.5,114.833 2901.5,99.5C 2933.17,99.5 2964.83,99.5 2996.5,99.5C 2996.5,287.5 2996.5,475.5 2996.5,663.5C 2964.83,663.5 2933.17,663.5 2901.5,663.5C 2901.5,648.167 2901.5,632.833 2901.5,617.5C 2899.83,617.5 2898.17,617.5 2896.5,617.5C 2896.5,632.833 2896.5,648.167 2896.5,663.5C 2882.5,663.5 2868.5,663.5 2854.5,663.5C 2854.5,475.5 2854.5,287.5 2854.5,99.5 Z"/></g>
<g><path style="opacity:1" fill="#777777" d="M 2901.5,663.5 C 2900.5,648.676 2900.17,633.676 2900.5,618.5C 2899.5,618.5 2898.5,618.5 2897.5,618.5C 2897.83,633.676 2897.5,648.676 2896.5,663.5C 2896.5,648.167 2896.5,632.833 2896.5,617.5C 2898.17,617.5 2899.83,617.5 2901.5,617.5C 2901.5,632.833 2901.5,648.167 2901.5,663.5 Z"/></g>
<g><path style="opacity:1" fill="#777777" d="M 2896.5,99.5 C 2897.5,114.324 2897.83,129.324 2897.5,144.5C 2898.5,144.5 2899.5,144.5 2900.5,144.5C 2900.17,129.324 2900.5,114.324 2901.5,99.5C 2901.5,114.833 2901.5,130.167 2901.5,145.5C 2899.83,145.5 2898.17,145.5 2896.5,145.5C 2896.5,130.167 2896.5,114.833 2896.5,99.5 Z"/></g>
<g><path style="opacity:1" fill="#d9551c" d="M 2837.5,99.5 C 2843.17,99.5 2848.83,99.5 2854.5,99.5C 2854.5,287.5 2854.5,475.5 2854.5,663.5C 2848.83,663.5 2843.17,663.5 2837.5,663.5C 2837.5,475.5 2837.5,287.5 2837.5,99.5 Z"/></g>
<g><path style="opacity:1" fill="#fefffe" d="M 2694.5,99.5 C 2742.17,99.5 2789.83,99.5 2837.5,99.5C 2837.5,287.5 2837.5,475.5 2837.5,663.5C 2789.83,663.5 2742.17,663.5 2694.5,663.5C 2694.5,475.5 2694.5,287.5 2694.5,99.5 Z"/></g>
<g><path style="opacity:1" fill="#d9551c" d="M 2677.5,99.5 C 2683.17,99.5 2688.83,99.5 2694.5,99.5C 2694.5,287.5 2694.5,475.5 2694.5,663.5C 2688.83,663.5 2683.17,663.5 2677.5,663.5C 2677.5,475.5 2677.5,287.5 2677.5,99.5 Z"/></g>
<g><path style="opacity:1" fill="#fefffe" d="M 2535.5,99.5 C 2582.83,99.5 2630.17,99.5 2677.5,99.5C 2677.5,287.5 2677.5,475.5 2677.5,663.5C 2630.17,663.5 2582.83,663.5 2535.5,663.5C 2535.5,475.5 2535.5,287.5 2535.5,99.5 Z"/></g>
<g><path style="opacity:1" fill="#d9551c" d="M 2518.5,99.5 C 2524.17,99.5 2529.83,99.5 2535.5,99.5C 2535.5,287.5 2535.5,475.5 2535.5,663.5C 2529.83,663.5 2524.17,663.5 2518.5,663.5C 2518.5,475.5 2518.5,287.5 2518.5,99.5 Z"/></g>
<g><path style="opacity:1" fill="#fefffe" d="M 2375.5,99.5 C 2423.17,99.5 2470.83,99.5 2518.5,99.5C 2518.5,287.5 2518.5,475.5 2518.5,663.5C 2470.83,663.5 2423.17,663.5 2375.5,663.5C 2375.5,475.5 2375.5,287.5 2375.5,99.5 Z"/></g>
<g><path style="opacity:1" fill="#d9551c" d="M 2358.5,99.5 C 2360.5,99.5 2362.5,99.5 2364.5,99.5C 2364.5,114.833 2364.5,130.167 2364.5,145.5C 2366.17,145.5 2367.83,145.5 2369.5,145.5C 2369.5,130.167 2369.5,114.833 2369.5,99.5C 2371.5,99.5 2373.5,99.5 2375.5,99.5C 2375.5,287.5 2375.5,475.5 2375.5,663.5C 2373.5,663.5 2371.5,663.5 2369.5,663.5C 2369.5,648.167 2369.5,632.833 2369.5,617.5C 2367.83,617.5 2366.17,617.5 2364.5,617.5C 2364.5,632.833 2364.5,648.167 2364.5,663.5C 2362.5,663.5 2360.5,663.5 2358.5,663.5C 2358.5,475.5 2358.5,287.5 2358.5,99.5 Z"/></g>
<g><path style="opacity:1" fill="#693720" d="M 2369.5,663.5 C 2368.5,648.676 2368.17,633.676 2368.5,618.5C 2367.5,618.5 2366.5,618.5 2365.5,618.5C 2365.83,633.676 2365.5,648.676 2364.5,663.5C 2364.5,648.167 2364.5,632.833 2364.5,617.5C 2366.17,617.5 2367.83,617.5 2369.5,617.5C 2369.5,632.833 2369.5,648.167 2369.5,663.5 Z"/></g>
<g><path style="opacity:1" fill="#693720" d="M 2364.5,99.5 C 2365.5,114.324 2365.83,129.324 2365.5,144.5C 2366.5,144.5 2367.5,144.5 2368.5,144.5C 2368.17,129.324 2368.5,114.324 2369.5,99.5C 2369.5,114.833 2369.5,130.167 2369.5,145.5C 2367.83,145.5 2366.17,145.5 2364.5,145.5C 2364.5,130.167 2364.5,114.833 2364.5,99.5 Z"/></g>
<g><path style="opacity:1" fill="#fefffe" d="M 2109.5,99.5 C 2192.5,99.5 2275.5,99.5 2358.5,99.5C 2358.5,287.5 2358.5,475.5 2358.5,663.5C 2275.5,663.5 2192.5,663.5 2109.5,663.5C 2109.5,475.5 2109.5,287.5 2109.5,99.5 Z"/></g>
<g><path style="opacity:1" fill="#0573bd" d="M 2092.5,99.5 C 2098.17,99.5 2103.83,99.5 2109.5,99.5C 2109.5,287.5 2109.5,475.5 2109.5,663.5C 2103.83,663.5 2098.17,663.5 2092.5,663.5C 2092.5,475.5 2092.5,287.5 2092.5,99.5 Z"/></g>
<g><path style="opacity:1" fill="#fefffe" d="M 1843.5,99.5 C 1926.5,99.5 2009.5,99.5 2092.5,99.5C 2092.5,287.5 2092.5,475.5 2092.5,663.5C 2009.5,663.5 1926.5,663.5 1843.5,663.5C 1843.5,475.5 1843.5,287.5 1843.5,99.5 Z"/></g>
<g><path style="opacity:1" fill="#0574bd" d="M 1826.5,99.5 C 1828.5,99.5 1830.5,99.5 1832.5,99.5C 1832.5,114.833 1832.5,130.167 1832.5,145.5C 1834.17,145.5 1835.83,145.5 1837.5,145.5C 1837.5,130.167 1837.5,114.833 1837.5,99.5C 1839.5,99.5 1841.5,99.5 1843.5,99.5C 1843.5,287.5 1843.5,475.5 1843.5,663.5C 1841.5,663.5 1839.5,663.5 1837.5,663.5C 1837.5,648.167 1837.5,632.833 1837.5,617.5C 1835.83,617.5 1834.17,617.5 1832.5,617.5C 1832.5,632.833 1832.5,648.167 1832.5,663.5C 1830.5,663.5 1828.5,663.5 1826.5,663.5C 1826.5,475.5 1826.5,287.5 1826.5,99.5 Z"/></g>
<g><path style="opacity:1" fill="#17425f" d="M 1837.5,663.5 C 1836.5,648.676 1836.17,633.676 1836.5,618.5C 1835.5,618.5 1834.5,618.5 1833.5,618.5C 1833.83,633.676 1833.5,648.676 1832.5,663.5C 1832.5,648.167 1832.5,632.833 1832.5,617.5C 1834.17,617.5 1835.83,617.5 1837.5,617.5C 1837.5,632.833 1837.5,648.167 1837.5,663.5 Z"/></g>
<g><path style="opacity:1" fill="#17425f" d="M 1832.5,99.5 C 1833.5,114.324 1833.83,129.324 1833.5,144.5C 1834.5,144.5 1835.5,144.5 1836.5,144.5C 1836.17,129.324 1836.5,114.324 1837.5,99.5C 1837.5,114.833 1837.5,130.167 1837.5,145.5C 1835.83,145.5 1834.17,145.5 1832.5,145.5C 1832.5,130.167 1832.5,114.833 1832.5,99.5 Z"/></g>
<g><path style="opacity:1" fill="#fefffe" d="M 1577.5,99.5 C 1660.5,99.5 1743.5,99.5 1826.5,99.5C 1826.5,287.5 1826.5,475.5 1826.5,663.5C 1743.5,663.5 1660.5,663.5 1577.5,663.5C 1577.5,475.5 1577.5,287.5 1577.5,99.5 Z"/></g>
<g><path style="opacity:1" fill="#0573bd" d="M 1560.5,99.5 C 1566.17,99.5 1571.83,99.5 1577.5,99.5C 1577.5,287.5 1577.5,475.5 1577.5,663.5C 1571.83,663.5 1566.17,663.5 1560.5,663.5C 1560.5,475.5 1560.5,287.5 1560.5,99.5 Z"/></g>
<g><path style="opacity:1" fill="#fefffe" d="M 1311.5,99.5 C 1394.5,99.5 1477.5,99.5 1560.5,99.5C 1560.5,287.5 1560.5,475.5 1560.5,663.5C 1477.5,663.5 1394.5,663.5 1311.5,663.5C 1311.5,475.5 1311.5,287.5 1311.5,99.5 Z"/></g>
<g><path style="opacity:1" fill="#0574bd" d="M 1294.5,99.5 C 1296.5,99.5 1298.5,99.5 1300.5,99.5C 1300.5,114.833 1300.5,130.167 1300.5,145.5C 1302.17,145.5 1303.83,145.5 1305.5,145.5C 1305.5,130.167 1305.5,114.833 1305.5,99.5C 1307.5,99.5 1309.5,99.5 1311.5,99.5C 1311.5,287.5 1311.5,475.5 1311.5,663.5C 1309.5,663.5 1307.5,663.5 1305.5,663.5C 1305.5,648.167 1305.5,632.833 1305.5,617.5C 1303.83,617.5 1302.17,617.5 1300.5,617.5C 1300.5,632.833 1300.5,648.167 1300.5,663.5C 1298.5,663.5 1296.5,663.5 1294.5,663.5C 1294.5,475.5 1294.5,287.5 1294.5,99.5 Z"/></g>
<g><path style="opacity:1" fill="#17425f" d="M 1305.5,663.5 C 1304.5,648.676 1304.17,633.676 1304.5,618.5C 1303.5,618.5 1302.5,618.5 1301.5,618.5C 1301.83,633.676 1301.5,648.676 1300.5,663.5C 1300.5,648.167 1300.5,632.833 1300.5,617.5C 1302.17,617.5 1303.83,617.5 1305.5,617.5C 1305.5,632.833 1305.5,648.167 1305.5,663.5 Z"/></g>
<g><path style="opacity:1" fill="#17425f" d="M 1300.5,99.5 C 1301.5,114.324 1301.83,129.324 1301.5,144.5C 1302.5,144.5 1303.5,144.5 1304.5,144.5C 1304.17,129.324 1304.5,114.324 1305.5,99.5C 1305.5,114.833 1305.5,130.167 1305.5,145.5C 1303.83,145.5 1302.17,145.5 1300.5,145.5C 1300.5,130.167 1300.5,114.833 1300.5,99.5 Z"/></g>
<g><path style="opacity:1" fill="#fefffe" d="M 1045.5,99.5 C 1128.5,99.5 1211.5,99.5 1294.5,99.5C 1294.5,287.5 1294.5,475.5 1294.5,663.5C 1211.5,663.5 1128.5,663.5 1045.5,663.5C 1045.5,475.5 1045.5,287.5 1045.5,99.5 Z"/></g>
<g><path style="opacity:1" fill="#0573bd" d="M 1028.5,99.5 C 1034.17,99.5 1039.83,99.5 1045.5,99.5C 1045.5,287.5 1045.5,475.5 1045.5,663.5C 1039.83,663.5 1034.17,663.5 1028.5,663.5C 1028.5,475.5 1028.5,287.5 1028.5,99.5 Z"/></g>
<g><path style="opacity:1" fill="#fefffe" d="M 1028.5,99.5 C 1028.5,287.5 1028.5,475.5 1028.5,663.5C 943.5,663.5 858.5,663.5 773.5,663.5C 773.5,475.5 773.5,287.5 773.5,99.5C 858.5,99.5 943.5,99.5 1028.5,99.5 Z"/></g>
<g><path style="opacity:1" fill="#ff120b" d="M 2552.5,745.5 C 2550.95,745.179 2550.29,744.179 2550.5,742.5C 2550.5,741.167 2550.5,739.833 2550.5,738.5C 2563.9,738.617 2569.4,732.283 2567,719.5C 2562.82,713.888 2557.32,712.055 2550.5,714C 2545.38,716.626 2542.38,720.793 2541.5,726.5C 2538.46,726.492 2535.46,726.159 2532.5,725.5C 2533.08,716.743 2537.42,710.576 2545.5,707C 2554.84,704.165 2563.51,705.499 2571.5,711C 2578.46,718.893 2579.29,727.393 2574,736.5C 2572.44,738.359 2570.61,739.859 2568.5,741C 2580.7,746.931 2584.54,756.431 2580,769.5C 2572.42,782.369 2561.26,786.869 2546.5,783C 2537.02,779.363 2532.02,772.53 2531.5,762.5C 2534.49,761.865 2537.49,761.699 2540.5,762C 2543.75,775.624 2551.75,779.624 2564.5,774C 2573.33,765.595 2573.66,756.928 2565.5,748C 2561.41,745.947 2557.08,745.113 2552.5,745.5 Z"/></g>
<g><path style="opacity:1" fill="#ff0805" d="M 2656.5,705.5 C 2656.5,731.167 2656.5,756.833 2656.5,782.5C 2653.5,782.5 2650.5,782.5 2647.5,782.5C 2647.83,762.822 2647.5,743.155 2646.5,723.5C 2641.2,728.137 2635.2,731.471 2628.5,733.5C 2628.18,730.428 2628.52,727.428 2629.5,724.5C 2638.3,720.601 2645.3,714.601 2650.5,706.5C 2652.4,705.534 2654.4,705.201 2656.5,705.5 Z"/></g>
<g><path style="opacity:1" fill="#ff6463" d="M 2656.5,705.5 C 2657.5,731.328 2657.83,757.328 2657.5,783.5C 2653.96,783.813 2650.62,783.479 2647.5,782.5C 2650.5,782.5 2653.5,782.5 2656.5,782.5C 2656.5,756.833 2656.5,731.167 2656.5,705.5 Z"/></g>
<g><path style="opacity:1" fill="#ff130b" d="M 4707.5,721.5 C 4707.5,722.5 4707.5,723.5 4707.5,724.5C 4705.59,724.216 4703.92,724.549 4702.5,725.5C 4701.17,725.5 4699.83,725.5 4698.5,725.5C 4696.57,715.414 4690.57,711.581 4680.5,714C 4670.77,720.627 4666.94,729.793 4669,741.5C 4682.07,729.094 4694.41,729.76 4706,743.5C 4713.25,759.012 4710.08,771.845 4696.5,782C 4678.21,787.604 4666.04,781.438 4660,763.5C 4658.69,753.862 4658.35,744.196 4659,734.5C 4659.93,725.478 4663.43,717.645 4669.5,711C 4679.08,704.48 4689.08,703.814 4699.5,709C 4704.04,712.025 4706.7,716.191 4707.5,721.5 Z"/></g>
<g><path style="opacity:1" fill="#ff0905" d="M 4781.5,706.5 C 4783.83,706.5 4786.17,706.5 4788.5,706.5C 4788.17,723.009 4788.5,739.342 4789.5,755.5C 4792.83,755.5 4796.17,755.5 4799.5,755.5C 4799.5,758.5 4799.5,761.5 4799.5,764.5C 4796.17,764.5 4792.83,764.5 4789.5,764.5C 4788.51,770.31 4788.18,776.31 4788.5,782.5C 4785.83,782.5 4783.17,782.5 4780.5,782.5C 4780.82,776.31 4780.49,770.31 4779.5,764.5C 4768.5,764.5 4757.5,764.5 4746.5,764.5C 4746.33,761.15 4746.5,757.817 4747,754.5C 4758.36,738.319 4769.86,722.319 4781.5,706.5 Z"/></g>
<g><path style="opacity:1" fill="#ff4040" d="M 4781.5,706.5 C 4783.95,705.527 4786.61,705.194 4789.5,705.5C 4789.5,722.167 4789.5,738.833 4789.5,755.5C 4788.5,739.342 4788.17,723.009 4788.5,706.5C 4786.17,706.5 4783.83,706.5 4781.5,706.5 Z"/></g>
<g><path style="opacity:1" fill="#ff0e07" d="M 3900.5,775.5 C 3912.66,776.495 3924.99,776.829 3937.5,776.5C 3937.5,779.167 3937.5,781.833 3937.5,784.5C 3920.83,784.5 3904.17,784.5 3887.5,784.5C 3887.5,783.167 3887.5,781.833 3887.5,780.5C 3887.76,777.984 3888.59,775.65 3890,773.5C 3892.33,770.5 3894.67,767.5 3897,764.5C 3905.63,757.539 3913.96,750.205 3922,742.5C 3926.92,737.062 3928.59,730.729 3927,723.5C 3922.52,716.114 3916.02,713.614 3907.5,716C 3901.42,718.913 3898.42,723.746 3898.5,730.5C 3896.5,730.5 3894.5,730.5 3892.5,730.5C 3891.79,729.596 3890.79,729.263 3889.5,729.5C 3889.5,728.167 3889.5,726.833 3889.5,725.5C 3892.54,713.293 3900.38,707.293 3913,707.5C 3931.06,708.225 3939.06,717.558 3937,735.5C 3934,742.169 3929.83,748.002 3924.5,753C 3919.12,758.044 3913.46,762.711 3907.5,767C 3904.58,769.416 3902.24,772.25 3900.5,775.5 Z"/></g>
<g><path style="opacity:1" fill="#ff0b05" d="M 1573.5,785.5 C 1573.67,765.497 1573.5,745.497 1573,725.5C 1572.28,726.044 1571.78,726.711 1571.5,727.5C 1566.49,731.009 1561.15,734.009 1555.5,736.5C 1554.35,733.554 1554.18,730.554 1555,727.5C 1563.69,723.145 1570.86,716.979 1576.5,709C 1578.47,708.505 1580.47,708.338 1582.5,708.5C 1582.5,734.5 1582.5,760.5 1582.5,786.5C 1579.29,786.81 1576.29,786.477 1573.5,785.5 Z"/></g>
<g><path style="opacity:1" fill="#ff130b" d="M 1655.5,708.5 C 1668.28,706.057 1677.78,710.391 1684,721.5C 1686.95,731.743 1683.79,739.243 1674.5,744C 1688.78,751.862 1691.95,763.028 1684,777.5C 1680.91,781.928 1676.74,784.761 1671.5,786C 1648.22,790.319 1637.06,780.819 1638,757.5C 1639.83,750.333 1644.33,745.833 1651.5,744C 1639.95,737.463 1637.45,728.296 1644,716.5C 1647.15,712.689 1650.98,710.023 1655.5,708.5 Z"/></g>
<g><path style="opacity:1" fill="#ff4d4a" d="M 3987.5,709.5 C 4000.32,708.505 4013.32,708.171 4026.5,708.5C 4026.81,711.713 4026.48,714.713 4025.5,717.5C 4025.5,714.833 4025.5,712.167 4025.5,709.5C 4012.83,709.5 4000.17,709.5 3987.5,709.5 Z"/></g>
<g><path style="opacity:1" fill="#ff0a05" d="M 3345.5,709.5 C 3347.83,709.5 3350.17,709.5 3352.5,709.5C 3352.17,726.009 3352.5,742.342 3353.5,758.5C 3356.83,758.5 3360.17,758.5 3363.5,758.5C 3363.5,761.5 3363.5,764.5 3363.5,767.5C 3360.17,767.5 3356.83,767.5 3353.5,767.5C 3352.51,773.31 3352.18,779.31 3352.5,785.5C 3349.83,785.5 3347.17,785.5 3344.5,785.5C 3344.82,779.31 3344.49,773.31 3343.5,767.5C 3332.5,767.5 3321.5,767.5 3310.5,767.5C 3310.33,764.15 3310.5,760.817 3311,757.5C 3322.36,741.319 3333.86,725.319 3345.5,709.5 Z"/></g>
<g><path style="opacity:1" fill="#ff4040" d="M 3345.5,709.5 C 3347.95,708.527 3350.61,708.194 3353.5,708.5C 3353.5,725.167 3353.5,741.833 3353.5,758.5C 3352.5,742.342 3352.17,726.009 3352.5,709.5C 3350.17,709.5 3347.83,709.5 3345.5,709.5 Z"/></g>
<g><path style="opacity:1" fill="#ff0f08" d="M 3987.5,709.5 C 4000.17,709.5 4012.83,709.5 4025.5,709.5C 4025.5,712.167 4025.5,714.833 4025.5,717.5C 4015.49,717.334 4005.49,717.5 3995.5,718C 3993.96,723.58 3992.62,729.247 3991.5,735C 3991.83,735.833 3992.17,736.667 3992.5,737.5C 4009.31,729.985 4021.47,734.652 4029,751.5C 4030.76,777.074 4018.93,788.241 3993.5,785C 3984.23,781.287 3979.23,774.454 3978.5,764.5C 3981.9,764.18 3985.23,764.513 3988.5,765.5C 3992.89,778.687 4001.22,781.854 4013.5,775C 4020.67,765.808 4021.17,756.308 4015,746.5C 4009.76,742.773 4003.92,741.607 3997.5,743C 3994.24,744.262 3991.58,746.262 3989.5,749C 3986.47,749.495 3983.47,749.329 3980.5,748.5C 3982.51,735.414 3984.85,722.414 3987.5,709.5 Z"/></g>
<g><path style="opacity:1" fill="#ff140c" d="M 3223.5,709.5 C 3240.17,709.5 3256.83,709.5 3273.5,709.5C 3273.66,712.187 3273.5,714.854 3273,717.5C 3256.34,737.49 3246.84,760.49 3244.5,786.5C 3241.17,786.5 3237.83,786.5 3234.5,786.5C 3236.16,761.012 3245.16,738.512 3261.5,719C 3248.84,718.5 3236.17,718.333 3223.5,718.5C 3223.5,715.5 3223.5,712.5 3223.5,709.5 Z"/></g>
<g><path style="opacity:1" fill="#fffafa" d="M 1657.5,716.5 C 1664.33,715.051 1669.83,717.051 1674,722.5C 1676.68,735.154 1671.52,740.987 1658.5,740C 1651.03,736.88 1648.53,731.38 1651,723.5C 1652.69,720.642 1654.86,718.309 1657.5,716.5 Z"/></g>
<g><path style="opacity:1" fill="#ff4141" d="M 4778.5,722.5 C 4778.56,721.957 4778.89,721.624 4779.5,721.5C 4780.82,732.993 4780.82,744.326 4779.5,755.5C 4779.83,744.321 4779.49,733.321 4778.5,722.5 Z"/></g>
<g><path style="opacity:1" fill="#fffbfb" d="M 4778.5,722.5 C 4779.49,733.321 4779.83,744.321 4779.5,755.5C 4771.8,755.831 4764.14,755.497 4756.5,754.5C 4763.84,743.804 4771.18,733.138 4778.5,722.5 Z"/></g>
<g><path style="opacity:1" fill="#ff4241" d="M 3342.5,725.5 C 3342.56,724.957 3342.89,724.624 3343.5,724.5C 3344.82,735.993 3344.82,747.326 3343.5,758.5C 3343.83,747.321 3343.49,736.321 3342.5,725.5 Z"/></g>
<g><path style="opacity:1" fill="#ffaeab" d="M 4707.5,721.5 C 4708.43,722.568 4708.77,723.901 4708.5,725.5C 4706.5,725.5 4704.5,725.5 4702.5,725.5C 4703.92,724.549 4705.59,724.216 4707.5,724.5C 4707.5,723.5 4707.5,722.5 4707.5,721.5 Z"/></g>
<g><path style="opacity:1" fill="#ffbebd" d="M 1573.5,785.5 C 1572.83,766.167 1572.17,746.833 1571.5,727.5C 1571.78,726.711 1572.28,726.044 1573,725.5C 1573.5,745.497 1573.67,765.497 1573.5,785.5 Z"/></g>
<g><path style="opacity:1" fill="#fffbfb" d="M 3342.5,725.5 C 3343.49,736.321 3343.83,747.321 3343.5,758.5C 3335.8,758.831 3328.14,758.497 3320.5,757.5C 3327.84,746.804 3335.18,736.138 3342.5,725.5 Z"/></g>
<g><path style="opacity:1" fill="#ff7874" d="M 3889.5,725.5 C 3889.5,726.833 3889.5,728.167 3889.5,729.5C 3890.79,729.263 3891.79,729.596 3892.5,730.5C 3891.17,730.5 3889.83,730.5 3888.5,730.5C 3888.22,728.585 3888.55,726.919 3889.5,725.5 Z"/></g>
<g><path style="opacity:1" fill="#fffbfb" d="M 4679.5,741.5 C 4697.1,741.639 4703.27,750.306 4698,767.5C 4692.51,777.054 4685.01,778.887 4675.5,773C 4666.35,760.924 4667.69,750.424 4679.5,741.5 Z"/></g>
<g><path style="opacity:1" fill="#ff8584" d="M 2550.5,742.5 C 2550.29,744.179 2550.95,745.179 2552.5,745.5C 2551.79,746.404 2550.79,746.737 2549.5,746.5C 2549.23,744.901 2549.57,743.568 2550.5,742.5 Z"/></g>
<g><path style="opacity:1" fill="#fffbfb" d="M 1657.5,748.5 C 1674.32,747.498 1680.82,755.164 1677,771.5C 1670.79,779.829 1662.95,781.662 1653.5,777C 1647.94,771.636 1646.11,765.136 1648,757.5C 1650.41,753.592 1653.57,750.592 1657.5,748.5 Z"/></g>
<g><path style="opacity:1" fill="#ff4846" d="M 4779.5,764.5 C 4780.49,770.31 4780.82,776.31 4780.5,782.5C 4783.17,782.5 4785.83,782.5 4788.5,782.5C 4788.18,776.31 4788.51,770.31 4789.5,764.5C 4789.5,770.833 4789.5,777.167 4789.5,783.5C 4786.17,783.5 4782.83,783.5 4779.5,783.5C 4779.5,777.167 4779.5,770.833 4779.5,764.5 Z"/></g>
<g><path style="opacity:1" fill="#ff4846" d="M 3343.5,767.5 C 3344.49,773.31 3344.82,779.31 3344.5,785.5C 3347.17,785.5 3349.83,785.5 3352.5,785.5C 3352.18,779.31 3352.51,773.31 3353.5,767.5C 3353.5,773.833 3353.5,780.167 3353.5,786.5C 3350.17,786.5 3346.83,786.5 3343.5,786.5C 3343.5,780.167 3343.5,773.833 3343.5,767.5 Z"/></g>
<g><path style="opacity:1" fill="#ff2013" d="M 2596.5,772.5 C 2600.17,772.5 2603.83,772.5 2607.5,772.5C 2607.5,776.167 2607.5,779.833 2607.5,783.5C 2603.83,783.5 2600.17,783.5 2596.5,783.5C 2596.5,779.833 2596.5,776.167 2596.5,772.5 Z"/></g>
<g><path style="opacity:1" fill="#ff2013" d="M 4724.5,772.5 C 4728.17,772.5 4731.83,772.5 4735.5,772.5C 4735.5,776.167 4735.5,779.833 4735.5,783.5C 4731.83,783.5 4728.17,783.5 4724.5,783.5C 4724.5,779.833 4724.5,776.167 4724.5,772.5 Z"/></g>
<g><path style="opacity:1" fill="#ff2013" d="M 3953.5,774.5 C 3957.17,774.5 3960.83,774.5 3964.5,774.5C 3964.5,778.167 3964.5,781.833 3964.5,785.5C 3960.83,785.5 3957.17,785.5 3953.5,785.5C 3953.5,781.833 3953.5,778.167 3953.5,774.5 Z"/></g>
<g><path style="opacity:1" fill="#ff2013" d="M 1612.5,775.5 C 1616.17,775.5 1619.83,775.5 1623.5,775.5C 1623.5,779.167 1623.5,782.833 1623.5,786.5C 1619.83,786.5 1616.17,786.5 1612.5,786.5C 1612.5,782.833 1612.5,779.167 1612.5,775.5 Z"/></g>
<g><path style="opacity:1" fill="#ff2013" d="M 3288.5,775.5 C 3292.17,775.5 3295.83,775.5 3299.5,775.5C 3299.5,779.167 3299.5,782.833 3299.5,786.5C 3295.83,786.5 3292.17,786.5 3288.5,786.5C 3288.5,782.833 3288.5,779.167 3288.5,775.5 Z"/></g>
<g><path style="opacity:1" fill="#ff6c6a" d="M 3900.5,775.5 C 3913.17,775.5 3925.83,775.5 3938.5,775.5C 3938.81,778.713 3938.48,781.713 3937.5,784.5C 3937.5,781.833 3937.5,779.167 3937.5,776.5C 3924.99,776.829 3912.66,776.495 3900.5,775.5 Z"/></g>
<g><path style="opacity:1" fill="#ff7d7d" d="M 3887.5,780.5 C 3887.5,781.833 3887.5,783.167 3887.5,784.5C 3904.17,784.5 3920.83,784.5 3937.5,784.5C 3920.67,785.497 3903.67,785.83 3886.5,785.5C 3886.22,783.585 3886.55,781.919 3887.5,780.5 Z"/></g>
</svg>
