<?xml version="1.0" encoding="UTF-8"?>
<!DOCTYPE svg PUBLIC "-//W3C//DTD SVG 1.1//EN" "http://www.w3.org/Graphics/SVG/1.1/DTD/svg11.dtd">
<svg xmlns="http://www.w3.org/2000/svg" version="1.1" width="5416px" height="804px" style="shape-rendering:geometricPrecision; text-rendering:geometricPrecision; image-rendering:optimizeQuality; fill-rule:evenodd; clip-rule:evenodd" xmlns:xlink="http://www.w3.org/1999/xlink">
<g><path style="opacity:1" fill="#fefefe" d="M -0.5,-0.5 C 1804.83,-0.5 3610.17,-0.5 5415.5,-0.5C 5415.5,267.5 5415.5,535.5 5415.5,803.5C 3610.17,803.5 1804.83,803.5 -0.5,803.5C -0.5,535.5 -0.5,267.5 -0.5,-0.5 Z"/></g>
<g><path style="opacity:1" fill="#0e0e0e" d="M 819.5,1.5 C 821.199,1.33982 822.866,1.50649 824.5,2C 809.835,27.3127 809.835,52.646 824.5,78C 821.975,78.8959 819.808,78.3959 818,76.5C 800.84,51.0492 801.34,26.0492 819.5,1.5 Z"/></g>
<g><path style="opacity:1" fill="#0f0f0f" d="M 945.5,1.5 C 947.199,1.33982 948.866,1.50649 950.5,2C 968.99,27.0083 969.156,52.175 951,77.5C 949.186,78.7596 947.353,78.7596 945.5,77.5C 960.139,52.1203 960.139,26.787 945.5,1.5 Z"/></g>
<g><path style="opacity:1" fill="#0d0d0d" d="M 845.5,17.5 C 857.553,15.3459 865.219,20.0126 868.5,31.5C 866.143,31.6633 863.81,31.4966 861.5,31C 858.176,23.8894 852.842,21.8894 845.5,25C 844,26.5 842.5,28 841,29.5C 839.473,35.4149 839.139,41.4149 840,47.5C 843.896,56.8763 850.229,58.8763 859,53.5C 860.411,51.3496 861.245,49.0163 861.5,46.5C 863.833,46.5 866.167,46.5 868.5,46.5C 868.006,54.8316 863.673,59.9982 855.5,62C 842.008,63.8322 834.175,57.9989 832,44.5C 830.168,32.1639 834.668,23.1639 845.5,17.5 Z"/></g>
<g><path style="opacity:1" fill="#0f0f0f" d="M 889.5,17.5 C 897.045,15.8639 902.878,18.1973 907,24.5C 912.946,17.1361 920.112,15.6361 928.5,20C 930.617,21.7309 932.117,23.8976 933,26.5C 933.5,38.1619 933.667,49.8286 933.5,61.5C 931.167,61.5 928.833,61.5 926.5,61.5C 926.667,50.8281 926.5,40.1615 926,29.5C 922.609,22.956 917.776,21.7893 911.5,26C 909.959,27.5793 908.792,29.4127 908,31.5C 907.5,41.4944 907.334,51.4944 907.5,61.5C 905.167,61.5 902.833,61.5 900.5,61.5C 900.667,50.495 900.5,39.495 900,28.5C 896.987,23.4648 892.82,22.2981 887.5,25C 885.622,26.5429 884.122,28.3762 883,30.5C 882.5,40.828 882.334,51.1613 882.5,61.5C 879.833,61.5 877.167,61.5 874.5,61.5C 874.5,47.1667 874.5,32.8333 874.5,18.5C 876.833,18.5 879.167,18.5 881.5,18.5C 881.34,20.1992 881.506,21.8659 882,23.5C 884.478,21.3606 886.978,19.3606 889.5,17.5 Z"/></g>
<g><path style="opacity:1" fill="#2d2d2d" d="M 765.5,20.5 C 776.701,18.846 783.534,23.5126 786,34.5C 786.822,42.5548 786.488,50.5548 785,58.5C 780.443,69.02 772.943,71.8533 762.5,67C 758.87,63.2382 756.703,58.7382 756,53.5C 755.333,46.8333 755.333,40.1667 756,33.5C 757.723,28.0298 760.89,23.6965 765.5,20.5 Z"/></g>
<g><path style="opacity:1" fill="#2a2a2a" d="M 1384.5,20.5 C 1385.83,20.5 1387.17,20.5 1388.5,20.5C 1388.5,36.5 1388.5,52.5 1388.5,68.5C 1386.5,68.5 1384.5,68.5 1382.5,68.5C 1382.67,56.1622 1382.5,43.8288 1382,31.5C 1378.48,34.2086 1374.65,36.2086 1370.5,37.5C 1370.34,35.8008 1370.51,34.1341 1371,32.5C 1376.69,29.7542 1381.19,25.7542 1384.5,20.5 Z"/></g>
<g><path style="opacity:1" fill="#2d2d2d" d="M 1413.5,20.5 C 1424.7,18.846 1431.53,23.5126 1434,34.5C 1434.82,42.5548 1434.49,50.5548 1433,58.5C 1428.44,69.02 1420.94,71.8533 1410.5,67C 1406.87,63.2382 1404.7,58.7382 1404,53.5C 1403.33,46.8333 1403.33,40.1667 1404,33.5C 1405.72,28.0298 1408.89,23.6965 1413.5,20.5 Z"/></g>
<g><path style="opacity:1" fill="#2d2d2d" d="M 1450.5,20.5 C 1461.7,18.846 1468.53,23.5126 1471,34.5C 1471.82,42.5548 1471.49,50.5548 1470,58.5C 1465.44,69.02 1457.94,71.8533 1447.5,67C 1443.87,63.2382 1441.7,58.7382 1441,53.5C 1440.33,46.8333 1440.33,40.1667 1441,33.5C 1442.72,28.0298 1445.89,23.6965 1450.5,20.5 Z"/></g>
<g><path style="opacity:1" fill="#2f2f2f" d="M 2024.5,20.5 C 2035.88,18.5098 2042.88,23.0098 2045.5,34C 2044.59,37.7126 2043.09,41.2126 2041,44.5C 2034.66,50.0108 2028.49,55.6774 2022.5,61.5C 2030.14,62.4975 2037.8,62.8308 2045.5,62.5C 2045.5,64.5 2045.5,66.5 2045.5,68.5C 2034.83,68.5 2024.17,68.5 2013.5,68.5C 2013.46,65.5755 2014.29,62.9088 2016,60.5C 2022.36,53.8014 2029.03,47.4681 2036,41.5C 2042.16,32.858 2040.16,27.5247 2030,25.5C 2024.43,25.8973 2021.27,28.8973 2020.5,34.5C 2018.5,34.5 2016.5,34.5 2014.5,34.5C 2015.14,27.8682 2018.47,23.2016 2024.5,20.5 Z"/></g>
<g><path style="opacity:1" fill="#2d2d2d" d="M 2061.5,20.5 C 2072.7,18.846 2079.53,23.5126 2082,34.5C 2082.82,42.5548 2082.49,50.5548 2081,58.5C 2076.44,69.02 2068.94,71.8533 2058.5,67C 2054.87,63.2382 2052.7,58.7382 2052,53.5C 2051.33,46.8333 2051.33,40.1667 2052,33.5C 2053.72,28.0298 2056.89,23.6965 2061.5,20.5 Z"/></g>
<g><path style="opacity:1" fill="#2d2d2d" d="M 2098.5,20.5 C 2109.7,18.846 2116.53,23.5126 2119,34.5C 2119.82,42.5548 2119.49,50.5548 2118,58.5C 2113.44,69.02 2105.94,71.8533 2095.5,67C 2091.87,63.2382 2089.7,58.7382 2089,53.5C 2088.33,46.8333 2088.33,40.1667 2089,33.5C 2090.72,28.0298 2093.89,23.6965 2098.5,20.5 Z"/></g>
<g><path style="opacity:1" fill="#2f2f2f" d="M 2672.5,20.5 C 2685.17,18.6817 2691.34,24.015 2691,36.5C 2689.69,38.6414 2688.19,40.6414 2686.5,42.5C 2694.68,48.9434 2695.68,56.4434 2689.5,65C 2679.72,71.9901 2671.22,70.8235 2664,61.5C 2663.19,59.5643 2662.69,57.5643 2662.5,55.5C 2666.75,54.7304 2669.25,56.3971 2670,60.5C 2676.46,66.2914 2682.12,65.6247 2687,58.5C 2688.49,48.8216 2684.32,44.4882 2674.5,45.5C 2674.5,43.8333 2674.5,42.1667 2674.5,40.5C 2682.64,41.0463 2686.14,37.3797 2685,29.5C 2678.26,23.448 2672.76,24.448 2668.5,32.5C 2664.39,34.2298 2662.89,32.8965 2664,28.5C 2666.07,24.9231 2668.91,22.2565 2672.5,20.5 Z"/></g>
<g><path style="opacity:1" fill="#2d2d2d" d="M 2709.5,20.5 C 2720.7,18.846 2727.53,23.5126 2730,34.5C 2730.82,42.5548 2730.49,50.5548 2729,58.5C 2724.44,69.02 2716.94,71.8533 2706.5,67C 2702.87,63.2382 2700.7,58.7382 2700,53.5C 2699.33,46.8333 2699.33,40.1667 2700,33.5C 2701.72,28.0298 2704.89,23.6965 2709.5,20.5 Z"/></g>
<g><path style="opacity:1" fill="#2d2d2d" d="M 2746.5,20.5 C 2757.7,18.846 2764.53,23.5126 2767,34.5C 2767.82,42.5548 2767.49,50.5548 2766,58.5C 2761.44,69.02 2753.94,71.8533 2743.5,67C 2739.87,63.2382 2737.7,58.7382 2737,53.5C 2736.33,46.8333 2736.33,40.1667 2737,33.5C 2738.72,28.0298 2741.89,23.6965 2746.5,20.5 Z"/></g>
<g><path style="opacity:1" fill="#2d2d2d" d="M 3357.5,20.5 C 3368.7,18.846 3375.53,23.5126 3378,34.5C 3378.82,42.5548 3378.49,50.5548 3377,58.5C 3372.44,69.02 3364.94,71.8533 3354.5,67C 3350.87,63.2382 3348.7,58.7382 3348,53.5C 3347.33,46.8333 3347.33,40.1667 3348,33.5C 3349.72,28.0298 3352.89,23.6965 3357.5,20.5 Z"/></g>
<g><path style="opacity:1" fill="#2d2d2d" d="M 3394.5,20.5 C 3405.7,18.846 3412.53,23.5126 3415,34.5C 3415.82,42.5548 3415.49,50.5548 3414,58.5C 3409.44,69.02 3401.94,71.8533 3391.5,67C 3387.87,63.2382 3385.7,58.7382 3385,53.5C 3384.33,46.8333 3384.33,40.1667 3385,33.5C 3386.72,28.0298 3389.89,23.6965 3394.5,20.5 Z"/></g>
<g><path style="opacity:1" fill="#2d2d2d" d="M 4005.5,20.5 C 4016.7,18.846 4023.53,23.5126 4026,34.5C 4026.82,42.5548 4026.49,50.5548 4025,58.5C 4020.44,69.02 4012.94,71.8533 4002.5,67C 3998.87,63.2382 3996.7,58.7382 3996,53.5C 3995.33,46.8333 3995.33,40.1667 3996,33.5C 3997.72,28.0298 4000.89,23.6965 4005.5,20.5 Z"/></g>
<g><path style="opacity:1" fill="#2d2d2d" d="M 4042.5,20.5 C 4053.7,18.846 4060.53,23.5126 4063,34.5C 4063.82,42.5548 4063.49,50.5548 4062,58.5C 4057.44,69.02 4049.94,71.8533 4039.5,67C 4035.87,63.2382 4033.7,58.7382 4033,53.5C 4032.33,46.8333 4032.33,40.1667 4033,33.5C 4034.72,28.0298 4037.89,23.6965 4042.5,20.5 Z"/></g>
<g><path style="opacity:1" fill="#2c2c2c" d="M 4617.5,20.5 C 4628.03,18.2478 4634.36,22.2478 4636.5,32.5C 4634.5,32.5 4632.5,32.5 4630.5,32.5C 4630.53,30.4176 4629.86,28.5843 4628.5,27C 4620.92,23.4257 4615.75,25.5924 4613,33.5C 4611.79,36.7675 4611.45,40.1008 4612,43.5C 4617.53,37.043 4624.03,35.8764 4631.5,40C 4639.13,48.3211 4639.47,56.9878 4632.5,66C 4620.46,72.2284 4611.96,69.0618 4607,56.5C 4606.33,49.1667 4606.33,41.8333 4607,34.5C 4608.84,28.4294 4612.34,23.7627 4617.5,20.5 Z"/></g>
<g><path style="opacity:1" fill="#2d2d2d" d="M 4653.5,20.5 C 4664.7,18.846 4671.53,23.5126 4674,34.5C 4674.82,42.5548 4674.49,50.5548 4673,58.5C 4668.44,69.02 4660.94,71.8533 4650.5,67C 4646.87,63.2382 4644.7,58.7382 4644,53.5C 4643.33,46.8333 4643.33,40.1667 4644,33.5C 4645.72,28.0298 4648.89,23.6965 4653.5,20.5 Z"/></g>
<g><path style="opacity:1" fill="#2d2d2d" d="M 4690.5,20.5 C 4701.7,18.846 4708.53,23.5126 4711,34.5C 4711.82,42.5548 4711.49,50.5548 4710,58.5C 4705.44,69.02 4697.94,71.8533 4687.5,67C 4683.87,63.2382 4681.7,58.7382 4681,53.5C 4680.33,46.8333 4680.33,40.1667 4681,33.5C 4682.72,28.0298 4685.89,23.6965 4690.5,20.5 Z"/></g>
<g><path style="opacity:1" fill="#2d2d2d" d="M 5301.5,20.5 C 5312.7,18.846 5319.53,23.5126 5322,34.5C 5322.82,42.5548 5322.49,50.5548 5321,58.5C 5316.44,69.02 5308.94,71.8533 5298.5,67C 5294.87,63.2382 5292.7,58.7382 5292,53.5C 5291.33,46.8333 5291.33,40.1667 5292,33.5C 5293.72,28.0298 5296.89,23.6965 5301.5,20.5 Z"/></g>
<g><path style="opacity:1" fill="#2d2d2d" d="M 5338.5,20.5 C 5349.7,18.846 5356.53,23.5126 5359,34.5C 5359.82,42.5548 5359.49,50.5548 5358,58.5C 5353.44,69.02 5345.94,71.8533 5335.5,67C 5331.87,63.2382 5329.7,58.7382 5329,53.5C 5328.33,46.8333 5328.33,40.1667 5329,33.5C 5330.72,28.0298 5333.89,23.6965 5338.5,20.5 Z"/></g>
<g><path style="opacity:1" fill="#2f2f2f" d="M 3329.5,68.5 C 3329.5,64.5 3329.5,60.5 3329.5,56.5C 3322.5,56.5 3315.5,56.5 3308.5,56.5C 3308.34,54.4727 3308.5,52.4727 3309,50.5C 3316.03,40.9721 3322.86,31.3054 3329.5,21.5C 3331.4,20.5344 3333.4,20.2011 3335.5,20.5C 3335.5,30.8333 3335.5,41.1667 3335.5,51.5C 3337.5,51.5 3339.5,51.5 3341.5,51.5C 3341.5,53.5 3341.5,55.5 3341.5,57.5C 3339.5,57.5 3337.5,57.5 3335.5,57.5C 3335.5,61.1667 3335.5,64.8333 3335.5,68.5C 3333.5,68.5 3331.5,68.5 3329.5,68.5 Z"/></g>
<g><path style="opacity:1" fill="#2d2d2d" d="M 3963.5,21.5 C 3971.5,21.5 3979.5,21.5 3987.5,21.5C 3987.5,23.1667 3987.5,24.8333 3987.5,26.5C 3981.13,26.1703 3974.8,26.5037 3968.5,27.5C 3967.56,31.3743 3966.56,35.2076 3965.5,39C 3978.59,33.5433 3986.92,37.71 3990.5,51.5C 3988.88,64.6306 3981.54,70.464 3968.5,69C 3962.28,66.6195 3958.95,62.1195 3958.5,55.5C 3960.5,55.5 3962.5,55.5 3964.5,55.5C 3967.25,64.8762 3972.75,66.8762 3981,61.5C 3983.85,56.3201 3984.18,50.9868 3982,45.5C 3976.24,40.1341 3970.74,40.3008 3965.5,46C 3963.53,46.4955 3961.53,46.6621 3959.5,46.5C 3960.67,38.1388 3962.01,29.8054 3963.5,21.5 Z"/></g>
<g><path style="opacity:1" fill="#2c2c2c" d="M 5254.5,21.5 C 5264.83,21.5 5275.17,21.5 5285.5,21.5C 5284.03,27.4299 5281.2,32.7632 5277,37.5C 5271.31,47.0824 5268.14,57.4157 5267.5,68.5C 5265.5,68.5 5263.5,68.5 5261.5,68.5C 5262.51,53.1244 5267.85,39.4578 5277.5,27.5C 5269.86,26.5025 5262.2,26.1692 5254.5,26.5C 5254.5,24.8333 5254.5,23.1667 5254.5,21.5 Z"/></g>
<g><path style="opacity:1" fill="#fafafa" d="M 767.5,25.5 C 774.271,24.7587 778.437,27.7587 780,34.5C 780.856,42.2318 780.523,49.8984 779,57.5C 777.18,63.1614 773.347,65.3281 767.5,64C 764.246,61.6581 762.412,58.4915 762,54.5C 761.333,47.5 761.333,40.5 762,33.5C 763.117,30.2409 764.95,27.5743 767.5,25.5 Z"/></g>
<g><path style="opacity:1" fill="#fafafa" d="M 1415.5,25.5 C 1422.27,24.7587 1426.44,27.7587 1428,34.5C 1428.86,42.2318 1428.52,49.8984 1427,57.5C 1425.18,63.1614 1421.35,65.3281 1415.5,64C 1412.25,61.6581 1410.41,58.4915 1410,54.5C 1409.33,47.5 1409.33,40.5 1410,33.5C 1411.12,30.2409 1412.95,27.5743 1415.5,25.5 Z"/></g>
<g><path style="opacity:1" fill="#fafafa" d="M 1452.5,25.5 C 1459.27,24.7587 1463.44,27.7587 1465,34.5C 1465.86,42.2318 1465.52,49.8984 1464,57.5C 1462.18,63.1614 1458.35,65.3281 1452.5,64C 1449.25,61.6581 1447.41,58.4915 1447,54.5C 1446.33,47.5 1446.33,40.5 1447,33.5C 1448.12,30.2409 1449.95,27.5743 1452.5,25.5 Z"/></g>
<g><path style="opacity:1" fill="#fafafa" d="M 2063.5,25.5 C 2070.27,24.7587 2074.44,27.7587 2076,34.5C 2076.86,42.2318 2076.52,49.8984 2075,57.5C 2073.18,63.1614 2069.35,65.3281 2063.5,64C 2060.25,61.6581 2058.41,58.4915 2058,54.5C 2057.33,47.5 2057.33,40.5 2058,33.5C 2059.12,30.2409 2060.95,27.5743 2063.5,25.5 Z"/></g>
<g><path style="opacity:1" fill="#fafafa" d="M 2100.5,25.5 C 2107.27,24.7587 2111.44,27.7587 2113,34.5C 2113.86,42.2318 2113.52,49.8984 2112,57.5C 2110.18,63.1614 2106.35,65.3281 2100.5,64C 2097.25,61.6581 2095.41,58.4915 2095,54.5C 2094.33,47.5 2094.33,40.5 2095,33.5C 2096.12,30.2409 2097.95,27.5743 2100.5,25.5 Z"/></g>
<g><path style="opacity:1" fill="#fafafa" d="M 2711.5,25.5 C 2718.27,24.7587 2722.44,27.7587 2724,34.5C 2724.86,42.2318 2724.52,49.8984 2723,57.5C 2721.18,63.1614 2717.35,65.3281 2711.5,64C 2708.25,61.6581 2706.41,58.4915 2706,54.5C 2705.33,47.5 2705.33,40.5 2706,33.5C 2707.12,30.2409 2708.95,27.5743 2711.5,25.5 Z"/></g>
<g><path style="opacity:1" fill="#fafafa" d="M 2748.5,25.5 C 2755.27,24.7587 2759.44,27.7587 2761,34.5C 2761.86,42.2318 2761.52,49.8984 2760,57.5C 2758.18,63.1614 2754.35,65.3281 2748.5,64C 2745.25,61.6581 2743.41,58.4915 2743,54.5C 2742.33,47.5 2742.33,40.5 2743,33.5C 2744.12,30.2409 2745.95,27.5743 2748.5,25.5 Z"/></g>
<g><path style="opacity:1" fill="#fafafa" d="M 3359.5,25.5 C 3366.27,24.7587 3370.44,27.7587 3372,34.5C 3372.86,42.2318 3372.52,49.8984 3371,57.5C 3369.18,63.1614 3365.35,65.3281 3359.5,64C 3356.25,61.6581 3354.41,58.4915 3354,54.5C 3353.33,47.5 3353.33,40.5 3354,33.5C 3355.12,30.2409 3356.95,27.5743 3359.5,25.5 Z"/></g>
<g><path style="opacity:1" fill="#fafafa" d="M 3396.5,25.5 C 3403.27,24.7587 3407.44,27.7587 3409,34.5C 3409.86,42.2318 3409.52,49.8984 3408,57.5C 3406.18,63.1614 3402.35,65.3281 3396.5,64C 3393.25,61.6581 3391.41,58.4915 3391,54.5C 3390.33,47.5 3390.33,40.5 3391,33.5C 3392.12,30.2409 3393.95,27.5743 3396.5,25.5 Z"/></g>
<g><path style="opacity:1" fill="#fafafa" d="M 4007.5,25.5 C 4014.27,24.7587 4018.44,27.7587 4020,34.5C 4020.86,42.2318 4020.52,49.8984 4019,57.5C 4017.18,63.1614 4013.35,65.3281 4007.5,64C 4004.25,61.6581 4002.41,58.4915 4002,54.5C 4001.33,47.5 4001.33,40.5 4002,33.5C 4003.12,30.2409 4004.95,27.5743 4007.5,25.5 Z"/></g>
<g><path style="opacity:1" fill="#fafafa" d="M 4044.5,25.5 C 4051.27,24.7587 4055.44,27.7587 4057,34.5C 4057.86,42.2318 4057.52,49.8984 4056,57.5C 4054.18,63.1614 4050.35,65.3281 4044.5,64C 4041.25,61.6581 4039.41,58.4915 4039,54.5C 4038.33,47.5 4038.33,40.5 4039,33.5C 4040.12,30.2409 4041.95,27.5743 4044.5,25.5 Z"/></g>
<g><path style="opacity:1" fill="#fafafa" d="M 4655.5,25.5 C 4662.27,24.7587 4666.44,27.7587 4668,34.5C 4668.86,42.2318 4668.52,49.8984 4667,57.5C 4665.18,63.1614 4661.35,65.3281 4655.5,64C 4652.25,61.6581 4650.41,58.4915 4650,54.5C 4649.33,47.5 4649.33,40.5 4650,33.5C 4651.12,30.2409 4652.95,27.5743 4655.5,25.5 Z"/></g>
<g><path style="opacity:1" fill="#fafafa" d="M 4692.5,25.5 C 4699.27,24.7587 4703.44,27.7587 4705,34.5C 4705.86,42.2318 4705.52,49.8984 4704,57.5C 4702.18,63.1614 4698.35,65.3281 4692.5,64C 4689.25,61.6581 4687.41,58.4915 4687,54.5C 4686.33,47.5 4686.33,40.5 4687,33.5C 4688.12,30.2409 4689.95,27.5743 4692.5,25.5 Z"/></g>
<g><path style="opacity:1" fill="#fafafa" d="M 5303.5,25.5 C 5310.27,24.7587 5314.44,27.7587 5316,34.5C 5316.86,42.2318 5316.52,49.8984 5315,57.5C 5313.18,63.1614 5309.35,65.3281 5303.5,64C 5300.25,61.6581 5298.41,58.4915 5298,54.5C 5297.33,47.5 5297.33,40.5 5298,33.5C 5299.12,30.2409 5300.95,27.5743 5303.5,25.5 Z"/></g>
<g><path style="opacity:1" fill="#fafafa" d="M 5340.5,25.5 C 5347.27,24.7587 5351.44,27.7587 5353,34.5C 5353.86,42.2318 5353.52,49.8984 5352,57.5C 5350.18,63.1614 5346.35,65.3281 5340.5,64C 5337.25,61.6581 5335.41,58.4915 5335,54.5C 5334.33,47.5 5334.33,40.5 5335,33.5C 5336.12,30.2409 5337.95,27.5743 5340.5,25.5 Z"/></g>
<g><path style="opacity:1" fill="#f2f2f2" d="M 3328.5,30.5 C 3329.49,37.3134 3329.82,44.3134 3329.5,51.5C 3324.49,51.6659 3319.49,51.4993 3314.5,51C 3319.39,44.2859 3324.05,37.4526 3328.5,30.5 Z"/></g>
<g><path style="opacity:1" fill="#f8f8f8" d="M 4618.5,42.5 C 4630.56,42.9276 4634.4,48.9276 4630,60.5C 4622.07,66.8942 4616.4,65.2276 4613,55.5C 4612.09,49.983 4613.93,45.6496 4618.5,42.5 Z"/></g>
<g><path style="opacity:1" fill="#8e8e8e" d="M 3308.5,56.5 C 3315.5,56.5 3322.5,56.5 3329.5,56.5C 3329.5,60.5 3329.5,64.5 3329.5,68.5C 3328.52,65.0381 3328.19,61.3714 3328.5,57.5C 3321.65,57.824 3314.98,57.4907 3308.5,56.5 Z"/></g>
<g><path style="opacity:1" fill="#777777" d="M 4333.5,94.5 C 3145.67,95.5 1957.67,95.8333 769.5,95.5C 769.5,286.167 769.5,476.833 769.5,667.5C 1957.67,667.167 3145.67,667.5 4333.5,668.5C 3145.17,668.5 1956.83,668.5 768.5,668.5C 768.5,477.167 768.5,285.833 768.5,94.5C 1956.83,94.5 3145.17,94.5 4333.5,94.5 Z"/></g>
<g><path style="opacity:1" fill="#353434" d="M 4333.5,94.5 C 4378.17,94.5 4422.83,94.5 4467.5,94.5C 4769.67,95.4998 5072,95.8331 5374.5,95.5C 5374.5,286.167 5374.5,476.833 5374.5,667.5C 5072,667.167 4769.67,667.5 4467.5,668.5C 4422.83,668.5 4378.17,668.5 4333.5,668.5C 3145.67,667.5 1957.67,667.167 769.5,667.5C 769.5,476.833 769.5,286.167 769.5,95.5C 1957.67,95.8333 3145.67,95.5 4333.5,94.5 Z"/></g>
<g><path style="opacity:1" fill="#777777" d="M 4467.5,94.5 C 4770.17,94.5 5072.83,94.5 5375.5,94.5C 5375.5,285.833 5375.5,477.167 5375.5,668.5C 5072.83,668.5 4770.17,668.5 4467.5,668.5C 4769.67,667.5 5072,667.167 5374.5,667.5C 5374.5,476.833 5374.5,286.167 5374.5,95.5C 5072,95.8331 4769.67,95.4998 4467.5,94.5 Z"/></g>
<g><path style="opacity:1" fill="#fefffe" d="M 1086.5,99.5 C 1086.5,287.5 1086.5,475.5 1086.5,663.5C 982.167,663.5 877.833,663.5 773.5,663.5C 773.5,475.5 773.5,287.5 773.5,99.5C 877.833,99.5 982.167,99.5 1086.5,99.5 Z"/></g>
<g><path style="opacity:1" fill="#0573bd" d="M 1086.5,99.5 C 1092.17,99.5 1097.83,99.5 1103.5,99.5C 1103.5,287.5 1103.5,475.5 1103.5,663.5C 1097.83,663.5 1092.17,663.5 1086.5,663.5C 1086.5,475.5 1086.5,287.5 1086.5,99.5 Z"/></g>
<g><path style="opacity:1" fill="#fefffe" d="M 1103.5,99.5 C 1205.83,99.5 1308.17,99.5 1410.5,99.5C 1410.5,287.5 1410.5,475.5 1410.5,663.5C 1308.17,663.5 1205.83,663.5 1103.5,663.5C 1103.5,475.5 1103.5,287.5 1103.5,99.5 Z"/></g>
<g><path style="opacity:1" fill="#0574bd" d="M 1410.5,99.5 C 1412.5,99.5 1414.5,99.5 1416.5,99.5C 1416.5,114.833 1416.5,130.167 1416.5,145.5C 1418.17,145.5 1419.83,145.5 1421.5,145.5C 1421.5,130.167 1421.5,114.833 1421.5,99.5C 1423.5,99.5 1425.5,99.5 1427.5,99.5C 1427.5,287.5 1427.5,475.5 1427.5,663.5C 1425.5,663.5 1423.5,663.5 1421.5,663.5C 1421.5,648.167 1421.5,632.833 1421.5,617.5C 1419.83,617.5 1418.17,617.5 1416.5,617.5C 1416.5,632.833 1416.5,648.167 1416.5,663.5C 1414.5,663.5 1412.5,663.5 1410.5,663.5C 1410.5,475.5 1410.5,287.5 1410.5,99.5 Z"/></g>
<g><path style="opacity:1" fill="#17425f" d="M 1416.5,99.5 C 1417.5,114.324 1417.83,129.324 1417.5,144.5C 1418.5,144.5 1419.5,144.5 1420.5,144.5C 1420.17,129.324 1420.5,114.324 1421.5,99.5C 1421.5,114.833 1421.5,130.167 1421.5,145.5C 1419.83,145.5 1418.17,145.5 1416.5,145.5C 1416.5,130.167 1416.5,114.833 1416.5,99.5 Z"/></g>
<g><path style="opacity:1" fill="#fefffe" d="M 1427.5,99.5 C 1529.83,99.5 1632.17,99.5 1734.5,99.5C 1734.5,287.5 1734.5,475.5 1734.5,663.5C 1632.17,663.5 1529.83,663.5 1427.5,663.5C 1427.5,475.5 1427.5,287.5 1427.5,99.5 Z"/></g>
<g><path style="opacity:1" fill="#0573bd" d="M 1734.5,99.5 C 1740.17,99.5 1745.83,99.5 1751.5,99.5C 1751.5,287.5 1751.5,475.5 1751.5,663.5C 1745.83,663.5 1740.17,663.5 1734.5,663.5C 1734.5,475.5 1734.5,287.5 1734.5,99.5 Z"/></g>
<g><path style="opacity:1" fill="#fefffe" d="M 1751.5,99.5 C 1853.83,99.5 1956.17,99.5 2058.5,99.5C 2058.5,287.5 2058.5,475.5 2058.5,663.5C 1956.17,663.5 1853.83,663.5 1751.5,663.5C 1751.5,475.5 1751.5,287.5 1751.5,99.5 Z"/></g>
<g><path style="opacity:1" fill="#0574bd" d="M 2058.5,99.5 C 2060.5,99.5 2062.5,99.5 2064.5,99.5C 2064.5,114.833 2064.5,130.167 2064.5,145.5C 2066.17,145.5 2067.83,145.5 2069.5,145.5C 2069.5,130.167 2069.5,114.833 2069.5,99.5C 2071.5,99.5 2073.5,99.5 2075.5,99.5C 2075.5,287.5 2075.5,475.5 2075.5,663.5C 2073.5,663.5 2071.5,663.5 2069.5,663.5C 2069.5,648.167 2069.5,632.833 2069.5,617.5C 2067.83,617.5 2066.17,617.5 2064.5,617.5C 2064.5,632.833 2064.5,648.167 2064.5,663.5C 2062.5,663.5 2060.5,663.5 2058.5,663.5C 2058.5,475.5 2058.5,287.5 2058.5,99.5 Z"/></g>
<g><path style="opacity:1" fill="#17425f" d="M 2064.5,99.5 C 2065.5,114.324 2065.83,129.324 2065.5,144.5C 2066.5,144.5 2067.5,144.5 2068.5,144.5C 2068.17,129.324 2068.5,114.324 2069.5,99.5C 2069.5,114.833 2069.5,130.167 2069.5,145.5C 2067.83,145.5 2066.17,145.5 2064.5,145.5C 2064.5,130.167 2064.5,114.833 2064.5,99.5 Z"/></g>
<g><path style="opacity:1" fill="#fefffe" d="M 2075.5,99.5 C 2178.17,99.5 2280.83,99.5 2383.5,99.5C 2383.5,287.5 2383.5,475.5 2383.5,663.5C 2280.83,663.5 2178.17,663.5 2075.5,663.5C 2075.5,475.5 2075.5,287.5 2075.5,99.5 Z"/></g>
<g><path style="opacity:1" fill="#0574bd" d="M 2383.5,99.5 C 2389.17,99.5 2394.83,99.5 2400.5,99.5C 2400.5,287.5 2400.5,475.5 2400.5,663.5C 2394.83,663.5 2389.17,663.5 2383.5,663.5C 2383.5,475.5 2383.5,287.5 2383.5,99.5 Z"/></g>
<g><path style="opacity:1" fill="#fefffe" d="M 2400.5,99.5 C 2502.83,99.5 2605.17,99.5 2707.5,99.5C 2707.5,287.5 2707.5,475.5 2707.5,663.5C 2605.17,663.5 2502.83,663.5 2400.5,663.5C 2400.5,475.5 2400.5,287.5 2400.5,99.5 Z"/></g>
<g><path style="opacity:1" fill="#d9551c" d="M 2707.5,99.5 C 2709.5,99.5 2711.5,99.5 2713.5,99.5C 2713.5,114.833 2713.5,130.167 2713.5,145.5C 2715.17,145.5 2716.83,145.5 2718.5,145.5C 2718.5,130.167 2718.5,114.833 2718.5,99.5C 2720.5,99.5 2722.5,99.5 2724.5,99.5C 2724.5,287.5 2724.5,475.5 2724.5,663.5C 2722.5,663.5 2720.5,663.5 2718.5,663.5C 2718.5,648.167 2718.5,632.833 2718.5,617.5C 2716.83,617.5 2715.17,617.5 2713.5,617.5C 2713.5,632.833 2713.5,648.167 2713.5,663.5C 2711.5,663.5 2709.5,663.5 2707.5,663.5C 2707.5,475.5 2707.5,287.5 2707.5,99.5 Z"/></g>
<g><path style="opacity:1" fill="#693720" d="M 2713.5,99.5 C 2714.5,114.324 2714.83,129.324 2714.5,144.5C 2715.5,144.5 2716.5,144.5 2717.5,144.5C 2717.17,129.324 2717.5,114.324 2718.5,99.5C 2718.5,114.833 2718.5,130.167 2718.5,145.5C 2716.83,145.5 2715.17,145.5 2713.5,145.5C 2713.5,130.167 2713.5,114.833 2713.5,99.5 Z"/></g>
<g><path style="opacity:1" fill="#fefffe" d="M 2724.5,99.5 C 2783.5,99.5 2842.5,99.5 2901.5,99.5C 2901.5,287.5 2901.5,475.5 2901.5,663.5C 2842.5,663.5 2783.5,663.5 2724.5,663.5C 2724.5,475.5 2724.5,287.5 2724.5,99.5 Z"/></g>
<g><path style="opacity:1" fill="#d9551c" d="M 2901.5,99.5 C 2907.17,99.5 2912.83,99.5 2918.5,99.5C 2918.5,287.5 2918.5,475.5 2918.5,663.5C 2912.83,663.5 2907.17,663.5 2901.5,663.5C 2901.5,475.5 2901.5,287.5 2901.5,99.5 Z"/></g>
<g><path style="opacity:1" fill="#fefffe" d="M 2918.5,99.5 C 2977.5,99.5 3036.5,99.5 3095.5,99.5C 3095.5,287.5 3095.5,475.5 3095.5,663.5C 3036.5,663.5 2977.5,663.5 2918.5,663.5C 2918.5,475.5 2918.5,287.5 2918.5,99.5 Z"/></g>
<g><path style="opacity:1" fill="#d9551c" d="M 3095.5,99.5 C 3101.17,99.5 3106.83,99.5 3112.5,99.5C 3112.5,287.5 3112.5,475.5 3112.5,663.5C 3106.83,663.5 3101.17,663.5 3095.5,663.5C 3095.5,475.5 3095.5,287.5 3095.5,99.5 Z"/></g>
<g><path style="opacity:1" fill="#fefffe" d="M 3112.5,99.5 C 3171.83,99.5 3231.17,99.5 3290.5,99.5C 3290.5,287.5 3290.5,475.5 3290.5,663.5C 3231.17,663.5 3171.83,663.5 3112.5,663.5C 3112.5,475.5 3112.5,287.5 3112.5,99.5 Z"/></g>
<g><path style="opacity:1" fill="#d9551c" d="M 3290.5,99.5 C 3296.17,99.5 3301.83,99.5 3307.5,99.5C 3307.5,287.5 3307.5,475.5 3307.5,663.5C 3301.83,663.5 3296.17,663.5 3290.5,663.5C 3290.5,475.5 3290.5,287.5 3290.5,99.5 Z"/></g>
<g><path style="opacity:1" fill="#fefffe" d="M 3307.5,99.5 C 3325.5,99.5 3343.5,99.5 3361.5,99.5C 3361.5,114.833 3361.5,130.167 3361.5,145.5C 3363.17,145.5 3364.83,145.5 3366.5,145.5C 3366.5,130.167 3366.5,114.833 3366.5,99.5C 3405.83,99.5 3445.17,99.5 3484.5,99.5C 3484.5,287.5 3484.5,475.5 3484.5,663.5C 3445.17,663.5 3405.83,663.5 3366.5,663.5C 3366.5,648.167 3366.5,632.833 3366.5,617.5C 3364.83,617.5 3363.17,617.5 3361.5,617.5C 3361.5,632.833 3361.5,648.167 3361.5,663.5C 3343.5,663.5 3325.5,663.5 3307.5,663.5C 3307.5,475.5 3307.5,287.5 3307.5,99.5 Z"/></g>
<g><path style="opacity:1" fill="#777777" d="M 3361.5,99.5 C 3362.5,114.324 3362.83,129.324 3362.5,144.5C 3363.5,144.5 3364.5,144.5 3365.5,144.5C 3365.17,129.324 3365.5,114.324 3366.5,99.5C 3366.5,114.833 3366.5,130.167 3366.5,145.5C 3364.83,145.5 3363.17,145.5 3361.5,145.5C 3361.5,130.167 3361.5,114.833 3361.5,99.5 Z"/></g>
<g><path style="opacity:1" fill="#d9551c" d="M 3484.5,99.5 C 3490.17,99.5 3495.83,99.5 3501.5,99.5C 3501.5,287.5 3501.5,475.5 3501.5,663.5C 3495.83,663.5 3490.17,663.5 3484.5,663.5C 3484.5,475.5 3484.5,287.5 3484.5,99.5 Z"/></g>
<g><path style="opacity:1" fill="#fefffe" d="M 3501.5,99.5 C 3560.83,99.5 3620.17,99.5 3679.5,99.5C 3679.5,287.5 3679.5,475.5 3679.5,663.5C 3620.17,663.5 3560.83,663.5 3501.5,663.5C 3501.5,475.5 3501.5,287.5 3501.5,99.5 Z"/></g>
<g><path style="opacity:1" fill="#edb223" d="M 3679.5,99.5 C 3685.17,99.5 3690.83,99.5 3696.5,99.5C 3696.5,287.5 3696.5,475.5 3696.5,663.5C 3690.83,663.5 3685.17,663.5 3679.5,663.5C 3679.5,475.5 3679.5,287.5 3679.5,99.5 Z"/></g>
<g><path style="opacity:1" fill="#fefffe" d="M 3696.5,99.5 C 3712.17,99.5 3727.83,99.5 3743.5,99.5C 3743.5,287.5 3743.5,475.5 3743.5,663.5C 3727.83,663.5 3712.17,663.5 3696.5,663.5C 3696.5,475.5 3696.5,287.5 3696.5,99.5 Z"/></g>
<g><path style="opacity:1" fill="#edb223" d="M 3743.5,99.5 C 3749.17,99.5 3754.83,99.5 3760.5,99.5C 3760.5,287.5 3760.5,475.5 3760.5,663.5C 3754.83,663.5 3749.17,663.5 3743.5,663.5C 3743.5,475.5 3743.5,287.5 3743.5,99.5 Z"/></g>
<g><path style="opacity:1" fill="#fefffe" d="M 3760.5,99.5 C 3776.5,99.5 3792.5,99.5 3808.5,99.5C 3808.5,287.5 3808.5,475.5 3808.5,663.5C 3792.5,663.5 3776.5,663.5 3760.5,663.5C 3760.5,475.5 3760.5,287.5 3760.5,99.5 Z"/></g>
<g><path style="opacity:1" fill="#edb223" d="M 3808.5,99.5 C 3814.17,99.5 3819.83,99.5 3825.5,99.5C 3825.5,287.5 3825.5,475.5 3825.5,663.5C 3819.83,663.5 3814.17,663.5 3808.5,663.5C 3808.5,475.5 3808.5,287.5 3808.5,99.5 Z"/></g>
<g><path style="opacity:1" fill="#fefffe" d="M 3825.5,99.5 C 3841.5,99.5 3857.5,99.5 3873.5,99.5C 3873.5,287.5 3873.5,475.5 3873.5,663.5C 3857.5,663.5 3841.5,663.5 3825.5,663.5C 3825.5,475.5 3825.5,287.5 3825.5,99.5 Z"/></g>
<g><path style="opacity:1" fill="#edb223" d="M 3873.5,99.5 C 3879.17,99.5 3884.83,99.5 3890.5,99.5C 3890.5,287.5 3890.5,475.5 3890.5,663.5C 3884.83,663.5 3879.17,663.5 3873.5,663.5C 3873.5,475.5 3873.5,287.5 3873.5,99.5 Z"/></g>
<g><path style="opacity:1" fill="#fefffe" d="M 3890.5,99.5 C 3906.5,99.5 3922.5,99.5 3938.5,99.5C 3938.5,287.5 3938.5,475.5 3938.5,663.5C 3922.5,663.5 3906.5,663.5 3890.5,663.5C 3890.5,475.5 3890.5,287.5 3890.5,99.5 Z"/></g>
<g><path style="opacity:1" fill="#edb223" d="M 3938.5,99.5 C 3944.17,99.5 3949.83,99.5 3955.5,99.5C 3955.5,287.5 3955.5,475.5 3955.5,663.5C 3949.83,663.5 3944.17,663.5 3938.5,663.5C 3938.5,475.5 3938.5,287.5 3938.5,99.5 Z"/></g>
<g><path style="opacity:1" fill="#fefffe" d="M 3955.5,99.5 C 3971.5,99.5 3987.5,99.5 4003.5,99.5C 4003.5,287.5 4003.5,475.5 4003.5,663.5C 3987.5,663.5 3971.5,663.5 3955.5,663.5C 3955.5,475.5 3955.5,287.5 3955.5,99.5 Z"/></g>
<g><path style="opacity:1" fill="#edb223" d="M 4003.5,99.5 C 4005.5,99.5 4007.5,99.5 4009.5,99.5C 4009.5,114.833 4009.5,130.167 4009.5,145.5C 4011.17,145.5 4012.83,145.5 4014.5,145.5C 4014.5,130.167 4014.5,114.833 4014.5,99.5C 4016.5,99.5 4018.5,99.5 4020.5,99.5C 4020.5,287.5 4020.5,475.5 4020.5,663.5C 4018.5,663.5 4016.5,663.5 4014.5,663.5C 4014.5,648.167 4014.5,632.833 4014.5,617.5C 4012.83,617.5 4011.17,617.5 4009.5,617.5C 4009.5,632.833 4009.5,648.167 4009.5,663.5C 4007.5,663.5 4005.5,663.5 4003.5,663.5C 4003.5,475.5 4003.5,287.5 4003.5,99.5 Z"/></g>
<g><path style="opacity:1" fill="#715a24" d="M 4009.5,99.5 C 4010.5,114.324 4010.83,129.324 4010.5,144.5C 4011.5,144.5 4012.5,144.5 4013.5,144.5C 4013.17,129.324 4013.5,114.324 4014.5,99.5C 4014.5,114.833 4014.5,130.167 4014.5,145.5C 4012.83,145.5 4011.17,145.5 4009.5,145.5C 4009.5,130.167 4009.5,114.833 4009.5,99.5 Z"/></g>
<g><path style="opacity:1" fill="#fefffe" d="M 4020.5,99.5 C 4036.17,99.5 4051.83,99.5 4067.5,99.5C 4067.5,287.5 4067.5,475.5 4067.5,663.5C 4051.83,663.5 4036.17,663.5 4020.5,663.5C 4020.5,475.5 4020.5,287.5 4020.5,99.5 Z"/></g>
<g><path style="opacity:1" fill="#edb223" d="M 4067.5,99.5 C 4073.17,99.5 4078.83,99.5 4084.5,99.5C 4084.5,287.5 4084.5,475.5 4084.5,663.5C 4078.83,663.5 4073.17,663.5 4067.5,663.5C 4067.5,475.5 4067.5,287.5 4067.5,99.5 Z"/></g>
<g><path style="opacity:1" fill="#fefffe" d="M 4084.5,99.5 C 4167.5,99.5 4250.5,99.5 4333.5,99.5C 4333.5,287.5 4333.5,475.5 4333.5,663.5C 4250.5,663.5 4167.5,663.5 4084.5,663.5C 4084.5,475.5 4084.5,287.5 4084.5,99.5 Z"/></g>
<g><path style="opacity:1" fill="#000000" d="M 4466.5,346.5 C 4449.83,346.5 4433.17,346.5 4416.5,346.5C 4416.5,372.167 4416.5,397.833 4416.5,423.5C 4419.96,424.482 4423.63,424.815 4427.5,424.5C 4427.5,412.833 4427.5,401.167 4427.5,389.5C 4439.68,389.828 4451.68,389.495 4463.5,388.5C 4463.5,385.5 4463.5,382.5 4463.5,379.5C 4451.5,379.5 4439.5,379.5 4427.5,379.5C 4427.5,371.833 4427.5,364.167 4427.5,356.5C 4440.5,356.5 4453.5,356.5 4466.5,356.5C 4466.5,458.833 4466.5,561.167 4466.5,663.5C 4422.5,663.5 4378.5,663.5 4334.5,663.5C 4334.5,475.5 4334.5,287.5 4334.5,99.5C 4378.5,99.5 4422.5,99.5 4466.5,99.5C 4466.5,181.833 4466.5,264.167 4466.5,346.5 Z"/></g>
<g><path style="opacity:1" fill="#fefffe" d="M 4554.5,99.5 C 4554.5,287.5 4554.5,475.5 4554.5,663.5C 4525.5,663.5 4496.5,663.5 4467.5,663.5C 4467.5,561.167 4467.5,458.833 4467.5,356.5C 4467.5,356.167 4467.5,355.833 4467.5,355.5C 4468.83,352.5 4468.83,349.5 4467.5,346.5C 4467.5,264.167 4467.5,181.833 4467.5,99.5C 4496.5,99.5 4525.5,99.5 4554.5,99.5 Z"/></g>
<g><path style="opacity:1" fill="#7f328f" d="M 4554.5,99.5 C 4560.17,99.5 4565.83,99.5 4571.5,99.5C 4571.5,287.5 4571.5,475.5 4571.5,663.5C 4565.83,663.5 4560.17,663.5 4554.5,663.5C 4554.5,475.5 4554.5,287.5 4554.5,99.5 Z"/></g>
<g><path style="opacity:1" fill="#fefffe" d="M 4571.5,99.5 C 4598.17,99.5 4624.83,99.5 4651.5,99.5C 4651.5,287.5 4651.5,475.5 4651.5,663.5C 4624.83,663.5 4598.17,663.5 4571.5,663.5C 4571.5,475.5 4571.5,287.5 4571.5,99.5 Z"/></g>
<g><path style="opacity:1" fill="#7f328f" d="M 4651.5,99.5 C 4653.5,99.5 4655.5,99.5 4657.5,99.5C 4657.5,114.833 4657.5,130.167 4657.5,145.5C 4659.17,145.5 4660.83,145.5 4662.5,145.5C 4662.5,130.167 4662.5,114.833 4662.5,99.5C 4664.5,99.5 4666.5,99.5 4668.5,99.5C 4668.5,287.5 4668.5,475.5 4668.5,663.5C 4666.5,663.5 4664.5,663.5 4662.5,663.5C 4662.5,648.167 4662.5,632.833 4662.5,617.5C 4660.83,617.5 4659.17,617.5 4657.5,617.5C 4657.5,632.833 4657.5,648.167 4657.5,663.5C 4655.5,663.5 4653.5,663.5 4651.5,663.5C 4651.5,475.5 4651.5,287.5 4651.5,99.5 Z"/></g>
<g><path style="opacity:1" fill="#47294d" d="M 4657.5,99.5 C 4658.5,114.324 4658.83,129.324 4658.5,144.5C 4659.5,144.5 4660.5,144.5 4661.5,144.5C 4661.17,129.324 4661.5,114.324 4662.5,99.5C 4662.5,114.833 4662.5,130.167 4662.5,145.5C 4660.83,145.5 4659.17,145.5 4657.5,145.5C 4657.5,130.167 4657.5,114.833 4657.5,99.5 Z"/></g>
<g><path style="opacity:1" fill="#fefffe" d="M 4668.5,99.5 C 4695.17,99.5 4721.83,99.5 4748.5,99.5C 4748.5,287.5 4748.5,475.5 4748.5,663.5C 4721.83,663.5 4695.17,663.5 4668.5,663.5C 4668.5,475.5 4668.5,287.5 4668.5,99.5 Z"/></g>
<g><path style="opacity:1" fill="#7f328f" d="M 4748.5,99.5 C 4754.17,99.5 4759.83,99.5 4765.5,99.5C 4765.5,287.5 4765.5,475.5 4765.5,663.5C 4759.83,663.5 4754.17,663.5 4748.5,663.5C 4748.5,475.5 4748.5,287.5 4748.5,99.5 Z"/></g>
<g><path style="opacity:1" fill="#fefffe" d="M 4765.5,99.5 C 4792.17,99.5 4818.83,99.5 4845.5,99.5C 4845.5,287.5 4845.5,475.5 4845.5,663.5C 4818.83,663.5 4792.17,663.5 4765.5,663.5C 4765.5,475.5 4765.5,287.5 4765.5,99.5 Z"/></g>
<g><path style="opacity:1" fill="#7f328f" d="M 4845.5,99.5 C 4851.17,99.5 4856.83,99.5 4862.5,99.5C 4862.5,287.5 4862.5,475.5 4862.5,663.5C 4856.83,663.5 4851.17,663.5 4845.5,663.5C 4845.5,475.5 4845.5,287.5 4845.5,99.5 Z"/></g>
<g><path style="opacity:1" fill="#fefffe" d="M 4862.5,99.5 C 4889.17,99.5 4915.83,99.5 4942.5,99.5C 4942.5,287.5 4942.5,475.5 4942.5,663.5C 4915.83,663.5 4889.17,663.5 4862.5,663.5C 4862.5,475.5 4862.5,287.5 4862.5,99.5 Z"/></g>
<g><path style="opacity:1" fill="#7f328f" d="M 4942.5,99.5 C 4948.17,99.5 4953.83,99.5 4959.5,99.5C 4959.5,287.5 4959.5,475.5 4959.5,663.5C 4953.83,663.5 4948.17,663.5 4942.5,663.5C 4942.5,475.5 4942.5,287.5 4942.5,99.5 Z"/></g>
<g><path style="opacity:1" fill="#fefffe" d="M 4959.5,99.5 C 4986.5,99.5 5013.5,99.5 5040.5,99.5C 5040.5,287.5 5040.5,475.5 5040.5,663.5C 5013.5,663.5 4986.5,663.5 4959.5,663.5C 4959.5,475.5 4959.5,287.5 4959.5,99.5 Z"/></g>
<g><path style="opacity:1" fill="#7f328f" d="M 5040.5,99.5 C 5046.17,99.5 5051.83,99.5 5057.5,99.5C 5057.5,287.5 5057.5,475.5 5057.5,663.5C 5051.83,663.5 5046.17,663.5 5040.5,663.5C 5040.5,475.5 5040.5,287.5 5040.5,99.5 Z"/></g>
<g><path style="opacity:1" fill="#fefffe" d="M 5057.5,99.5 C 5084.17,99.5 5110.83,99.5 5137.5,99.5C 5137.5,287.5 5137.5,475.5 5137.5,663.5C 5110.83,663.5 5084.17,663.5 5057.5,663.5C 5057.5,475.5 5057.5,287.5 5057.5,99.5 Z"/></g>
<g><path style="opacity:1" fill="#000000" d="M 5138.5,99.5 C 5143.5,99.5 5148.5,99.5 5153.5,99.5C 5153.5,287.5 5153.5,475.5 5153.5,663.5C 5148.5,663.5 5143.5,663.5 5138.5,663.5C 5138.5,475.5 5138.5,287.5 5138.5,99.5 Z"/></g>
<g><path style="opacity:1" fill="#fefffe" d="M 5305.5,99.5 C 5305.5,114.833 5305.5,130.167 5305.5,145.5C 5307.17,145.5 5308.83,145.5 5310.5,145.5C 5310.5,130.167 5310.5,114.833 5310.5,99.5C 5330.5,99.5 5350.5,99.5 5370.5,99.5C 5370.5,287.5 5370.5,475.5 5370.5,663.5C 5350.5,663.5 5330.5,663.5 5310.5,663.5C 5310.5,648.167 5310.5,632.833 5310.5,617.5C 5308.83,617.5 5307.17,617.5 5305.5,617.5C 5305.5,632.833 5305.5,648.167 5305.5,663.5C 5255.17,663.5 5204.83,663.5 5154.5,663.5C 5154.5,475.5 5154.5,287.5 5154.5,99.5C 5204.83,99.5 5255.17,99.5 5305.5,99.5 Z"/></g>
<g><path style="opacity:1" fill="#777777" d="M 5305.5,99.5 C 5306.5,114.324 5306.83,129.324 5306.5,144.5C 5307.5,144.5 5308.5,144.5 5309.5,144.5C 5309.17,129.324 5309.5,114.324 5310.5,99.5C 5310.5,114.833 5310.5,130.167 5310.5,145.5C 5308.83,145.5 5307.17,145.5 5305.5,145.5C 5305.5,130.167 5305.5,114.833 5305.5,99.5 Z"/></g>
<g><path style="opacity:1" fill="#006200" d="M 4338.5,346.5 C 4338.5,372.167 4338.5,397.833 4338.5,423.5C 4341.83,423.5 4345.17,423.5 4348.5,423.5C 4345.04,424.482 4341.37,424.815 4337.5,424.5C 4337.17,398.328 4337.5,372.328 4338.5,346.5 Z"/></g>
<g><path style="opacity:1" fill="#00fc00" d="M 4338.5,346.5 C 4341.83,346.5 4345.17,346.5 4348.5,346.5C 4348.5,357.167 4348.5,367.833 4348.5,378.5C 4361.83,378.5 4375.17,378.5 4388.5,378.5C 4388.5,367.833 4388.5,357.167 4388.5,346.5C 4391.83,346.5 4395.17,346.5 4398.5,346.5C 4398.5,372.167 4398.5,397.833 4398.5,423.5C 4395.17,423.5 4391.83,423.5 4388.5,423.5C 4388.5,411.5 4388.5,399.5 4388.5,387.5C 4375.17,387.5 4361.83,387.5 4348.5,387.5C 4348.5,399.5 4348.5,411.5 4348.5,423.5C 4345.17,423.5 4341.83,423.5 4338.5,423.5C 4338.5,397.833 4338.5,372.167 4338.5,346.5 Z"/></g>
<g><path style="opacity:1" fill="#004501" d="M 4398.5,346.5 C 4399.5,372.328 4399.83,398.328 4399.5,424.5C 4395.63,424.815 4391.96,424.482 4388.5,423.5C 4391.83,423.5 4395.17,423.5 4398.5,423.5C 4398.5,397.833 4398.5,372.167 4398.5,346.5 Z"/></g>
<g><path style="opacity:1" fill="#00d500" d="M 4466.5,346.5 C 4466.83,346.5 4467.17,346.5 4467.5,346.5C 4451.01,347.497 4434.34,347.83 4417.5,347.5C 4417.5,372.833 4417.5,398.167 4417.5,423.5C 4417.17,423.5 4416.83,423.5 4416.5,423.5C 4416.5,397.833 4416.5,372.167 4416.5,346.5C 4433.17,346.5 4449.83,346.5 4466.5,346.5 Z"/></g>
<g><path style="opacity:1" fill="#00ff00" d="M 4467.5,346.5 C 4468.83,349.5 4468.83,352.5 4467.5,355.5C 4453.83,355.5 4440.17,355.5 4426.5,355.5C 4426.5,363.5 4426.5,371.5 4426.5,379.5C 4438.32,380.495 4450.32,380.828 4462.5,380.5C 4462.5,383.167 4462.5,385.833 4462.5,388.5C 4450.5,388.5 4438.5,388.5 4426.5,388.5C 4426.5,400.167 4426.5,411.833 4426.5,423.5C 4423.5,423.5 4420.5,423.5 4417.5,423.5C 4417.5,398.167 4417.5,372.833 4417.5,347.5C 4434.34,347.83 4451.01,347.497 4467.5,346.5 Z"/></g>
<g><path style="opacity:1" fill="#006000" d="M 4467.5,355.5 C 4467.5,355.833 4467.5,356.167 4467.5,356.5C 4467.17,356.5 4466.83,356.5 4466.5,356.5C 4453.5,356.5 4440.5,356.5 4427.5,356.5C 4427.5,364.167 4427.5,371.833 4427.5,379.5C 4427.17,379.5 4426.83,379.5 4426.5,379.5C 4426.5,371.5 4426.5,363.5 4426.5,355.5C 4440.17,355.5 4453.83,355.5 4467.5,355.5 Z"/></g>
<g><path style="opacity:1" fill="#00b900" d="M 4426.5,379.5 C 4426.83,379.5 4427.17,379.5 4427.5,379.5C 4439.5,379.5 4451.5,379.5 4463.5,379.5C 4463.5,382.5 4463.5,385.5 4463.5,388.5C 4463.17,388.5 4462.83,388.5 4462.5,388.5C 4462.5,385.833 4462.5,383.167 4462.5,380.5C 4450.32,380.828 4438.32,380.495 4426.5,379.5 Z"/></g>
<g><path style="opacity:1" fill="#006300" d="M 4462.5,388.5 C 4462.83,388.5 4463.17,388.5 4463.5,388.5C 4451.68,389.495 4439.68,389.828 4427.5,389.5C 4427.5,401.167 4427.5,412.833 4427.5,424.5C 4423.63,424.815 4419.96,424.482 4416.5,423.5C 4416.83,423.5 4417.17,423.5 4417.5,423.5C 4420.5,423.5 4423.5,423.5 4426.5,423.5C 4426.5,411.833 4426.5,400.167 4426.5,388.5C 4438.5,388.5 4450.5,388.5 4462.5,388.5 Z"/></g>
<g><path style="opacity:1" fill="#17425f" d="M 1421.5,663.5 C 1420.5,648.676 1420.17,633.676 1420.5,618.5C 1419.5,618.5 1418.5,618.5 1417.5,618.5C 1417.83,633.676 1417.5,648.676 1416.5,663.5C 1416.5,648.167 1416.5,632.833 1416.5,617.5C 1418.17,617.5 1419.83,617.5 1421.5,617.5C 1421.5,632.833 1421.5,648.167 1421.5,663.5 Z"/></g>
<g><path style="opacity:1" fill="#17425f" d="M 2069.5,663.5 C 2068.5,648.676 2068.17,633.676 2068.5,618.5C 2067.5,618.5 2066.5,618.5 2065.5,618.5C 2065.83,633.676 2065.5,648.676 2064.5,663.5C 2064.5,648.167 2064.5,632.833 2064.5,617.5C 2066.17,617.5 2067.83,617.5 2069.5,617.5C 2069.5,632.833 2069.5,648.167 2069.5,663.5 Z"/></g>
<g><path style="opacity:1" fill="#693720" d="M 2718.5,663.5 C 2717.5,648.676 2717.17,633.676 2717.5,618.5C 2716.5,618.5 2715.5,618.5 2714.5,618.5C 2714.83,633.676 2714.5,648.676 2713.5,663.5C 2713.5,648.167 2713.5,632.833 2713.5,617.5C 2715.17,617.5 2716.83,617.5 2718.5,617.5C 2718.5,632.833 2718.5,648.167 2718.5,663.5 Z"/></g>
<g><path style="opacity:1" fill="#777777" d="M 3366.5,663.5 C 3365.5,648.676 3365.17,633.676 3365.5,618.5C 3364.5,618.5 3363.5,618.5 3362.5,618.5C 3362.83,633.676 3362.5,648.676 3361.5,663.5C 3361.5,648.167 3361.5,632.833 3361.5,617.5C 3363.17,617.5 3364.83,617.5 3366.5,617.5C 3366.5,632.833 3366.5,648.167 3366.5,663.5 Z"/></g>
<g><path style="opacity:1" fill="#715a24" d="M 4014.5,663.5 C 4013.5,648.676 4013.17,633.676 4013.5,618.5C 4012.5,618.5 4011.5,618.5 4010.5,618.5C 4010.83,633.676 4010.5,648.676 4009.5,663.5C 4009.5,648.167 4009.5,632.833 4009.5,617.5C 4011.17,617.5 4012.83,617.5 4014.5,617.5C 4014.5,632.833 4014.5,648.167 4014.5,663.5 Z"/></g>
<g><path style="opacity:1" fill="#47294d" d="M 4662.5,663.5 C 4661.5,648.676 4661.17,633.676 4661.5,618.5C 4660.5,618.5 4659.5,618.5 4658.5,618.5C 4658.83,633.676 4658.5,648.676 4657.5,663.5C 4657.5,648.167 4657.5,632.833 4657.5,617.5C 4659.17,617.5 4660.83,617.5 4662.5,617.5C 4662.5,632.833 4662.5,648.167 4662.5,663.5 Z"/></g>
<g><path style="opacity:1" fill="#777777" d="M 5310.5,663.5 C 5309.5,648.676 5309.17,633.676 5309.5,618.5C 5308.5,618.5 5307.5,618.5 5306.5,618.5C 5306.83,633.676 5306.5,648.676 5305.5,663.5C 5305.5,648.167 5305.5,632.833 5305.5,617.5C 5307.17,617.5 5308.83,617.5 5310.5,617.5C 5310.5,632.833 5310.5,648.167 5310.5,663.5 Z"/></g>
<g><path style="opacity:1" fill="#ff0b05" d="M 1742.5,771.5 C 1742.67,751.497 1742.5,731.497 1742,711.5C 1741.28,712.044 1740.78,712.711 1740.5,713.5C 1735.49,717.009 1730.15,720.009 1724.5,722.5C 1723.35,719.554 1723.18,716.554 1724,713.5C 1732.69,709.145 1739.86,702.979 1745.5,695C 1747.47,694.505 1749.47,694.338 1751.5,694.5C 1751.5,720.5 1751.5,746.5 1751.5,772.5C 1748.29,772.81 1745.29,772.477 1742.5,771.5 Z"/></g>
<g><path style="opacity:1" fill="#ff130b" d="M 1824.5,694.5 C 1837.28,692.057 1846.78,696.391 1853,707.5C 1855.95,717.743 1852.79,725.243 1843.5,730C 1857.78,737.862 1860.95,749.028 1853,763.5C 1849.91,767.928 1845.74,770.761 1840.5,772C 1817.22,776.319 1806.06,766.819 1807,743.5C 1808.83,736.333 1813.33,731.833 1820.5,730C 1808.95,723.463 1806.45,714.296 1813,702.5C 1816.15,698.689 1819.98,696.023 1824.5,694.5 Z"/></g>
<g><path style="opacity:1" fill="#ff130b" d="M 4798.5,695.5 C 4808.74,693.844 4817.24,696.844 4824,704.5C 4826.01,707.536 4826.84,710.869 4826.5,714.5C 4823.48,714.704 4820.48,715.037 4817.5,715.5C 4814.92,704.377 4808.26,700.877 4797.5,705C 4789.21,711.966 4786.05,720.799 4788,731.5C 4801.07,719.094 4813.41,719.76 4825,733.5C 4832.25,749.012 4829.08,761.845 4815.5,772C 4797.21,777.604 4785.04,771.438 4779,753.5C 4777.69,743.862 4777.35,734.196 4778,724.5C 4779.01,710.418 4785.84,700.752 4798.5,695.5 Z"/></g>
<g><path style="opacity:1" fill="#ff1009" d="M 4881.5,762.5 C 4880.96,762.56 4880.62,762.893 4880.5,763.5C 4892.82,764.499 4905.15,764.832 4917.5,764.5C 4917.5,767.167 4917.5,769.833 4917.5,772.5C 4900.47,773.152 4883.8,772.485 4867.5,770.5C 4868.22,765.723 4870.05,761.39 4873,757.5C 4883,748.167 4893,738.833 4903,729.5C 4909.15,722.514 4909.81,715.18 4905,707.5C 4896.35,701.559 4888.35,702.226 4881,709.5C 4879.09,712.206 4878.26,715.206 4878.5,718.5C 4875.5,718.5 4872.5,718.5 4869.5,718.5C 4869.25,706.575 4874.92,699.075 4886.5,696C 4896.39,694.181 4905.22,696.348 4913,702.5C 4919.96,711.549 4920.29,720.882 4914,730.5C 4903.33,741.342 4892.49,752.008 4881.5,762.5 Z"/></g>
<g><path style="opacity:1" fill="#ff1009" d="M 3774.5,696.5 C 3792.51,694.913 3803.35,702.913 3807,720.5C 3808.11,732.621 3807.44,744.621 3805,756.5C 3797.77,773.919 3785.27,779.086 3767.5,772C 3762.01,767.849 3759.01,762.349 3758.5,755.5C 3761.52,755.335 3764.52,755.502 3767.5,756C 3771.75,767.944 3779.42,770.61 3790.5,764C 3796.17,756.475 3798.67,747.975 3798,738.5C 3788.38,748.649 3777.55,750.149 3765.5,743C 3759.49,737.301 3756.82,730.301 3757.5,722C 3757.31,709.525 3762.98,701.025 3774.5,696.5 Z"/></g>
<g><path style="opacity:1" fill="#ff150c" d="M 3864.5,696.5 C 3874.99,694.988 3883.82,697.988 3891,705.5C 3896.84,716.3 3894.68,725.133 3884.5,732C 3896.29,737.09 3900.46,745.923 3897,758.5C 3889.9,772.887 3878.4,778.053 3862.5,774C 3853.8,770.626 3848.8,764.292 3847.5,755C 3847.91,754.055 3848.57,753.388 3849.5,753C 3852.15,752.503 3854.81,752.336 3857.5,752.5C 3860.75,767.123 3869.08,770.956 3882.5,764C 3889.77,754.66 3889.1,745.993 3880.5,738C 3875.91,736.775 3871.25,736.275 3866.5,736.5C 3866.34,734.143 3866.5,731.81 3867,729.5C 3873.4,729.634 3878.73,727.301 3883,722.5C 3885.79,707.299 3879.62,701.799 3864.5,706C 3861.16,709.023 3858.82,712.689 3857.5,717C 3854.77,717.728 3852.1,717.562 3849.5,716.5C 3848.39,715.277 3848.22,713.944 3849,712.5C 3851.69,704.65 3856.85,699.316 3864.5,696.5 Z"/></g>
<g><path style="opacity:1" fill="#ff140c" d="M 2931.5,697.5 C 2941.36,696.087 2949.86,698.753 2957,705.5C 2963.08,716.401 2961.25,725.568 2951.5,733C 2962.43,738.025 2966.6,746.525 2964,758.5C 2957.41,773.71 2945.91,779.21 2929.5,775C 2920.02,771.363 2915.02,764.53 2914.5,754.5C 2917.49,753.865 2920.49,753.699 2923.5,754C 2926.75,767.624 2934.75,771.624 2947.5,766C 2956.33,757.595 2956.66,748.928 2948.5,740C 2943.37,737.358 2938.03,736.858 2932.5,738.5C 2932.83,735.833 2933.17,733.167 2933.5,730.5C 2946.9,730.617 2952.4,724.283 2950,711.5C 2945.82,705.888 2940.32,704.055 2933.5,706C 2928.38,708.626 2925.38,712.793 2924.5,718.5C 2921.46,718.492 2918.46,718.159 2915.5,717.5C 2916.78,707.558 2922.11,700.891 2931.5,697.5 Z"/></g>
<g><path style="opacity:1" fill="#ff0805" d="M 3039.5,697.5 C 3039.5,723.167 3039.5,748.833 3039.5,774.5C 3036.5,774.5 3033.5,774.5 3030.5,774.5C 3030.83,754.822 3030.5,735.155 3029.5,715.5C 3024.2,720.137 3018.2,723.471 3011.5,725.5C 3011.18,722.428 3011.52,719.428 3012.5,716.5C 3021.3,712.601 3028.3,706.601 3033.5,698.5C 3035.4,697.534 3037.4,697.201 3039.5,697.5 Z"/></g>
<g><path style="opacity:1" fill="#ff6463" d="M 3039.5,697.5 C 3040.5,723.328 3040.83,749.328 3040.5,775.5C 3036.96,775.813 3033.62,775.479 3030.5,774.5C 3033.5,774.5 3036.5,774.5 3039.5,774.5C 3039.5,748.833 3039.5,723.167 3039.5,697.5 Z"/></g>
<g><path style="opacity:1" fill="#fffafa" d="M 1826.5,702.5 C 1833.33,701.051 1838.83,703.051 1843,708.5C 1845.68,721.154 1840.52,726.987 1827.5,726C 1820.03,722.88 1817.53,717.38 1820,709.5C 1821.69,706.642 1823.86,704.309 1826.5,702.5 Z"/></g>
<g><path style="opacity:1" fill="#fffaf9" d="M 3777.5,704.5 C 3792.22,704.39 3798.72,711.723 3797,726.5C 3792.98,738.507 3785.15,742.007 3773.5,737C 3765.26,728.508 3764.43,719.341 3771,709.5C 3773.33,707.934 3775.49,706.268 3777.5,704.5 Z"/></g>
<g><path style="opacity:1" fill="#ffbebd" d="M 1742.5,771.5 C 1741.83,752.167 1741.17,732.833 1740.5,713.5C 1740.78,712.711 1741.28,712.044 1742,711.5C 1742.5,731.497 1742.67,751.497 1742.5,771.5 Z"/></g>
<g><path style="opacity:1" fill="#fffbfb" d="M 4798.5,731.5 C 4816.1,731.639 4822.27,740.306 4817,757.5C 4811.51,767.054 4804.01,768.887 4794.5,763C 4785.35,750.924 4786.69,740.424 4798.5,731.5 Z"/></g>
<g><path style="opacity:1" fill="#fffbfb" d="M 1826.5,734.5 C 1843.32,733.498 1849.82,741.164 1846,757.5C 1839.79,765.829 1831.95,767.662 1822.5,763C 1816.94,757.636 1815.11,751.136 1817,743.5C 1819.41,739.592 1822.57,736.592 1826.5,734.5 Z"/></g>
<g><path style="opacity:1" fill="#ff2013" d="M 1781.5,761.5 C 1785.17,761.5 1788.83,761.5 1792.5,761.5C 1792.5,765.167 1792.5,768.833 1792.5,772.5C 1788.83,772.5 1785.17,772.5 1781.5,772.5C 1781.5,768.833 1781.5,765.167 1781.5,761.5 Z"/></g>
<g><path style="opacity:1" fill="#ff2013" d="M 4843.5,762.5 C 4847.17,762.5 4850.83,762.5 4854.5,762.5C 4854.5,766.167 4854.5,769.833 4854.5,773.5C 4850.83,773.5 4847.17,773.5 4843.5,773.5C 4843.5,769.833 4843.5,766.167 4843.5,762.5 Z"/></g>
<g><path style="opacity:1" fill="#ff2013" d="M 3822.5,763.5 C 3826.17,763.5 3829.83,763.5 3833.5,763.5C 3833.5,767.167 3833.5,770.833 3833.5,774.5C 3829.83,774.5 3826.17,774.5 3822.5,774.5C 3822.5,770.833 3822.5,767.167 3822.5,763.5 Z"/></g>
<g><path style="opacity:1" fill="#ff2013" d="M 2979.5,764.5 C 2983.17,764.5 2986.83,764.5 2990.5,764.5C 2990.5,768.167 2990.5,771.833 2990.5,775.5C 2986.83,775.5 2983.17,775.5 2979.5,775.5C 2979.5,771.833 2979.5,768.167 2979.5,764.5 Z"/></g>
<g><path style="opacity:1" fill="#ff7776" d="M 4881.5,762.5 C 4893.66,763.495 4905.99,763.829 4918.5,763.5C 4918.5,766.833 4918.5,770.167 4918.5,773.5C 4901.17,773.5 4883.83,773.5 4866.5,773.5C 4866.26,772.209 4866.6,771.209 4867.5,770.5C 4883.8,772.485 4900.47,773.152 4917.5,772.5C 4917.5,769.833 4917.5,767.167 4917.5,764.5C 4905.15,764.832 4892.82,764.499 4880.5,763.5C 4880.62,762.893 4880.96,762.56 4881.5,762.5 Z"/></g>
</svg>
